<svg width="262" height="487" viewBox="0 0 262 487" fill="none" xmlns="http://www.w3.org/2000/svg">
<circle cx="102.829" cy="43.5" r="43.5" fill="#D9D9D9"/>
<rect x="97.3289" y="86" width="11" height="225" fill="#D9D9D9"/>
<rect x="59.3289" y="322" width="11" height="86" rx="5.5" fill="#D9D9D9"/>
<rect x="59.3289" y="401" width="11" height="86" rx="5.5" fill="#D9D9D9"/>
<rect x="134.329" y="308" width="11" height="86" rx="5.5" fill="#D9D9D9"/>
<rect x="134.329" y="387" width="11" height="86" rx="5.5" fill="#D9D9D9"/>
<path d="M50.3289 138.5C50.3289 135.462 52.7913 133 55.8289 133C58.8664 133 61.3289 135.462 61.3289 138.5V211.5C61.3289 214.538 58.8664 217 55.8289 217C52.7913 217 50.3289 214.538 50.3289 211.5V138.5Z" fill="#D9D9D9"/>
<rect x="50.3289" y="208" width="11" height="68" rx="5.5" fill="#D9D9D9"/>
<rect x="145.329" y="110" width="11" height="93" rx="5.5" fill="#D9D9D9"/>
<rect x="50.179" y="128.287" width="106" height="11" rx="5.5" transform="rotate(-10 50.179 128.287)" fill="#D9D9D9"/>
<rect x="59.0347" y="318.637" width="87" height="11" rx="5.5" transform="rotate(-10 59.0347 318.637)" fill="#D9D9D9"/>
<path d="M145.991 39.3161C145.277 39.9304 144.089 39.7451 143.122 39.3304C142.816 39.2031 142.741 38.3214 142.518 38.196C142.103 37.9465 141.867 38.4452 141.432 38.1337C141.284 38.0271 141.102 36.6457 140.953 36.5649C140.159 36.1275 139.614 36.6229 138.884 36.497C136.729 36.1368 134.72 36.0767 132.674 36.1391C131.28 36.1766 129.885 36.2691 128.455 36.3506C127.329 36.4114 125.684 35.5171 124.693 36.3238C124.577 36.4193 124.942 37.582 124.941 37.6854C124.909 39.272 124.461 36.8547 124.125 36.6005C122.802 35.5966 121.639 35.7637 120.77 36.4576C120.398 36.7571 121.39 39.0019 120.646 37.7874C120.594 37.7055 120.397 36.4246 120.249 36.3189C119.917 36.0806 119.483 36.4236 119.256 36.3732C118.82 36.2695 118.758 36.2979 118.385 36.3733C117.88 36.4634 117.133 35.9842 116.659 36.4001C116.559 36.4925 117.023 37.7422 116.894 38.0054C116.765 38.2681 116.255 38.2762 116.018 38.0127C115.78 37.7489 115.605 36.7209 115.52 36.4961C114.808 34.5974 114.898 37.4443 114.844 37.5281C113.809 38.988 112.304 37.7184 111.067 38.0225C110.133 38.2556 109.25 39.0087 108.341 39.1545C107.254 39.324 106.186 38.8442 105.18 39.2138C105.074 39.2514 105.567 40.7335 105.438 40.7823C104.065 41.3003 102.62 41.4744 100.962 40.793C100.796 40.7233 100.658 39.3508 100.472 39.2017C99.3453 38.3181 97.3476 36.024 98.2235 41.9329C97.5796 41.8489 96.8205 41.7845 96.0108 40.7455C95.4916 40.0763 95.4728 38.5498 95.2054 39.2673C95.1448 39.4274 95.5711 40.6659 95.4571 40.8101C94.9793 41.4157 94.2325 41.1591 93.8039 41.9546C93.7177 42.1193 94.0225 43.2475 94.0379 43.4602C94.1513 45.1849 93.0285 42.558 92.8746 42.3844C91.727 41.0901 91.3127 41.8067 90.5629 41.9477C90.3907 41.9793 90.9565 43.4574 90.804 43.5426C90.0155 43.9623 89.0968 44.043 88.1165 43.5608C87.8977 43.4498 87.7552 42.1097 87.6349 41.9901C87.0998 41.4807 87.5969 43.9575 87.0979 43.5156C86.9936 43.4255 86.7729 42.3018 86.7295 42.183C86.0491 40.317 86.5032 43.0822 86.4604 43.1559C85.9283 44.1491 84.7786 41.4228 84.1791 41.9896C84.1056 42.0609 84.6325 43.424 84.4055 43.5381C82.9248 44.2998 81.1477 44.3105 79.3193 43.5492C79.0359 43.4326 78.9613 42.333 78.9154 42.2061C78.1899 40.2243 78.6719 42.9943 78.6182 43.1154C78.6026 43.147 78.5861 43.1747 78.5689 43.1988C78.0596 43.862 77.0681 41.9629 77.3583 45.2041C74.4343 44.6841 72.1224 47.1196 68.7943 44.7135C68.7534 44.686 68.5528 43.3168 68.4731 43.2678C67.5032 42.6625 68.0837 44.7389 67.9726 47.4306C67.9433 48.1068 66.955 45.0595 66.8789 44.8364C66.5949 44.0159 66.3864 41.9647 66.3125 41.809C65.7373 40.5853 66.9192 47.2847 66.3827 47.3741C66.3638 47.3657 66.2371 46.118 66.1715 46.0025C65.965 45.6399 65.9029 46.1532 65.7038 45.7478C65.2282 44.8112 64.6695 41.5542 64.4705 43.5222C64.4457 43.7768 65.0492 47.5914 64.5015 47.4752C64.2834 47.429 63.296 47.5937 62.9484 47.3575C62.6264 47.1249 62.7763 45.8716 62.7486 45.8193C61.9093 44.2081 62.1833 43.5115 61.8816 41.0806C61.6501 38.6528 61.6033 44.4351 61.4767 45.0785C61.4257 45.3458 61.3526 45.2655 61.3232 45.0485C61.1686 44.7465 60.9835 44.1741 60.91 43.9004C60.7982 43.4306 60.9124 42.6383 60.8146 42.3732C60.1405 40.6411 60.5913 45.2484 60.3921 46.1701C59.9247 48.352 59.4708 44.0692 59.0139 43.6547C58.8906 43.5428 59.003 44.5183 58.8939 44.611C58.4659 44.9651 58.1852 43.6298 57.7075 44.8611C57.6259 45.0618 57.2441 47.6436 56.9755 45.7527C56.9372 45.4801 57.0346 44.4107 56.848 44.1724C56.5677 43.8148 56.076 43.5834 55.7779 43.9414C55.5587 44.2064 55.8143 45.9669 55.5391 45.4204C55.4165 45.1764 55.6406 44.1457 55.4104 43.7731C55.1768 43.4008 54.5964 43.4463 54.3765 43.4815C54.1543 43.5176 54.274 44.8537 54.256 44.9437C54.1426 45.4591 53.7197 46.1024 53.6794 46.1006C51.7619 46.258 50.038 43.9883 48.178 44.7027C48.033 44.7569 48.1051 46.167 48.0827 46.1898C47.5756 46.7714 48.0324 43.0332 47.7086 41.7736C47.7075 44.6328 47.5103 44.1116 47.1567 44.4184C46.9851 44.5685 47.0553 45.677 47.0377 45.79C46.8927 46.6453 46.786 46.4978 46.7122 46.089C46.6397 45.6968 46.599 45.064 46.5813 44.846C46.449 43.2086 46.2225 45.1346 46.1354 44.0398C46.0504 42.9531 46.3496 41.3531 46.0152 41.365C45.8926 42.3854 46.0747 45.0656 45.8024 45.4918C44.7643 47.1066 42.9966 44.9298 42.2348 44.6658C41.4661 44.4041 41.1996 44.5752 40.769 44.176C39.9936 43.4523 40.1597 45.4525 39.572 46.3199C38.9843 47.1859 39.6127 42.3375 39.6206 41.2856C39.6315 40.2343 39.47 41.3048 39.4283 40.723C39.3878 40.1414 39.6306 39.4449 39.4462 39.213C39.2625 38.9816 38.5515 40.7943 38.3794 41.8805C38.0207 44.1827 38.069 46.6369 37.5802 45.7324C37.5525 45.6788 37.7725 44.4098 37.6612 44.2695C36.7802 43.1973 35.7843 43.0341 34.9215 42.0578C34.8047 41.9218 35.0805 40.5157 35.015 40.4205C34.3312 39.4233 34.3389 41.8474 33.5838 44.452C34.1012 40.9286 34.1184 38.7385 33.5304 38.645C33.174 38.5869 33.0456 40.1375 32.6739 41.1951C32.5635 41.5142 32.4406 40.4225 32.3025 41.1419C31.8474 43.4931 31.7481 46.1781 31.2569 45.0404C31.2357 44.9866 31.4921 43.7006 31.4068 43.6097C31.1976 43.3798 31.0058 43.6093 30.8169 43.9903C30.5501 44.5968 30.2987 45.5824 29.9763 45.7386C29.582 45.9377 28.8923 44.3751 28.329 44.1145C28.4514 40.1138 27.8626 41.0171 27.5992 43.773C27.2273 43.6538 26.8083 43.8043 26.4345 43.416C26.3059 43.2835 26.4139 42.1266 26.3997 42.0012C26.1904 40.0329 25.9651 42.7127 25.8737 42.8157C24.8913 43.8129 24.2449 41.7472 23.1478 43.6438C23.1138 43.704 22.862 45.8603 22.7511 44.9638C22.7389 44.8441 22.7299 44.6697 22.7254 44.4284C22.7246 44.3626 22.8176 44.0599 22.8738 43.7415C22.9 43.5973 22.9181 43.45 22.9162 43.3198C22.9145 43.1219 22.8685 42.9644 22.7376 42.9191C22.3237 42.7784 21.7315 41.2099 21.0164 42.419C20.8434 42.7103 20.2184 44.9066 20.1657 43.1228C20.1592 42.8807 20.2982 42.0946 20.3011 41.6478C20.308 40.2239 19.8668 43.0004 19.965 40.607C20.0651 38.2142 19.8564 36.3857 19.0896 37.9551C19.0651 38.0005 18.6788 40.1978 18.5102 40.1438C18.2389 40.0553 17.8883 39.5532 17.5913 39.5418C17.4495 39.5372 17.4207 40.9228 17.3942 40.9459C17.0783 41.1705 16.816 41.1921 16.5669 41.0994C16.0673 40.9077 15.5574 40.2183 14.8727 39.8542C14.6849 39.7526 14.1585 41.6393 13.7925 40.15C13.3931 38.5192 13.7605 31.7295 12.8862 33.3486C12.5573 33.9955 12.0211 42.6092 11.4227 38.1345C10.694 38.7534 10.0127 38.245 9.38751 37.9568C9.05917 37.7511 8.77654 37.6457 8.07848 38.0806C8.02117 38.1326 6.84358 40.2391 6.69211 40.1266C6.49226 39.9664 6.92229 38.9192 6.83487 38.7841C6.48963 38.195 5.47076 38.6432 5.07265 38.1082C4.92849 37.9108 5.75798 37.0945 5.61912 36.8791C5.49272 36.6732 4.27054 37.6193 4.55292 36.8368C4.76506 36.2338 7.01506 34.0479 7.2134 33.7031C4.74597 35.55 4.66735 35.3581 3.75411 35.4295C3.57434 35.4379 2.70603 36.0762 2.57158 36.1054C2.09845 36.1978 2.46556 35.8037 2.28324 35.7315C2.22058 35.6562 2.17456 35.3817 2.13997 35.2901C2.10665 35.2598 2.04222 35.2339 1.92899 35.2127C1.77942 35.1848 0.73406 35.3138 0.551929 35.2883C-1.04985 35.0136 1.30252 34.1669 1.72301 34.1435C3.29712 33.8463 1.94548 33.6322 2.59033 33.4298C3.23307 33.2832 3.95252 33.7058 4.35569 33.5318C5.18357 33.224 5.1588 32.732 5.38035 32.322C5.46073 32.1633 4.12009 31.7247 4.10133 31.6897C3.95801 31.1177 5.46882 31.4552 3.13252 29.891C9.61175 33.1415 2.64656 29.3068 4.25822 29.4439C4.38779 29.4574 7.32043 31.2254 7.66619 31.623C8.0155 32.0139 6.96927 31.6798 7.55289 32.2441C7.67877 32.3951 10.4116 34.0917 10.5883 34.1751C11.8949 34.957 7.25625 32.8015 6.9876 32.7118C4.14068 31.6388 7.18784 33.3289 7.41755 33.4076C8.36658 34.0004 7.65233 33.946 8.40661 34.1705C8.89853 34.3064 12.2457 34.5576 12.1501 34.4125C11.9476 34.1058 10.0257 34.1227 9.61886 34.1811L8.9876 32.2364C8.75528 32.3268 9.04224 32.2373 10.3051 31.3872C11.034 30.9215 14.0114 28.7831 11.6181 30.3916C11.445 30.4656 9.44665 32.1862 10.7419 31.1347C10.9016 30.998 11.697 30.2857 11.7633 30.2253C12.1863 29.8282 11.5758 30.4206 11.8742 30.1427C12.1696 29.861 12.5492 29.3851 12.3055 29.6541C12.151 29.8083 10.9732 31.4123 10.716 31.8271C9.97652 33.0216 11.2588 31.1117 10.3846 32.5677C9.57648 34.0725 8.06903 36.1984 7.81023 37.3201C9.16339 34.8985 10.5402 32.4061 11.8555 29.9458C11.6197 29.92 11.0652 30.2501 10.1111 30.3239C10.2044 30.3785 10.3159 30.4057 10.4381 30.3885C10.512 30.3754 10.5366 28.8825 10.613 28.8296C10.9286 28.6117 11.2258 29.6865 11.6744 29.2714C12.0218 28.9443 12.4227 27.3677 12.8193 26.9698C13.0615 30.1445 13.6932 29.0641 14.197 29.3527C14.3722 29.4525 14.3638 30.3003 14.4899 30.5768C14.9725 31.5997 14.7504 28.7947 14.8887 28.3534C15.516 26.4728 15.5127 32.819 16.2527 32.6808C16.2773 32.6743 16.9499 29.3128 17.0739 29.1094C17.1621 28.9185 17.2281 28.806 17.2752 28.754C17.5265 28.4383 17.1517 30.3283 17.3931 30.5582C17.9007 31.0495 18.1652 31.8826 18.8238 30.9504C19.0119 30.6735 19.6359 28.6174 19.7614 30.2737C19.7775 30.4905 19.6304 31.5997 19.6546 31.6683C20.0923 32.8175 20.5135 29.329 20.9781 28.186C21.4435 27.0437 21.6054 29.5096 21.608 30.2147C21.6233 32.04 21.3273 30.9587 21.2907 31.1331C20.8731 33.21 21.2535 32.8911 21.4792 33.0994C21.0863 36.5236 21.459 36.3617 21.7142 33.3013C21.7419 32.9671 21.5098 33.2619 21.4792 33.0994C22.1214 29.7719 22.539 29.3881 22.5557 32.573C22.5649 34.0656 22.186 35.7605 22.8322 35.1996C23.1223 34.9456 23.2899 32.5764 23.5756 31.957C23.7751 31.5227 23.9449 31.4348 24.1021 31.5125C24.3796 31.6805 24.6519 32.6925 24.9781 32.4689C25.1457 32.3515 25.0624 31.0459 25.1757 30.9206C25.4689 30.5831 25.6918 31.5671 26.0263 31.0771C26.056 31.031 26.0254 29.6699 26.122 29.6552C26.86 29.5177 27.6094 30.3898 28.7061 30.4416C29.2229 30.464 30.3215 29.7598 30.9969 29.9676C31.4828 30.1138 32.006 30.5875 32.5086 31.0668C32.9311 31.6806 33.3403 32.2737 33.7546 32.0477C34.2236 31.7969 34.2946 30.4349 34.5903 29.5378C35.1541 27.7979 35.3798 31.0649 35.4074 31.5695C35.4077 31.5862 35.009 31.862 35.1202 32.5781C35.0627 34.0362 35.403 31.5753 35.4074 31.5695C35.4271 31.8963 36.114 32.2854 36.2884 32.0425C36.3829 31.91 36.4796 30.6243 36.5251 30.5792C37.6062 29.5377 38.5708 29.3038 39.474 29.9867C39.4888 30.0141 39.3389 31.4479 39.3754 31.4944C39.8827 32.1812 40.3913 30.4526 40.9193 29.4424C41.4515 28.4328 41.7735 28.8058 41.8862 31.2928C42.2528 31.0047 42.6828 32.1263 42.9398 32.8051C43.1947 33.4839 43.3829 30.6839 43.4104 30.6298C44.2794 28.8967 44.6452 30.5203 45.4532 30.7989C45.8368 30.9362 46.6102 30.5514 47.0337 30.2526C47.0342 30.2523 47.0346 30.252 47.0351 30.2517C47.3964 30.0118 47.5904 30.6731 47.9256 30.2587C47.9708 30.2034 47.9487 28.9535 47.963 28.9056C48.3511 27.4177 48.1235 30.4681 48.1889 31.0148C48.4227 33.0026 48.5824 34.0619 49.0601 33.1359C49.1709 32.9239 49.5503 28.5316 49.7442 28.277C49.9978 27.954 49.8857 29.5289 50.1553 29.1505C50.1782 29.1195 50.1859 28.1472 50.3475 28.192C51.1016 28.3872 51.922 28.9604 52.7092 28.8673C52.8163 28.8583 52.6881 27.3152 52.842 27.2768C53.5684 27.0979 54.3595 27.1567 55.0654 27.8779C55.237 28.0603 55.1308 29.1403 55.1684 29.4609C55.4103 31.4008 55.7263 28.581 55.7837 28.527C57.0666 27.168 58.0769 29.7111 59.3709 28.4778C59.4387 28.4056 59.9347 25.3754 60.2223 27.9623C60.2429 28.1344 60.5346 30.7812 60.7217 28.9643C60.7345 28.8506 60.5473 27.4888 60.8296 27.6226C60.8798 27.6476 60.9496 27.6355 61.021 27.6093C62.3342 27.4991 61.9311 27.1341 61.8968 28.3521C61.8468 28.826 61.9952 31.4688 61.9529 29.3575C61.9681 29.2087 61.62 24.4535 62.0821 27.7107C62.1612 28.2463 62.5429 31.7079 62.5986 29.9015C62.6066 29.5514 62.4142 28.7937 62.4791 28.2959C62.5838 27.5279 63.0171 28.4064 63.0848 26.8248C63.0938 26.5454 62.9229 24.1795 63.4075 25.9159C63.4834 26.1879 63.623 27.343 63.7442 27.4542C64.3434 27.9843 64.7295 27.1231 65.4188 27.8097C65.6603 28.0509 65.9176 29.9147 66.2193 30.369C66.5335 30.8208 67.0218 31.2176 67.0837 30.3293C67.1308 29.4436 66.3044 26.5559 66.5695 26.2577C67.7339 24.9589 69.5246 26.368 71.0221 26.2961C71.2401 26.2866 70.8306 25.2804 71.1376 25.1906C71.9577 24.9493 73.03 24.1858 74.1776 24.3996C74.6627 24.496 75.1639 24.7778 75.6442 25.3741C76.891 26.9545 76.1685 28.5501 76.9678 29.1246C77.3532 29.3977 76.8929 25.9298 76.9431 25.8054C77.4247 24.5484 78.2675 25.9339 78.8255 25.3158C78.9361 25.1888 78.4807 23.8466 78.5785 23.7537C78.9098 23.4239 79.4693 23.9386 79.8249 23.7359C79.9849 23.6415 79.701 22.6013 79.8743 22.6457C80.2841 22.7403 80.7169 23.1031 81.3163 23.9988C81.371 24.0804 81.4557 25.4381 81.7453 25.4206C82.2131 25.3884 82.9842 26.2292 83.2656 25.1045C83.3459 24.7672 82.7879 22.3683 83.5034 23.9463C83.6538 24.2756 84.2521 27.1733 84.0383 24.5973C84.0031 24.1692 83.8427 20.6641 84.6768 22.7491C84.8982 23.2974 85.6668 25.6019 85.761 25.1884C85.7716 25.1235 85.3654 23.8604 85.4862 23.6989C85.9148 23.1526 86.5225 23.1524 86.9659 22.6202C87.0855 22.4752 86.5495 21.1959 86.7379 21.0221C87.2561 20.5423 88.0928 20.7003 88.7764 20.977C89.0304 21.0812 89.1452 22.2198 89.1897 22.3361C89.9114 24.2271 89.4302 21.5564 89.4778 21.3825C89.7866 20.3357 90.4731 21.4797 90.8789 21.0359C90.9913 20.9168 90.5952 19.6834 90.5948 19.565C90.6072 18.4046 90.9439 20.7096 91.1781 20.9164C91.8393 21.5022 92.3521 21.2722 92.808 20.9928C92.9747 20.8884 92.4206 19.481 92.5743 19.4042C93.4787 18.9212 94.5095 18.8204 95.6417 19.3971C95.8553 19.5083 96.0144 20.6564 96.1129 20.9037C96.7984 22.6344 96.5819 20.1005 96.6115 19.847C96.7451 18.69 97.136 19.645 97.4346 19.3772C98.8921 18.0506 101.126 18.2061 102.809 18.2284C105.001 18.251 106.868 18.9282 108.77 18.1741C108.892 18.1274 108.404 16.6669 108.504 16.6075C109.812 15.9101 111.319 16.1616 112.62 15.3901C112.726 15.3296 112.218 13.956 112.378 13.8115C112.699 13.5058 113.2 13.4657 113.692 13.8242C113.931 13.9965 113.975 15.2701 114.21 15.4187C114.758 15.7674 115.242 15.7564 115.642 15.4194C115.809 15.2734 115.169 13.8978 115.414 13.8207C117.063 13.2685 118.666 12.6156 120.83 14.0724C120.978 14.1726 121.794 17.0859 121.903 16.4627C121.723 15.6428 121.489 14.6839 121.286 13.8104C123.083 12.9929 125.079 13.0513 127.033 12.9266C127.656 12.8823 128.22 12.8343 128.826 12.7264C128.931 12.7074 128.373 11.1942 128.575 11.1497C129.749 10.889 130.769 10.1845 132.339 11.442C132.496 11.5641 133.103 14.3171 133.35 13.8184C133.389 13.7289 133.829 13.2353 133.822 12.6075C133.818 12.5134 133.413 11.258 133.572 11.18C134.513 10.7461 135.599 10.7917 136.784 11.3317C136.976 11.4213 137.135 12.8242 137.274 12.9C138.249 13.4289 138.865 12.1842 139.946 13.2325C140.67 13.9391 141.042 16.3405 141.873 18.5925C141.986 18.9112 142.333 18.8837 142.67 20.2294C143.502 23.6164 144.229 27.3682 145.14 30.9728C145.23 31.3627 145.351 31.3188 145.338 31.4513C145.331 31.4853 145.296 31.5347 145.225 31.6078C145.132 31.6852 145.085 31.7697 145.115 31.8679C145.143 31.9663 145.118 32.1014 145.264 32.2404C145.424 32.3767 145.564 32.5486 145.638 32.78C145.755 32.8857 145.629 33.5744 145.711 34.23C145.766 34.6834 146.178 36.0352 146.219 36.6226C146.252 37.2114 145.865 36.0881 145.854 36.7927C145.843 37.5061 146.29 39.0488 145.991 39.3161ZM44.1165 35.8341C44.3358 37.1923 44.5818 32.2632 44.2403 33.4303C44.2235 33.4926 44.1052 35.7674 44.1165 35.8341ZM9.83001 34.2015C9.65677 35.0354 9.68211 35.0685 9.69751 34.6869C9.85766 34.106 10.0021 32.5253 10.0031 31.4973C10.0032 31.4855 10.0032 31.474 10.0032 31.4627C10.5309 29.9184 10.0116 33.5706 9.83001 34.2015ZM7.83468 34.7688C6.98245 36.2985 11.3714 30.8435 10.3946 31.8702C10.3403 31.929 7.88897 34.6839 7.83468 34.7688ZM140.759 19.5586C140.773 19.6226 141.026 19.6273 141.013 19.5635C140.769 18.0101 140.277 17.9986 140.759 19.5586ZM5.32313 34.2759C4.37424 34.3943 5.48472 34.6258 6.65155 34.4293C7.59211 34.3351 6.50108 34.2072 5.32313 34.2759ZM58.9712 41.2462C58.9769 41.3196 59.1422 41.3837 59.1353 40.9681C59.1022 39.6295 58.8818 40.0103 58.9712 41.2462ZM7.47564 28.7952C6.80002 29.85 1.4754 27.4987 2.26604 27.3291C2.42865 27.2398 3.87054 28.2795 4.41738 28.3181C5.4406 28.3218 2.16908 26.6615 4.19451 26.8784C4.54154 26.9673 7.50284 28.7914 7.48262 28.7995C7.48029 28.7981 7.47797 28.7966 7.47564 28.7952ZM44.022 41.7632C44.0248 41.8287 44.2558 41.9003 44.2642 41.8359C44.453 40.2756 43.9937 40.1308 44.022 41.7632ZM69.1616 43.2668C69.1975 43.4017 69.7687 43.4202 69.763 43.2904C69.5362 40.7231 68.4008 40.6741 69.1616 43.2668ZM28.3231 44.0076C28.0459 45.577 27.7668 45.7574 27.6004 43.7751C27.845 43.8842 28.0882 43.9044 28.3231 44.0076Z" fill="black"/>
<circle cx="121.329" cy="26" r="5" fill="#D9D9D9"/>
<path d="M144.179 59.608C145.27 59.4368 146.016 58.4135 145.845 57.3222C145.673 56.231 144.65 55.4852 143.559 55.6563L143.869 57.6322L144.179 59.608ZM143.77 57.6477L143.721 59.6471L143.901 59.6515L144.08 59.6235L143.77 57.6477ZM130.338 59.8972L130.238 61.8947L130.338 59.8972ZM128.324 59.9336H126.324V60.6436L126.771 61.1947L128.324 59.9336ZM128.422 60.0551L128.732 62.031L132.167 61.4922L129.975 58.794L128.422 60.0551ZM128.014 58.0948C126.922 58.266 126.177 59.2894 126.348 60.3806C126.519 61.4718 127.542 62.2177 128.633 62.0465L128.324 60.0706L128.014 58.0948ZM143.869 57.6322L143.559 55.6563L143.46 55.6718L143.77 57.6477L144.08 59.6235L144.179 59.608L143.869 57.6322ZM143.77 57.6477L143.819 55.6483C139.817 55.5497 136.552 55.9025 134.285 56.9279L135.11 58.7501L135.935 60.5722C137.345 59.9339 139.853 59.5518 143.721 59.6471L143.77 57.6477ZM135.11 58.7501L134.285 56.9279C132.604 57.6889 131.344 57.9449 130.438 57.8997L130.338 59.8972L130.238 61.8947C132.018 61.9836 133.94 61.475 135.935 60.5722L135.11 58.7501ZM130.338 59.8972L130.438 57.8997C129.756 57.8656 129.197 57.8489 128.791 57.8562C128.602 57.8596 128.367 57.869 128.145 57.9032C128.053 57.9173 127.825 57.955 127.571 58.0632C127.447 58.1162 127.19 58.2377 126.938 58.4823C126.659 58.753 126.324 59.2462 126.324 59.9336H128.324H130.324C130.324 60.6095 129.993 61.0918 129.725 61.3524C129.483 61.5868 129.243 61.6988 129.139 61.7427C128.927 61.8331 128.762 61.8554 128.754 61.8565C128.7 61.8648 128.716 61.8582 128.863 61.8556C129.128 61.8508 129.577 61.8616 130.238 61.8947L130.338 59.8972ZM128.324 59.9336L126.771 61.1947L126.87 61.3163L128.422 60.0551L129.975 58.794L129.876 58.6724L128.324 59.9336ZM128.422 60.0551L128.112 58.0793L128.014 58.0948L128.324 60.0706L128.633 62.0465L128.732 62.031L128.422 60.0551Z" fill="black"/>
<path d="M200.829 487C200.829 487 200.829 270.331 200.829 131.5L176.829 87L200.829 51.5H240.829L257.829 72.5" stroke="#D9D9D9" stroke-width="9"/>
<path d="M148.829 198.5L201.829 191.5" stroke="#D9D9D9" stroke-width="9"/>
</svg>
