<svg width="471" height="487" viewBox="0 0 471 487" fill="none" xmlns="http://www.w3.org/2000/svg">
<circle cx="312.5" cy="43.5" r="43.5" fill="#D9D9D9"/>
<rect x="307" y="86" width="11" height="225" fill="#D9D9D9"/>
<rect x="269" y="322" width="11" height="86" rx="5.5" fill="#D9D9D9"/>
<rect x="269" y="401" width="11" height="86" rx="5.5" fill="#D9D9D9"/>
<rect x="344" y="308" width="11" height="86" rx="5.5" fill="#D9D9D9"/>
<rect x="344" y="387" width="11" height="86" rx="5.5" fill="#D9D9D9"/>
<path d="M260 138.5C260 135.462 262.462 133 265.5 133C268.538 133 271 135.462 271 138.5V211.5C271 214.538 268.538 217 265.5 217C262.462 217 260 214.538 260 211.5V138.5Z" fill="#D9D9D9"/>
<rect x="260" y="208" width="11" height="68" rx="5.5" fill="#D9D9D9"/>
<rect x="355" y="110" width="11" height="93" rx="5.5" fill="#D9D9D9"/>
<rect x="259.85" y="128.287" width="106" height="11" rx="5.5" transform="rotate(-10 259.85 128.287)" fill="#D9D9D9"/>
<rect x="268.706" y="318.637" width="87" height="11" rx="5.5" transform="rotate(-10 268.706 318.637)" fill="#D9D9D9"/>
<path d="M355.662 39.3161C354.948 39.9304 353.76 39.7451 352.793 39.3304C352.487 39.2031 352.412 38.3214 352.189 38.196C351.774 37.9465 351.538 38.4452 351.104 38.1337C350.955 38.0271 350.773 36.6457 350.624 36.5649C349.83 36.1275 349.285 36.6229 348.555 36.497C346.4 36.1368 344.391 36.0767 342.345 36.1391C340.951 36.1766 339.556 36.2691 338.127 36.3506C337 36.4114 335.355 35.5171 334.364 36.3238C334.248 36.4193 334.613 37.582 334.612 37.6854C334.58 39.272 334.132 36.8547 333.796 36.6005C332.473 35.5966 331.31 35.7637 330.441 36.4576C330.069 36.7571 331.061 39.0019 330.317 37.7874C330.266 37.7055 330.068 36.4246 329.92 36.3189C329.588 36.0806 329.154 36.4236 328.927 36.3732C328.491 36.2695 328.429 36.2979 328.056 36.3733C327.551 36.4634 326.804 35.9842 326.33 36.4001C326.23 36.4925 326.694 37.7422 326.565 38.0054C326.436 38.2681 325.926 38.2762 325.689 38.0127C325.451 37.7489 325.276 36.7209 325.191 36.4961C324.479 34.5974 324.569 37.4443 324.516 37.5281C323.48 38.988 321.975 37.7184 320.738 38.0225C319.804 38.2556 318.921 39.0087 318.012 39.1545C316.925 39.324 315.857 38.8442 314.851 39.2138C314.745 39.2514 315.238 40.7335 315.109 40.7823C313.736 41.3003 312.291 41.4744 310.633 40.793C310.467 40.7233 310.329 39.3508 310.144 39.2017C309.016 38.3181 307.019 36.024 307.895 41.9329C307.251 41.8489 306.492 41.7845 305.682 40.7455C305.163 40.0763 305.144 38.5498 304.877 39.2673C304.816 39.4274 305.242 40.6659 305.128 40.8101C304.65 41.4157 303.904 41.1591 303.475 41.9546C303.389 42.1193 303.694 43.2475 303.709 43.4602C303.822 45.1849 302.7 42.558 302.546 42.3844C301.398 41.0901 300.984 41.8067 300.234 41.9477C300.062 41.9793 300.628 43.4574 300.475 43.5426C299.687 43.9623 298.768 44.043 297.788 43.5608C297.569 43.4498 297.426 42.1097 297.306 41.9901C296.771 41.4807 297.268 43.9575 296.769 43.5156C296.665 43.4255 296.444 42.3018 296.401 42.183C295.72 40.317 296.174 43.0822 296.132 43.1559C295.599 44.1491 294.45 41.4228 293.85 41.9896C293.777 42.0609 294.304 43.424 294.077 43.5381C292.596 44.2998 290.819 44.3105 288.99 43.5492C288.707 43.4326 288.632 42.333 288.587 42.2061C287.861 40.2243 288.343 42.9943 288.289 43.1154C288.274 43.147 288.257 43.1747 288.24 43.1988C287.731 43.862 286.739 41.9629 287.029 45.2041C284.105 44.6841 281.794 47.1196 278.465 44.7135C278.425 44.686 278.224 43.3168 278.144 43.2678C277.174 42.6625 277.755 44.7389 277.644 47.4306C277.614 48.1068 276.626 45.0595 276.55 44.8364C276.266 44.0159 276.058 41.9647 275.984 41.809C275.408 40.5853 276.59 47.2847 276.054 47.3741C276.035 47.3657 275.908 46.118 275.843 46.0025C275.636 45.6399 275.574 46.1532 275.375 45.7478C274.899 44.8112 274.341 41.5542 274.142 43.5222C274.117 43.7768 274.72 47.5914 274.173 47.4752C273.955 47.429 272.967 47.5937 272.62 47.3575C272.298 47.1249 272.447 45.8716 272.42 45.8193C271.58 44.2081 271.854 43.5115 271.553 41.0806C271.321 38.6528 271.274 44.4351 271.148 45.0785C271.097 45.3458 271.024 45.2655 270.994 45.0485C270.84 44.7465 270.655 44.1741 270.581 43.9004C270.469 43.4306 270.584 42.6383 270.486 42.3732C269.812 40.6411 270.262 45.2484 270.063 46.1701C269.596 48.352 269.142 44.0692 268.685 43.6547C268.562 43.5428 268.674 44.5183 268.565 44.611C268.137 44.9651 267.856 43.6298 267.379 44.8611C267.297 45.0618 266.915 47.6436 266.647 45.7527C266.608 45.4801 266.706 44.4107 266.519 44.1724C266.239 43.8148 265.747 43.5834 265.449 43.9414C265.23 44.2064 265.485 45.9669 265.21 45.4204C265.088 45.1764 265.312 44.1457 265.082 43.7731C264.848 43.4008 264.268 43.4463 264.048 43.4815C263.825 43.5176 263.945 44.8537 263.927 44.9437C263.814 45.4591 263.391 46.1024 263.351 46.1006C261.433 46.258 259.709 43.9883 257.849 44.7027C257.704 44.7569 257.776 46.167 257.754 46.1898C257.247 46.7714 257.704 43.0332 257.38 41.7736C257.379 44.6328 257.181 44.1116 256.828 44.4184C256.656 44.5685 256.726 45.677 256.709 45.79C256.564 46.6453 256.457 46.4978 256.383 46.089C256.311 45.6968 256.27 45.064 256.252 44.846C256.12 43.2086 255.894 45.1346 255.807 44.0398C255.722 42.9531 256.021 41.3531 255.686 41.365C255.564 42.3854 255.746 45.0656 255.474 45.4918C254.435 47.1066 252.668 44.9298 251.906 44.6658C251.137 44.4041 250.871 44.5752 250.44 44.176C249.665 43.4523 249.831 45.4525 249.243 46.3199C248.655 47.1859 249.284 42.3375 249.292 41.2856C249.303 40.2343 249.141 41.3048 249.099 40.723C249.059 40.1414 249.302 39.4449 249.117 39.213C248.934 38.9816 248.223 40.7943 248.051 41.8805C247.692 44.1827 247.74 46.6369 247.251 45.7324C247.224 45.6788 247.444 44.4098 247.332 44.2695C246.451 43.1973 245.455 43.0341 244.593 42.0578C244.476 41.9218 244.752 40.5157 244.686 40.4205C244.002 39.4233 244.01 41.8474 243.255 44.452C243.772 40.9286 243.79 38.7385 243.202 38.645C242.845 38.5869 242.717 40.1375 242.345 41.1951C242.235 41.5142 242.112 40.4225 241.974 41.1419C241.519 43.4931 241.419 46.1781 240.928 45.0404C240.907 44.9866 241.163 43.7006 241.078 43.6097C240.869 43.3798 240.677 43.6093 240.488 43.9903C240.221 44.5968 239.97 45.5824 239.647 45.7386C239.253 45.9377 238.563 44.3751 238 44.1145C238.123 40.1138 237.534 41.0171 237.27 43.773C236.898 43.6538 236.479 43.8043 236.106 43.416C235.977 43.2835 236.085 42.1266 236.071 42.0012C235.862 40.0329 235.636 42.7127 235.545 42.8157C234.562 43.8129 233.916 41.7472 232.819 43.6438C232.785 43.704 232.533 45.8603 232.422 44.9638C232.41 44.8441 232.401 44.6697 232.396 44.4284C232.396 44.3626 232.489 44.0599 232.545 43.7415C232.571 43.5973 232.589 43.45 232.587 43.3198C232.586 43.1219 232.54 42.9644 232.409 42.9191C231.995 42.7784 231.403 41.2099 230.687 42.419C230.515 42.7103 229.89 44.9066 229.837 43.1228C229.83 42.8807 229.969 42.0946 229.972 41.6478C229.979 40.2239 229.538 43.0004 229.636 40.607C229.736 38.2142 229.528 36.3857 228.761 37.9551C228.736 38.0005 228.35 40.1978 228.181 40.1438C227.91 40.0553 227.559 39.5532 227.262 39.5418C227.121 39.5372 227.092 40.9228 227.065 40.9459C226.749 41.1705 226.487 41.1921 226.238 41.0994C225.738 40.9077 225.229 40.2183 224.544 39.8542C224.356 39.7526 223.83 41.6393 223.464 40.15C223.064 38.5192 223.432 31.7295 222.557 33.3486C222.228 33.9955 221.692 42.6092 221.094 38.1345C220.365 38.7534 219.684 38.245 219.059 37.9568C218.73 37.7511 218.448 37.6457 217.75 38.0806C217.692 38.1326 216.515 40.2391 216.363 40.1266C216.163 39.9664 216.593 38.9192 216.506 38.7841C216.161 38.195 215.142 38.6432 214.744 38.1082C214.6 37.9108 215.429 37.0945 215.29 36.8791C215.164 36.6732 213.942 37.6193 214.224 36.8368C214.436 36.2338 216.686 34.0479 216.885 33.7031C214.417 35.55 214.338 35.3581 213.425 35.4295C213.245 35.4379 212.377 36.0762 212.243 36.1054C211.77 36.1978 212.137 35.8037 211.954 35.7315C211.892 35.6562 211.846 35.3817 211.811 35.2901C211.778 35.2598 211.713 35.2339 211.6 35.2127C211.451 35.1848 210.405 35.3138 210.223 35.2883C208.621 35.0136 210.974 34.1669 211.394 34.1435C212.968 33.8463 211.617 33.6322 212.261 33.4298C212.904 33.2832 213.624 33.7058 214.027 33.5318C214.855 33.224 214.83 32.732 215.051 32.322C215.132 32.1633 213.791 31.7247 213.772 31.6897C213.629 31.1177 215.14 31.4552 212.804 29.891C219.283 33.1415 212.318 29.3068 213.929 29.4439C214.059 29.4574 216.992 31.2254 217.337 31.623C217.687 32.0139 216.64 31.6798 217.224 32.2441C217.35 32.3951 220.083 34.0917 220.259 34.1751C221.566 34.957 216.927 32.8015 216.659 32.7118C213.812 31.6388 216.859 33.3289 217.089 33.4076C218.038 34.0004 217.323 33.946 218.078 34.1705C218.57 34.3064 221.917 34.5576 221.821 34.4125C221.619 34.1058 219.697 34.1227 219.29 34.1811L218.659 32.2364C218.426 32.3268 218.713 32.2373 219.976 31.3872C220.705 30.9215 223.683 28.7831 221.289 30.3916C221.116 30.4656 219.118 32.1862 220.413 31.1347C220.573 30.998 221.368 30.2857 221.434 30.2253C221.857 29.8282 221.247 30.4206 221.545 30.1427C221.841 29.861 222.22 29.3851 221.977 29.6541C221.822 29.8083 220.644 31.4123 220.387 31.8271C219.648 33.0216 220.93 31.1117 220.056 32.5677C219.248 34.0725 217.74 36.1984 217.481 37.3201C218.835 34.8985 220.211 32.4061 221.527 29.9458C221.291 29.92 220.736 30.2501 219.782 30.3239C219.876 30.3785 219.987 30.4057 220.109 30.3885C220.183 30.3754 220.208 28.8825 220.284 28.8296C220.6 28.6117 220.897 29.6865 221.346 29.2714C221.693 28.9443 222.094 27.3677 222.49 26.9698C222.733 30.1445 223.364 29.0641 223.868 29.3527C224.043 29.4525 224.035 30.3003 224.161 30.5768C224.644 31.5997 224.422 28.7947 224.56 28.3534C225.187 26.4728 225.184 32.819 225.924 32.6808C225.948 32.6743 226.621 29.3128 226.745 29.1094C226.833 28.9185 226.899 28.806 226.946 28.754C227.198 28.4383 226.823 30.3283 227.064 30.5582C227.572 31.0495 227.836 31.8826 228.495 30.9504C228.683 30.6735 229.307 28.6174 229.433 30.2737C229.449 30.4905 229.302 31.5997 229.326 31.6683C229.763 32.8175 230.185 29.329 230.649 28.186C231.115 27.0437 231.277 29.5096 231.279 30.2147C231.294 32.04 230.998 30.9587 230.962 31.1331C230.544 33.21 230.925 32.8911 231.15 33.0994C230.757 36.5236 231.13 36.3617 231.385 33.3013C231.413 32.9671 231.181 33.2619 231.15 33.0994C231.792 29.7719 232.21 29.3881 232.227 32.573C232.236 34.0656 231.857 35.7605 232.503 35.1996C232.793 34.9456 232.961 32.5764 233.247 31.957C233.446 31.5227 233.616 31.4348 233.773 31.5125C234.051 31.6805 234.323 32.6925 234.649 32.4689C234.817 32.3515 234.734 31.0459 234.847 30.9206C235.14 30.5831 235.363 31.5671 235.697 31.0771C235.727 31.031 235.697 29.6699 235.793 29.6552C236.531 29.5177 237.281 30.3898 238.377 30.4416C238.894 30.464 239.993 29.7598 240.668 29.9676C241.154 30.1138 241.677 30.5875 242.18 31.0668C242.602 31.6806 243.011 32.2737 243.426 32.0477C243.895 31.7969 243.966 30.4349 244.261 29.5378C244.825 27.7979 245.051 31.0649 245.079 31.5695C245.079 31.5862 244.68 31.862 244.791 32.5781C244.734 34.0362 245.074 31.5753 245.079 31.5695C245.098 31.8963 245.785 32.2854 245.96 32.0425C246.054 31.91 246.151 30.6243 246.196 30.5792C247.277 29.5377 248.242 29.3038 249.145 29.9867C249.16 30.0141 249.01 31.4479 249.047 31.4944C249.554 32.1812 250.062 30.4526 250.59 29.4424C251.123 28.4328 251.445 28.8058 251.557 31.2928C251.924 31.0047 252.354 32.1263 252.611 32.8051C252.866 33.4839 253.054 30.6839 253.082 30.6298C253.951 28.8967 254.316 30.5203 255.124 30.7989C255.508 30.9362 256.281 30.5514 256.705 30.2526C256.705 30.2523 256.706 30.252 256.706 30.2517C257.068 30.0118 257.262 30.6731 257.597 30.2587C257.642 30.2034 257.62 28.9535 257.634 28.9056C258.022 27.4177 257.795 30.4681 257.86 31.0148C258.094 33.0026 258.254 34.0619 258.731 33.1359C258.842 32.9239 259.221 28.5316 259.415 28.277C259.669 27.954 259.557 29.5289 259.826 29.1505C259.849 29.1195 259.857 28.1472 260.019 28.192C260.773 28.3872 261.593 28.9604 262.38 28.8673C262.487 28.8583 262.359 27.3152 262.513 27.2768C263.24 27.0979 264.031 27.1567 264.737 27.8779C264.908 28.0603 264.802 29.1403 264.84 29.4609C265.081 31.4008 265.397 28.581 265.455 28.527C266.738 27.168 267.748 29.7111 269.042 28.4778C269.11 28.4056 269.606 25.3754 269.893 27.9623C269.914 28.1344 270.206 30.7812 270.393 28.9643C270.406 28.8506 270.218 27.4888 270.501 27.6226C270.551 27.6476 270.621 27.6355 270.692 27.6093C272.005 27.4991 271.602 27.1341 271.568 28.3521C271.518 28.826 271.666 31.4688 271.624 29.3575C271.639 29.2087 271.291 24.4535 271.753 27.7107C271.832 28.2463 272.214 31.7079 272.27 29.9015C272.278 29.5514 272.085 28.7937 272.15 28.2959C272.255 27.5279 272.688 28.4064 272.756 26.8248C272.765 26.5454 272.594 24.1795 273.079 25.9159C273.155 26.1879 273.294 27.343 273.415 27.4542C274.015 27.9843 274.401 27.1231 275.09 27.8097C275.331 28.0509 275.589 29.9147 275.89 30.369C276.205 30.8208 276.693 31.2176 276.755 30.3293C276.802 29.4436 275.976 26.5559 276.241 26.2577C277.405 24.9589 279.196 26.368 280.693 26.2961C280.911 26.2866 280.502 25.2804 280.809 25.1906C281.629 24.9493 282.701 24.1858 283.849 24.3996C284.334 24.496 284.835 24.7778 285.315 25.3741C286.562 26.9545 285.84 28.5501 286.639 29.1246C287.024 29.3977 286.564 25.9298 286.614 25.8054C287.096 24.5484 287.939 25.9339 288.497 25.3158C288.607 25.1888 288.152 23.8466 288.25 23.7537C288.581 23.4239 289.14 23.9386 289.496 23.7359C289.656 23.6415 289.372 22.6013 289.545 22.6457C289.955 22.7403 290.388 23.1031 290.987 23.9988C291.042 24.0804 291.127 25.4381 291.416 25.4206C291.884 25.3884 292.655 26.2292 292.937 25.1045C293.017 24.7672 292.459 22.3683 293.175 23.9463C293.325 24.2756 293.923 27.1733 293.709 24.5973C293.674 24.1692 293.514 20.6641 294.348 22.7491C294.569 23.2974 295.338 25.6019 295.432 25.1884C295.443 25.1235 295.037 23.8604 295.157 23.6989C295.586 23.1526 296.194 23.1524 296.637 22.6202C296.757 22.4752 296.221 21.1959 296.409 21.0221C296.927 20.5423 297.764 20.7003 298.448 20.977C298.702 21.0812 298.816 22.2198 298.861 22.3361C299.583 24.2271 299.101 21.5564 299.149 21.3825C299.458 20.3357 300.144 21.4797 300.55 21.0359C300.662 20.9168 300.266 19.6834 300.266 19.565C300.278 18.4046 300.615 20.7096 300.849 20.9164C301.51 21.5022 302.023 21.2722 302.479 20.9928C302.646 20.8884 302.092 19.481 302.245 19.4042C303.15 18.9212 304.181 18.8204 305.313 19.3971C305.526 19.5083 305.686 20.6564 305.784 20.9037C306.47 22.6344 306.253 20.1005 306.283 19.847C306.416 18.69 306.807 19.645 307.106 19.3772C308.563 18.0506 310.797 18.2061 312.48 18.2284C314.672 18.251 316.539 18.9282 318.441 18.1741C318.563 18.1274 318.075 16.6669 318.175 16.6075C319.483 15.9101 320.99 16.1616 322.291 15.3901C322.397 15.3296 321.89 13.956 322.049 13.8115C322.37 13.5058 322.871 13.4657 323.363 13.8242C323.602 13.9965 323.647 15.2701 323.881 15.4187C324.429 15.7674 324.913 15.7564 325.313 15.4194C325.48 15.2734 324.84 13.8978 325.085 13.8207C326.734 13.2685 328.337 12.6156 330.501 14.0724C330.649 14.1726 331.465 17.0859 331.574 16.4627C331.395 15.6428 331.16 14.6839 330.957 13.8104C332.754 12.9929 334.75 13.0513 336.704 12.9266C337.327 12.8823 337.892 12.8343 338.497 12.7264C338.602 12.7074 338.045 11.1942 338.246 11.1497C339.42 10.889 340.44 10.1845 342.01 11.442C342.167 11.5641 342.774 14.3171 343.021 13.8184C343.06 13.7289 343.5 13.2353 343.493 12.6075C343.489 12.5134 343.084 11.258 343.243 11.18C344.184 10.7461 345.27 10.7917 346.455 11.3317C346.647 11.4213 346.806 12.8242 346.945 12.9C347.921 13.4289 348.536 12.1842 349.617 13.2325C350.342 13.9391 350.713 16.3405 351.544 18.5925C351.657 18.9112 352.004 18.8837 352.341 20.2294C353.173 23.6164 353.9 27.3682 354.811 30.9728C354.901 31.3627 355.022 31.3188 355.01 31.4513C355.002 31.4853 354.967 31.5347 354.896 31.6078C354.804 31.6852 354.756 31.7697 354.787 31.8679C354.814 31.9663 354.789 32.1014 354.935 32.2404C355.095 32.3767 355.235 32.5486 355.309 32.78C355.426 32.8857 355.301 33.5744 355.382 34.23C355.437 34.6834 355.849 36.0352 355.89 36.6226C355.923 37.2114 355.537 36.0881 355.525 36.7927C355.514 37.5061 355.961 39.0488 355.662 39.3161ZM253.788 35.8341C254.007 37.1923 254.253 32.2632 253.911 33.4303C253.895 33.4926 253.776 35.7674 253.788 35.8341ZM219.501 34.2015C219.328 35.0354 219.353 35.0685 219.369 34.6869C219.529 34.106 219.673 32.5253 219.674 31.4973C219.674 31.4855 219.674 31.474 219.674 31.4627C220.202 29.9184 219.683 33.5706 219.501 34.2015ZM217.506 34.7688C216.654 36.2985 221.043 30.8435 220.066 31.8702C220.011 31.929 217.56 34.6839 217.506 34.7688ZM350.43 19.5586C350.444 19.6226 350.697 19.6273 350.685 19.5635C350.44 18.0101 349.948 17.9986 350.43 19.5586ZM214.994 34.2759C214.045 34.3943 215.156 34.6258 216.323 34.4293C217.263 34.3351 216.172 34.2072 214.994 34.2759ZM268.642 41.2462C268.648 41.3196 268.813 41.3837 268.806 40.9681C268.773 39.6295 268.553 40.0103 268.642 41.2462ZM217.147 28.7952C216.471 29.85 211.147 27.4987 211.937 27.3291C212.1 27.2398 213.542 28.2795 214.089 28.3181C215.112 28.3218 211.84 26.6615 213.866 26.8784C214.213 26.9673 217.174 28.7914 217.154 28.7995C217.151 28.7981 217.149 28.7966 217.147 28.7952ZM253.693 41.7632C253.696 41.8287 253.927 41.9003 253.935 41.8359C254.124 40.2756 253.665 40.1308 253.693 41.7632ZM278.833 43.2668C278.869 43.4017 279.44 43.4202 279.434 43.2904C279.207 40.7231 278.072 40.6741 278.833 43.2668ZM237.994 44.0076C237.717 45.577 237.438 45.7574 237.271 43.7751C237.516 43.8842 237.759 43.9044 237.994 44.0076Z" fill="black"/>
<circle cx="331" cy="26" r="5" fill="#D9D9D9"/>
<path d="M353.85 59.608C354.941 59.4368 355.687 58.4135 355.516 57.3222C355.345 56.231 354.321 55.4852 353.23 55.6563L353.54 57.6322L353.85 59.608ZM353.441 57.6477L353.392 59.6471L353.573 59.6515L353.751 59.6235L353.441 57.6477ZM340.009 59.8972L339.909 61.8947L340.009 59.8972ZM337.995 59.9336H335.995V60.6436L336.442 61.1947L337.995 59.9336ZM338.093 60.0551L338.403 62.031L341.838 61.4922L339.646 58.794L338.093 60.0551ZM337.685 58.0948C336.594 58.266 335.848 59.2894 336.019 60.3806C336.19 61.4718 337.213 62.2177 338.305 62.0465L337.995 60.0706L337.685 58.0948ZM353.54 57.6322L353.23 55.6563L353.131 55.6718L353.441 57.6477L353.751 59.6235L353.85 59.608L353.54 57.6322ZM353.441 57.6477L353.49 55.6483C349.488 55.5497 346.223 55.9025 343.957 56.9279L344.781 58.7501L345.606 60.5722C347.016 59.9339 349.524 59.5518 353.392 59.6471L353.441 57.6477ZM344.781 58.7501L343.957 56.9279C342.275 57.6889 341.015 57.9449 340.109 57.8997L340.009 59.8972L339.909 61.8947C341.689 61.9836 343.611 61.475 345.606 60.5722L344.781 58.7501ZM340.009 59.8972L340.109 57.8997C339.428 57.8656 338.869 57.8489 338.462 57.8562C338.273 57.8596 338.038 57.869 337.816 57.9032C337.724 57.9173 337.496 57.955 337.242 58.0632C337.118 58.1162 336.861 58.2377 336.609 58.4823C336.331 58.753 335.995 59.2462 335.995 59.9336H337.995H339.995C339.995 60.6095 339.664 61.0918 339.396 61.3524C339.154 61.5868 338.914 61.6988 338.811 61.7427C338.599 61.8331 338.433 61.8554 338.425 61.8565C338.371 61.8648 338.388 61.8582 338.534 61.8556C338.8 61.8508 339.248 61.8616 339.909 61.8947L340.009 59.8972ZM337.995 59.9336L336.442 61.1947L336.541 61.3163L338.093 60.0551L339.646 58.794L339.547 58.6724L337.995 59.9336ZM338.093 60.0551L337.784 58.0793L337.685 58.0948L337.995 60.0706L338.305 62.0465L338.403 62.031L338.093 60.0551Z" fill="black"/>
<path d="M410.5 487C410.5 487 410.5 270.331 410.5 131.5L386.5 87L410.5 51.5H450.5L467.5 72.5" stroke="#D9D9D9" stroke-width="9"/>
<path d="M358.5 198.5L411.5 191.5" stroke="#D9D9D9" stroke-width="9"/>
<path d="M33.5 446.5C34.0087 446.5 34.6017 446.86 35.2285 447.775C35.8442 448.675 36.4188 450.01 36.9092 451.704C37.888 455.086 38.5 459.787 38.5 465C38.5 470.213 37.888 474.914 36.9092 478.296C36.4188 479.99 35.8442 481.325 35.2285 482.225C34.6017 483.14 34.0087 483.5 33.5 483.5C32.9913 483.5 32.3983 483.14 31.7715 482.225C31.1558 481.325 30.5812 479.99 30.0908 478.296C29.112 474.914 28.5 470.213 28.5 465C28.5 459.787 29.112 455.086 30.0908 451.704C30.5812 450.01 31.1558 448.675 31.7715 447.775C32.3983 446.86 32.9913 446.5 33.5 446.5Z" fill="black" stroke="#D9D9D9"/>
<path d="M53.5 443.5C54.0087 443.5 54.6017 443.86 55.2285 444.775C55.8442 445.675 56.4188 447.01 56.9092 448.704C57.888 452.086 58.5 456.787 58.5 462C58.5 467.213 57.888 471.914 56.9092 475.296C56.4188 476.99 55.8442 478.325 55.2285 479.225C54.6017 480.14 54.0087 480.5 53.5 480.5C52.9913 480.5 52.3983 480.14 51.7715 479.225C51.1558 478.325 50.5812 476.99 50.0908 475.296C49.112 471.914 48.5 467.213 48.5 462C48.5 456.787 49.112 452.086 50.0908 448.704C50.5812 447.01 51.1558 445.675 51.7715 444.775C52.3983 443.86 52.9913 443.5 53.5 443.5Z" fill="black" stroke="#D9D9D9"/>
<path d="M123.5 443.5C124.009 443.5 124.602 443.86 125.229 444.775C125.844 445.675 126.419 447.01 126.909 448.704C127.888 452.086 128.5 456.787 128.5 462C128.5 467.213 127.888 471.914 126.909 475.296C126.419 476.99 125.844 478.325 125.229 479.225C124.602 480.14 124.009 480.5 123.5 480.5C122.991 480.5 122.398 480.14 121.771 479.225C121.156 478.325 120.581 476.99 120.091 475.296C119.112 471.914 118.5 467.213 118.5 462C118.5 456.787 119.112 452.086 120.091 448.704C120.581 447.01 121.156 445.675 121.771 444.775C122.398 443.86 122.991 443.5 123.5 443.5Z" fill="black" stroke="#D9D9D9"/>
<path d="M112.5 449.5C113.009 449.5 113.602 449.86 114.229 450.775C114.844 451.675 115.419 453.01 115.909 454.704C116.888 458.086 117.5 462.787 117.5 468C117.5 473.213 116.888 477.914 115.909 481.296C115.419 482.99 114.844 484.325 114.229 485.225C113.602 486.14 113.009 486.5 112.5 486.5C111.991 486.5 111.398 486.14 110.771 485.225C110.156 484.325 109.581 482.99 109.091 481.296C108.112 477.914 107.5 473.213 107.5 468C107.5 462.787 108.112 458.086 109.091 454.704C109.581 453.01 110.156 451.675 110.771 450.775C111.398 449.86 111.991 449.5 112.5 449.5Z" fill="black" stroke="#D9D9D9"/>
<path d="M77.5 352C98.7161 352 117.882 358.16 131.719 368.068C145.557 377.978 154 391.58 154 406.5C154 421.42 145.557 435.022 131.719 444.932C117.882 454.84 98.7161 461 77.5 461C56.2839 461 37.1178 454.84 23.2812 444.932C9.44297 435.022 1 421.42 1 406.5C1 391.58 9.44297 377.978 23.2812 368.068C37.1178 358.16 56.2839 352 77.5 352Z" fill="#D9D9D9" stroke="black" stroke-width="2"/>
<path d="M146 340C153.322 340 160.048 344.185 164.983 351.147C169.917 358.108 173 367.775 173 378.5C173 389.225 169.917 398.892 164.983 405.853C160.048 412.815 153.322 417 146 417C138.678 417 131.952 412.815 127.017 405.853C122.083 398.892 119 389.225 119 378.5C119 367.775 122.083 358.108 127.017 351.147C131.952 344.185 138.678 340 146 340Z" fill="#FFDCBE" stroke="black" stroke-width="2"/>
<ellipse cx="140" cy="368" rx="3" ry="4" fill="black"/>
<ellipse cx="152" cy="368" rx="3" ry="4" fill="black"/>
<path d="M164.279 344.693C164.943 344.451 165.757 344.551 166.708 345.055C167.66 345.558 168.697 346.441 169.752 347.658C171.86 350.09 173.97 353.777 175.561 358.146C177.151 362.515 177.904 366.695 177.852 369.913C177.826 371.524 177.599 372.867 177.194 373.864C176.789 374.861 176.23 375.461 175.566 375.703C174.901 375.945 174.087 375.844 173.136 375.341C172.185 374.838 171.148 373.955 170.093 372.738C167.984 370.306 165.874 366.619 164.284 362.25C162.694 357.881 161.94 353.7 161.992 350.482C162.018 348.872 162.245 347.529 162.651 346.532C163.056 345.535 163.615 344.935 164.279 344.693Z" fill="black" stroke="#D9D9D9"/>
<path d="M126.504 342.656C127.145 342.889 127.688 343.52 128.063 344.628C128.436 345.731 128.613 347.227 128.572 349.029C128.491 352.627 127.548 357.33 125.749 362.273C123.95 367.216 121.65 371.424 119.399 374.232C118.272 375.639 117.175 376.671 116.18 377.276C115.181 377.884 114.359 378.018 113.718 377.785C113.077 377.552 112.534 376.921 112.159 375.812C111.786 374.71 111.609 373.214 111.65 371.412C111.731 367.814 112.674 363.112 114.473 358.169C116.272 353.226 118.573 349.017 120.823 346.208C121.95 344.802 123.048 343.769 124.042 343.165C125.041 342.557 125.863 342.422 126.504 342.656Z" fill="black" stroke="#D9D9D9"/>
<path d="M143 325C150.59 325 157.413 326.76 162.303 329.555C167.221 332.365 170 336.095 170 340C170 343.905 167.221 347.635 162.303 350.445C157.413 353.24 150.59 355 143 355C135.41 355 128.587 353.24 123.697 350.445C118.779 347.635 116 343.905 116 340C116 336.095 118.779 332.365 123.697 329.555C128.587 326.76 135.41 325 143 325Z" fill="#D9D9D9" stroke="black" stroke-width="2"/>
</svg>
