<svg width="75" height="94" viewBox="0 0 75 94" fill="none" xmlns="http://www.w3.org/2000/svg">
<path d="M38.5609 16C45.8827 16 52.6089 20.185 57.5443 27.1475C62.4781 34.1076 65.5609 43.7751 65.5609 54.5C65.5609 65.2249 62.4781 74.8924 57.5443 81.8525C52.6089 88.815 45.8827 93 38.5609 93C31.2391 93 24.513 88.815 19.5775 81.8525C14.6438 74.8924 11.5609 65.2249 11.5609 54.5C11.5609 43.7751 14.6438 34.1076 19.5775 27.1475C24.513 20.185 31.2391 16 38.5609 16Z" fill="#FFDCBE" stroke="black" stroke-width="2"/>
<ellipse cx="32.5609" cy="44" rx="3" ry="4" fill="black"/>
<ellipse cx="44.5609" cy="44" rx="3" ry="4" fill="black"/>
<path d="M56.8399 20.693C57.5042 20.4512 58.3182 20.5515 59.2694 21.0548C60.2207 21.5582 61.2577 22.4408 62.313 23.6581C64.4212 26.0898 66.5313 29.7769 68.1214 34.1458C69.7116 38.5146 70.4652 42.6955 70.4133 45.9134C70.3873 47.5242 70.1602 48.867 69.7551 49.8641C69.35 50.861 68.7909 51.4611 68.1266 51.7028C67.4623 51.9446 66.6484 51.8443 65.6972 51.341C64.7459 50.8376 63.7088 49.955 62.6535 48.7377C60.5453 46.306 58.4352 42.6189 56.8451 38.25C55.255 33.8812 54.5014 29.7003 54.5532 26.4824C54.5792 24.8716 54.8063 23.5288 55.2114 22.5317C55.6166 21.5348 56.1757 20.9348 56.8399 20.693Z" fill="black" stroke="#D9D9D9"/>
<path d="M19.0651 18.6556C19.7059 18.8889 20.2493 19.52 20.6241 20.6281C20.997 21.7307 21.1737 23.2269 21.1332 25.0286C21.0522 28.6267 20.1092 33.3298 18.3101 38.2729C16.511 43.2157 14.2105 47.424 11.9598 50.2323C10.8327 51.6386 9.73562 52.6711 8.74125 53.276C7.74176 53.884 6.91991 54.0182 6.27907 53.7849C5.63822 53.5517 5.09488 52.9206 4.72003 51.8124C4.34714 50.7098 4.17041 49.2137 4.21096 47.412C4.29196 43.814 5.23472 39.1115 7.03375 34.1686C8.83286 29.2256 11.1336 25.0166 13.3844 22.2082C14.5114 20.802 15.6085 19.7694 16.6029 19.1645C17.6023 18.5566 18.4243 18.4224 19.0651 18.6556Z" fill="black" stroke="#D9D9D9"/>
<path d="M35.5609 1C43.1511 1 49.9735 2.76031 54.8637 5.55469C59.7821 8.36524 62.5609 12.0954 62.5609 16C62.5609 19.9046 59.7821 23.6348 54.8637 26.4453C49.9735 29.2397 43.1511 31 35.5609 31C27.9707 31 21.1484 29.2397 16.2582 26.4453C11.3397 23.6348 8.56093 19.9046 8.56093 16C8.56093 12.0954 11.3397 8.36524 16.2582 5.55469C21.1484 2.76031 27.9707 1 35.5609 1Z" fill="#D9D9D9" stroke="black" stroke-width="2"/>
</svg>
