<svg xmlns="http://www.w3.org/2000/svg" width="414" height="414" viewBox="0 0 414 414" version="1.1">
	<path d="M 189.273 14.125 C 185.298 14.491, 178.998 15.722, 175.273 16.859 C 166.701 19.477, 152.055 27.003, 145.523 32.147 C 135.802 39.802, 120 60.490, 120 65.560 C 120 66.316, 123.358 63.621, 127.462 59.570 C 131.565 55.519, 138.071 50.112, 141.918 47.554 C 150.895 41.587, 165.953 34.621, 173 33.176 C 176.025 32.556, 181.425 31.426, 185 30.664 C 199.739 27.526, 225.039 30.668, 241.391 37.668 C 251.447 41.971, 256.244 44.952, 265.451 52.618 C 274.914 60.495, 276.480 62.022, 277.900 64.750 C 279.043 66.948, 282 67.907, 282 66.081 C 282 65.248, 279.980 60.855, 277.824 57 C 277.363 56.175, 276.435 54.375, 275.763 53 C 275.091 51.625, 274.160 50.227, 273.694 49.894 C 273.229 49.561, 271.870 47.714, 270.674 45.789 C 266.008 38.280, 249.152 25.108, 238.143 20.369 C 224.988 14.706, 207.373 12.455, 189.273 14.125 M 196.495 78.035 C 196.114 80.805, 195.643 85.193, 195.448 87.786 C 194.953 94.358, 192.519 106.542, 190.034 114.887 C 188.048 121.555, 187.744 121.977, 184.219 122.956 C 182.174 123.524, 179.739 123.991, 178.810 123.994 C 177.024 124, 164.237 128.287, 160 130.301 C 145.149 137.358, 129.930 151.539, 122.556 165.192 C 119.207 171.393, 112.868 187.338, 113.176 188.786 C 113.439 190.021, 111.813 194.999, 111.142 195.016 C 110.789 195.024, 106.417 195.893, 101.426 196.947 C 91.970 198.943, 71.125 201.774, 62.500 202.234 C 59.578 202.389, 57.708 202.916, 58 203.500 C 58.275 204.050, 58.748 204.417, 59.052 204.316 C 59.356 204.215, 67.123 204.989, 76.314 206.037 C 91.174 207.732, 108.886 211.720, 111.247 213.903 C 111.657 214.282, 112.247 216.756, 112.558 219.400 C 113.340 226.047, 118.180 239.864, 122.288 247.178 C 132.651 265.629, 154.684 282.007, 176.627 287.572 L 183.754 289.380 185.323 294.440 C 187.643 301.922, 189.918 318.967, 190.659 334.427 C 191.098 343.588, 191.672 347.945, 192.407 347.705 C 193.008 347.508, 194.175 341.982, 195 335.424 C 195.825 328.866, 196.864 322.938, 197.309 322.250 C 197.754 321.563, 197.811 321, 197.437 321 C 197.062 321, 197.324 320.315, 198.019 319.477 C 198.714 318.639, 199.427 314.544, 199.603 310.376 C 199.779 306.208, 200.346 302.281, 200.862 301.649 C 201.379 301.017, 202.196 298.485, 202.678 296.023 C 203.730 290.647, 205.360 289.651, 216 287.888 C 220.125 287.205, 225.300 285.880, 227.500 284.945 C 242.848 278.419, 249.394 274.123, 259.779 263.764 C 271.609 251.961, 276.651 242.558, 283.059 220.344 C 284.122 216.660, 284.726 216.061, 288.379 215.075 C 295.277 213.214, 303.119 211.946, 311 211.420 C 315.125 211.144, 322.088 210.487, 326.474 209.959 C 330.859 209.432, 338.472 209, 343.390 209 C 352.524 209, 354.423 208.321, 347.410 207.564 C 345.259 207.331, 338.775 206.635, 333 206.016 C 327.225 205.396, 320.025 204.423, 317 203.852 C 313.975 203.281, 310.825 202.809, 310 202.803 C 308.152 202.791, 301.208 201.071, 298.500 199.956 C 297.400 199.503, 293.944 198.849, 290.820 198.503 C 284.887 197.846, 283.259 196.780, 282.712 193.197 C 282.532 192.017, 282.073 190.740, 281.692 190.359 C 281.312 189.978, 281 188.589, 281 187.271 C 281 184.728, 278.063 174.842, 277.057 174 C 276.728 173.725, 275.960 172.360, 275.350 170.968 C 270.860 160.714, 252.928 140.092, 245.394 136.517 C 243.616 135.673, 242.012 134.595, 241.830 134.122 C 241.649 133.648, 238.350 131.897, 234.500 130.229 C 228.139 127.475, 223.669 126.081, 211.324 123.004 C 207.506 122.052, 207.021 121.558, 205.657 117.231 C 204.837 114.629, 203.689 109.575, 203.106 106 C 202.523 102.425, 201.609 96.800, 201.076 93.500 C 200.543 90.200, 199.805 84.456, 199.435 80.736 C 199.066 77.016, 198.409 73.753, 197.976 73.485 C 197.543 73.217, 196.876 75.265, 196.495 78.035 M 341 124.910 C 341 125.533, 342.238 126.596, 343.750 127.271 C 345.262 127.947, 348.413 130.300, 350.751 132.500 C 353.090 134.700, 355.565 137.009, 356.251 137.632 C 359.313 140.408, 364 145.909, 364 146.727 C 364 147.221, 365.350 148.919, 367 150.500 C 368.650 152.081, 370 153.758, 370 154.228 C 370 155.033, 370.677 156.140, 375.689 163.540 C 376.822 165.211, 378.085 168.136, 378.496 170.040 C 378.908 171.943, 380.029 175.075, 380.988 177 C 385.873 186.803, 388.541 210.473, 386.061 222 C 385.410 225.025, 384.865 229.075, 384.851 231 C 384.837 232.925, 384.241 235.850, 383.526 237.500 C 382.812 239.150, 380.961 243.650, 379.413 247.500 C 377.865 251.350, 375.789 255.573, 374.799 256.885 C 373.810 258.197, 373 259.814, 373 260.480 C 373 261.145, 372.100 262.505, 371 263.500 C 369.900 264.495, 368.994 265.803, 368.986 266.405 C 368.967 267.927, 352.273 285.162, 348 288.073 C 344.744 290.290, 340.874 294.198, 341.404 294.734 C 341.531 294.863, 345.205 293.455, 349.568 291.606 C 366.294 284.516, 378.323 275.888, 387.290 264.551 C 392.829 257.549, 397 251.303, 397 250.013 C 397 249.519, 397.945 247.512, 399.100 245.554 C 401.487 241.510, 404.957 229.039, 404.983 224.417 C 404.992 222.721, 405.307 221.026, 405.683 220.651 C 406.336 219.997, 406.237 206.906, 405.515 198.500 C 404.604 187.905, 395.870 165.929, 390.284 160.179 C 389.578 159.452, 389 158.509, 389 158.083 C 389 156.957, 371.262 139, 370.150 139 C 369.634 139, 367.881 137.762, 366.254 136.250 C 364.627 134.738, 360.192 131.971, 356.398 130.101 C 352.604 128.232, 349.274 126.361, 348.998 125.943 C 348.099 124.584, 341 123.667, 341 124.910 M 47.113 129.658 C 37.236 134.775, 25.380 144.864, 18.840 153.716 C 14.867 159.095, 9.398 170.036, 6.702 178 C 0.476 196.390, 1.326 221.409, 8.746 238.164 C 16.807 256.367, 28.848 269.423, 48.118 280.854 C 51.973 283.140, 54 283.568, 54 282.095 C 54 281.597, 50.625 277.715, 46.500 273.467 C 42.375 269.220, 39 265.414, 39 265.010 C 39 264.606, 37.609 262.526, 35.910 260.388 C 30.550 253.645, 22.955 236.277, 21.586 227.633 C 21.249 225.507, 20.755 223.412, 20.487 222.979 C 19.266 221.004, 18.896 200.374, 19.939 192.529 C 21.136 183.537, 25.530 168.737, 29.297 161.014 C 33.377 152.647, 40.927 142.552, 49.686 133.750 C 54.475 128.938, 57.879 125, 57.249 125 C 56.620 125, 52.058 127.096, 47.113 129.658 M 176.500 136.488 C 163.493 140.018, 148.159 150.356, 138.306 162.240 C 135.999 165.022, 130.251 175.809, 127.577 182.372 C 126.094 186.013, 125.488 190, 126.417 190 C 128.479 190, 147.105 179.760, 151.587 176.162 C 158.765 170.400, 169.536 159.290, 172.709 154.373 C 178.183 145.895, 183.453 134.773, 181.858 135.066 C 181.661 135.102, 179.250 135.742, 176.500 136.488 M 211 136.384 C 211 136.800, 218.860 152.102, 220.500 154.880 C 221.861 157.185, 223.601 159.234, 229.750 165.771 C 232.637 168.841, 235.002 171.611, 235.005 171.927 C 235.008 172.242, 237.539 174.300, 240.628 176.500 C 243.718 178.700, 246.766 180.950, 247.403 181.500 C 251.587 185.114, 269.061 193.411, 268.989 191.750 C 268.905 189.808, 265.263 180.359, 262 173.618 C 258.811 167.030, 256.052 163.195, 250.171 157.176 C 245.952 152.859, 241.037 148.482, 239.250 147.448 C 237.463 146.414, 236 145.252, 236 144.864 C 236 144.476, 234.650 143.862, 233 143.500 C 231.350 143.138, 230 142.427, 230 141.921 C 230 141.414, 229.190 141, 228.200 141 C 227.210 141, 225.972 140.591, 225.450 140.091 C 223.702 138.418, 211 135.159, 211 136.384 M 196 140.096 C 196 142.880, 188.560 156.396, 182.903 163.888 C 170.118 180.820, 151.060 195.256, 133.798 201.084 C 127.456 203.226, 125.767 205, 130.073 205 C 131.148 205, 132.809 205.423, 133.764 205.940 C 134.719 206.457, 138.355 208.271, 141.845 209.973 C 152.464 215.150, 165.251 226.370, 177.860 241.575 C 184.534 249.622, 193.092 265.521, 193.222 270.114 C 193.310 273.183, 195 274.236, 195 271.222 C 195 268.157, 201.778 255.138, 206.733 248.683 C 216.867 235.483, 234.319 220.196, 246.500 213.850 C 249.250 212.418, 254.650 210.199, 258.500 208.921 C 263.016 207.421, 264.790 206.453, 263.500 206.191 C 258.842 205.246, 244.695 197.640, 237.385 192.151 C 226.982 184.339, 219.518 177.014, 208.961 164.255 C 207.009 161.896, 199.243 145.494, 198.543 142.250 C 197.891 139.230, 196 137.628, 196 140.096 M 188.688 173.646 C 188.309 174.024, 188 177.050, 188 180.370 L 188 186.406 184.208 182.703 C 178.209 176.845, 176.950 178.152, 180.174 186.889 C 180.659 188.202, 180.916 189.417, 180.746 189.588 C 180.217 190.116, 171.572 187.763, 170.250 186.731 C 166.849 184.075, 170.444 190.337, 174.500 194.134 L 177.500 196.941 170.809 196.971 C 167.129 196.987, 163.836 197.457, 163.490 198.016 C 163.141 198.581, 165.665 200.303, 169.181 201.900 C 175.203 204.634, 175.383 204.816, 173 205.766 C 165.106 208.913, 163 210.004, 163 210.949 C 163 211.885, 169.567 212.529, 174.250 212.052 C 176.926 211.780, 176.384 213.033, 171.812 217.691 C 169.509 220.038, 167.925 222.258, 168.292 222.626 C 168.659 222.993, 171.484 222.327, 174.569 221.146 C 177.654 219.966, 180.307 219, 180.465 219 C 180.623 219, 179.690 221.925, 178.392 225.500 C 177.095 229.075, 176.486 232, 177.039 232 C 177.592 232, 179.997 230.200, 182.384 228 C 184.771 225.800, 186.898 223.999, 187.112 223.998 C 187.325 223.997, 187.349 226.922, 187.165 230.498 C 186.726 238.996, 188.592 239.176, 192.494 231.012 C 194.069 227.718, 195.548 225.214, 195.781 225.448 C 196.014 225.681, 197.227 228.694, 198.476 232.144 C 201.705 241.061, 202.995 240.831, 203.025 231.333 L 203.050 223.500 207.061 227.750 C 213.668 234.751, 215.198 233.453, 211.367 224.096 C 210.601 222.225, 210.156 220.511, 210.379 220.288 C 210.602 220.065, 212.520 220.652, 214.642 221.591 C 219.536 223.758, 223 224.361, 223 223.046 C 223 222.484, 221.201 220.331, 219.002 218.262 C 216.803 216.193, 215.003 214.140, 215.002 213.701 C 215.001 213.261, 217.925 213.042, 221.500 213.214 C 230.752 213.659, 230.316 212.223, 219.756 207.472 C 215.331 205.481, 215.619 204.409, 220.816 203.531 C 225.176 202.795, 230.691 199.545, 229.173 198.607 C 228.614 198.261, 225.158 197.934, 221.493 197.879 L 214.829 197.779 218.914 193.734 C 224.798 187.909, 224.340 186.778, 217 189 C 213.700 189.999, 211 190.459, 211 190.023 C 211 189.586, 211.672 187.940, 212.494 186.364 C 214.100 183.284, 214.509 179, 213.196 179 C 212.754 179, 210.866 180.575, 209 182.500 C 207.134 184.425, 205.246 186, 204.804 186 C 204.362 186, 204 183.059, 204 179.465 C 204 173.548, 203.834 173.019, 202.250 173.873 C 201.287 174.392, 199.675 177.161, 198.667 180.026 C 196.551 186.040, 195.439 185.699, 192.934 178.268 C 191.402 173.723, 190.066 172.268, 188.688 173.646 M 192.958 192.679 C 186.352 193.755, 181.309 202.137, 183.321 208.696 C 184.924 213.918, 190.694 218, 196.472 218 C 200.594 218, 201.598 217.541, 204.828 214.177 C 207.808 211.075, 208.494 209.614, 208.466 206.427 C 208.414 200.474, 207.221 197.688, 203.701 195.301 C 200.133 192.882, 196.761 192.059, 192.958 192.679 M 320 203 C 320 203.550, 320.477 204, 321.059 204 C 321.641 204, 321.840 203.550, 321.500 203 C 321.160 202.450, 320.684 202, 320.441 202 C 320.198 202, 320 202.450, 320 203 M 125 219.465 C 125 221.067, 127.549 229.312, 129.030 232.500 C 129.541 233.600, 130.365 235.627, 130.861 237.004 C 132.167 240.628, 143.018 254.956, 147.280 258.685 C 151.718 262.566, 159.882 267.451, 160.650 266.683 C 160.958 266.375, 162.175 267.135, 163.355 268.371 C 165.466 270.584, 177.702 275.631, 178.653 274.681 C 178.920 274.413, 178.266 272.463, 177.198 270.347 C 176.130 268.231, 174.910 265.375, 174.485 264 C 171.385 253.952, 148.956 229.786, 138 224.689 C 137.175 224.306, 134.250 222.673, 131.500 221.062 C 125.686 217.656, 125 217.487, 125 219.465 M 257.032 225.601 C 244.954 231.385, 237.161 236.991, 229 245.766 C 220.657 254.737, 220.147 255.381, 216.157 261.975 C 211.232 270.114, 208.787 275.120, 209.424 275.757 C 210.730 277.064, 222.178 273.417, 231.028 268.876 C 237.389 265.611, 242.744 261.911, 247.141 257.743 C 253.804 251.426, 261 242.569, 261 240.685 C 261 240.120, 261.599 238.947, 262.331 238.079 C 263.554 236.627, 265.138 232.658, 267.848 224.250 C 269.229 219.968, 268.643 220.041, 257.032 225.601 M 109 344.717 C 109 346.465, 112.357 354, 113.136 354 C 113.611 354, 114 354.655, 114 355.456 C 114 357.840, 123.205 372.416, 126.974 376 C 127.263 376.275, 129.282 378.519, 131.461 380.986 C 135.985 386.110, 145.778 393.591, 150.598 395.606 C 152.394 396.356, 154.122 397.388, 154.438 397.900 C 155.707 399.952, 179.269 407.570, 181.014 406.492 C 181.533 406.170, 182.878 406.400, 184.002 407.001 C 185.782 407.954, 192.392 408.198, 207.500 407.868 C 212.646 407.756, 218.749 406.377, 227.500 403.347 C 236.813 400.123, 240.258 398.466, 247.992 393.487 C 254.990 388.982, 270 373.994, 270 371.511 C 270 370.680, 270.417 370, 270.927 370 C 271.436 370, 273.319 367.413, 275.111 364.250 C 276.902 361.087, 278.625 358.275, 278.939 358 C 279.854 357.200, 282.229 349.895, 281.735 349.402 C 280.718 348.385, 278.353 350.314, 276.049 354.038 C 274.701 356.217, 273.013 358, 272.299 358 C 271.585 358, 270.996 358.563, 270.991 359.250 C 270.986 359.938, 269.670 361.536, 268.066 362.803 C 266.462 364.070, 263.653 366.425, 261.825 368.037 C 259.996 369.649, 258.144 370.975, 257.708 370.984 C 257.273 370.993, 255.948 371.902, 254.765 373.004 C 252.681 374.946, 250.654 376.006, 239 381.252 C 231.243 384.744, 218.086 388.056, 211.019 388.296 C 207.719 388.408, 205.014 388.801, 205.009 389.168 C 204.995 390.217, 184.114 389.294, 178 387.975 C 152.700 382.515, 134.842 371.551, 114.847 349.201 C 110.392 344.221, 109 343.153, 109 344.717" stroke="none" fill="white" fill-rule="evenodd"/>
</svg>