<svg xmlns="http://www.w3.org/2000/svg" width="1510" height="902" viewBox="0 0 1510 902" version="1.1">
	<path d="M 167 43.125 C 167 43.578, 168.297 44.619, 169.883 45.439 C 173.388 47.252, 173.563 47.933, 175.037 65.500 C 175.683 73.200, 176.801 85.563, 177.521 92.974 C 178.942 107.594, 178.614 109.436, 174.301 111.076 C 172.883 111.615, 171.969 112.303, 172.271 112.604 C 172.573 112.906, 180.476 113.390, 189.834 113.679 C 208.838 114.266, 211.996 113.698, 217.735 108.660 C 228.635 99.089, 224.828 82.701, 210.250 76.440 C 207.912 75.436, 206.003 74.364, 206.006 74.058 C 206.010 73.751, 207.379 72.723, 209.048 71.773 C 216.388 67.595, 216.810 54.842, 209.824 48.298 C 205.039 43.816, 200.779 42.896, 183.386 42.589 C 174.374 42.430, 167 42.671, 167 43.125 M 370.713 43.991 C 370.426 45.087, 370.584 49.024, 371.063 52.741 C 371.543 56.459, 372.233 70.109, 372.596 83.075 C 373.292 107.868, 372.991 110.233, 368.987 111.504 C 364.758 112.846, 368.323 113.726, 377.974 113.720 C 383.488 113.717, 388 113.335, 388 112.871 C 388 112.407, 386.422 111.368, 384.494 110.562 C 380.230 108.780, 379.474 106.914, 378.597 96 C 377.734 85.253, 377.135 78.028, 376.508 70.805 C 376.236 67.672, 376.388 64.878, 376.845 64.596 C 377.301 64.314, 379.886 66.235, 382.588 68.865 C 385.289 71.495, 392.900 78.513, 399.500 84.461 C 412.498 96.174, 418.550 101.873, 425.823 109.250 C 428.398 111.862, 431.070 114, 431.759 114 C 432.752 114, 432.875 107.374, 432.349 82.169 C 431.766 54.265, 431.879 49.948, 433.266 47.169 C 435.093 43.507, 435.870 43.821, 424.250 43.532 C 416.836 43.348, 414.673 44.330, 419.943 45.487 C 422.556 46.061, 422.997 46.715, 423.878 51.317 C 425.964 62.214, 427.769 93.015, 426.320 92.981 C 425.869 92.970, 422.125 89.802, 418 85.940 C 413.875 82.078, 408.040 76.800, 405.033 74.209 C 402.027 71.619, 393.268 63.313, 385.568 55.750 C 377.869 48.188, 371.494 42, 371.402 42 C 371.309 42, 370.999 42.896, 370.713 43.991 M 557.653 42.680 C 557.550 42.784, 555.673 43.085, 553.482 43.350 C 546.690 44.172, 543.649 45.201, 539.351 48.130 C 531.107 53.748, 525.404 63.348, 524.089 73.822 C 522.747 84.509, 524.543 92.509, 529.966 100 C 534.315 106.008, 536.304 107.721, 542.898 111.142 C 548.685 114.144, 550.277 114.497, 559.574 114.841 C 571.690 115.289, 576.509 113.899, 584.816 107.558 C 594.057 100.504, 600.091 85.861, 598.677 73.921 C 597.215 61.578, 585.779 47.088, 575.500 44.556 C 572.573 43.835, 558.027 42.306, 557.653 42.680 M 233.192 46.007 C 237.424 49.495, 237.318 48.954, 239.446 78 C 240.272 89.275, 241.147 99.625, 241.391 101 C 242.178 105.438, 240.863 109.113, 237.829 110.958 C 234.933 112.719, 234.954 112.724, 247.214 113.245 C 253.971 113.532, 259.724 113.558, 259.998 113.302 C 260.483 112.850, 259.004 111.603, 255.426 109.448 C 253.632 108.367, 252.333 101.698, 251.588 89.750 L 251.230 84 256.473 84 L 261.716 84 265.453 90.054 C 267.508 93.384, 272.100 99.432, 275.657 103.495 C 284.007 113.030, 286.822 114.058, 303.821 113.780 C 315.742 113.585, 319.722 112.721, 314.613 111.439 C 313.256 111.098, 311.929 110.258, 311.666 109.572 C 310.832 107.398, 315.140 91.240, 317.361 88.213 C 318.034 87.296, 320.763 87.009, 326.857 87.213 L 335.409 87.500 337.675 92 C 341.560 99.715, 345 107.642, 345 108.878 C 345 109.530, 344.360 110.308, 343.577 110.609 C 342.795 110.909, 341.952 111.682, 341.705 112.327 C 341.376 113.186, 344.432 113.482, 353.110 113.434 C 359.630 113.398, 365.228 113.105, 365.549 112.784 C 365.871 112.462, 364.554 111.678, 362.623 111.040 C 359.404 109.978, 358.574 108.781, 352.677 96.691 C 349.138 89.436, 345.919 82.375, 345.523 81 C 345.127 79.625, 342.625 74, 339.963 68.500 C 337.300 63, 334.584 56.700, 333.926 54.500 C 332.081 48.331, 329.112 43, 327.522 43 C 326.597 43, 325.339 45.583, 323.993 50.250 C 322.842 54.237, 320.798 60.031, 319.450 63.125 C 318.103 66.219, 317 69.255, 317 69.871 C 317 71.346, 312.944 83.215, 312.001 84.500 C 311.597 85.050, 310.026 89.325, 308.509 94 C 305.847 102.206, 302.641 108.792, 300.645 110.157 C 300.116 110.518, 298.656 110.345, 297.400 109.773 C 295.075 108.713, 280.073 93.111, 277.122 88.684 C 276.230 87.346, 274.630 85.023, 273.567 83.522 L 271.634 80.793 276.205 76.646 C 281.623 71.731, 284 67.420, 284 62.510 C 284 55.136, 276.653 46.073, 269 44.005 C 267.075 43.485, 257.422 43.056, 247.549 43.052 L 229.598 43.044 233.192 46.007 M 445 44.067 C 445 44.461, 446.155 45.073, 447.566 45.427 C 449.196 45.836, 450.627 47.257, 451.490 49.321 C 452.891 52.676, 453.880 68.862, 454.279 94.991 L 454.500 109.483 451.044 110.608 C 445.382 112.453, 446.153 113.934, 452.681 113.753 C 455.881 113.664, 464.800 113.713, 472.500 113.862 C 488.986 114.181, 493.780 113.073, 502.297 106.974 C 509.441 101.858, 512.491 96.628, 514.034 86.853 C 515.447 77.903, 514.205 68.184, 510.764 61.262 C 508.005 55.712, 500.489 49.471, 492.726 46.285 C 486.804 43.855, 485.486 43.721, 465.750 43.541 C 454.337 43.436, 445 43.673, 445 44.067 M 611.918 43.750 C 611.872 44.163, 611.872 57.550, 611.917 73.500 C 612.011 106.981, 611.760 109.696, 608.432 111.213 C 604.218 113.133, 606.902 114, 617.059 114 C 627.093 114, 629.450 113.050, 624.068 111.174 C 620.225 109.834, 618.989 105.624, 618.438 92 C 618.205 86.225, 617.808 77.787, 617.556 73.250 C 617.181 66.497, 617.361 65, 618.549 65 C 619.347 65, 620 65.522, 620 66.161 C 620 66.799, 621.462 68.618, 623.250 70.203 C 628.463 74.823, 660.963 106.141, 664.810 110.250 C 670.968 116.827, 670.980 116.789, 671.179 89.250 C 671.464 49.820, 671.389 50.762, 674.500 47.405 C 675.875 45.922, 677 44.608, 677 44.487 C 677 44.365, 672.950 44.304, 668 44.350 C 659.412 44.431, 656.848 45.182, 660.840 46.449 C 664.923 47.745, 665.875 53.522, 666.040 78 C 666.144 93.304, 666.150 93.217, 664.989 92.830 C 663.285 92.262, 656.992 86.367, 634.475 64.250 C 622.577 52.563, 612.652 43, 612.421 43 C 612.189 43, 611.963 43.337, 611.918 43.750 M 722.836 43.993 C 717.961 44.877, 714.585 47.210, 710.980 52.186 C 708.552 55.538, 708 57.297, 708 61.682 C 708 71.861, 712.932 78.063, 726.500 84.943 C 739.384 91.476, 742.872 98.249, 737.410 106.130 C 729.854 117.033, 712.127 111.825, 710.295 98.163 C 709.988 95.874, 709.335 94, 708.844 94 C 706.304 94, 704.971 106.209, 707.080 110.150 C 708.884 113.520, 714.144 115.002, 724.218 114.978 C 731.110 114.962, 734.530 114.479, 737.500 113.104 C 750.111 107.265, 753.395 91.755, 744.044 82.194 C 742.058 80.162, 737.033 76.813, 732.878 74.752 C 724.206 70.449, 718.121 64.523, 717.323 59.602 C 716.635 55.364, 719.206 49.763, 722.697 47.895 C 726.416 45.905, 733.532 46.276, 736.152 48.596 C 739.159 51.258, 744 59.031, 744 61.196 C 744 62.188, 744.392 63, 744.871 63 C 746.023 63, 747.253 51.857, 746.453 48.669 C 746.096 47.246, 744.679 45.711, 743.163 45.103 C 739.839 43.769, 727.722 43.108, 722.836 43.993 M 1108.094 44.292 C 1103.883 45.636, 1098.263 51.125, 1096.309 55.804 C 1095.260 58.314, 1095.033 60.976, 1095.515 65.125 C 1096.405 72.799, 1101.347 78.632, 1110.767 83.128 C 1123.343 89.129, 1127.785 96.476, 1123.364 103.960 C 1120.420 108.945, 1112.518 111.932, 1106.041 110.509 C 1101.308 109.469, 1096.221 103.655, 1095.430 98.381 C 1095.067 95.958, 1094.423 93.762, 1094.001 93.500 C 1092.432 92.531, 1090.762 99.114, 1091.209 104.505 C 1091.459 107.527, 1091.358 110, 1090.982 110 C 1090.607 110, 1088.545 108.710, 1086.400 107.134 C 1082.809 104.495, 1077.831 98.046, 1069.805 85.635 C 1066.797 80.983, 1066.743 80.725, 1068.580 79.737 C 1069.636 79.169, 1072.367 76.785, 1074.648 74.441 C 1080.888 68.028, 1082.244 59.690, 1078.136 53 C 1073.347 45.199, 1070.012 44.155, 1051 44.506 C 1042.475 44.664, 1034.713 44.839, 1033.750 44.896 C 1031.644 45.021, 1031.375 47, 1033.465 47 C 1037.146 47, 1037.847 55.331, 1036.494 83 C 1035.361 106.197, 1034.328 111, 1030.477 111 C 1029.665 111, 1029 111.450, 1029 112 C 1029 112.611, 1033.667 113, 1041 113 C 1047.600 113, 1053 112.649, 1053 112.219 C 1053 111.790, 1051.650 110.929, 1050 110.306 C 1046.722 109.069, 1046.762 109.253, 1046.543 94.500 C 1046.407 85.334, 1047.089 84, 1051.913 84 C 1056.307 84, 1056.538 84.217, 1061.499 93 C 1067.105 102.924, 1072.023 108.833, 1076.468 110.982 C 1079.966 112.674, 1083.084 112.970, 1100 113.216 C 1121.648 113.531, 1123.515 113.110, 1129.259 106.618 C 1134.521 100.670, 1135.347 96.830, 1133.421 87.268 C 1132.630 83.342, 1126.970 78.069, 1119.702 74.489 C 1108.395 68.919, 1103.361 62.925, 1104.571 56.474 C 1106.028 48.709, 1112.946 44.507, 1120.286 46.929 C 1124.088 48.184, 1130 55.477, 1130 58.913 C 1130 62.826, 1131.678 61.012, 1132.926 55.750 C 1134.617 48.621, 1133.371 45.475, 1128.298 44.066 C 1123.520 42.739, 1112.574 42.861, 1108.094 44.292 M 1170.500 43.606 C 1165.764 44.804, 1162.119 46.633, 1156.312 50.726 C 1151.615 54.036, 1149.296 56.584, 1146.690 61.294 C 1141.960 69.844, 1140.868 73.763, 1140.834 82.304 C 1140.809 88.778, 1141.229 90.496, 1144.327 96.582 C 1149.673 107.087, 1157.255 112.226, 1169.315 113.517 C 1189.754 115.706, 1206.134 105.357, 1212.695 86.109 C 1217.050 73.336, 1214.923 62.271, 1206.330 52.990 C 1198.998 45.070, 1195.942 43.813, 1183.078 43.422 C 1177.260 43.245, 1171.600 43.328, 1170.500 43.606 M 1333.323 44.638 C 1327.203 46.806, 1321.458 53.459, 1320.566 59.410 C 1319.313 67.766, 1320.549 71.442, 1326.338 76.579 C 1329.177 79.098, 1333.779 82.186, 1336.564 83.442 C 1341.799 85.802, 1347.624 91.760, 1348.658 95.812 C 1349.504 99.125, 1346.106 105.964, 1342.532 108.144 C 1340.603 109.320, 1337.591 109.994, 1334.253 109.996 C 1329.633 110, 1328.531 109.571, 1325.031 106.409 C 1322.461 104.087, 1320.830 101.610, 1320.415 99.398 C 1319.773 95.977, 1318.409 94.258, 1317.252 95.414 C 1316.050 96.617, 1315.300 106.536, 1316.252 108.640 C 1316.785 109.817, 1318.317 111.279, 1319.657 111.890 C 1323.305 113.552, 1340.358 113.295, 1344.620 111.514 C 1350.939 108.874, 1355.699 104.332, 1357.410 99.309 C 1359.190 94.087, 1359.494 88.423, 1358.044 87.527 C 1357.518 87.202, 1357.320 86.330, 1357.604 85.588 C 1358.379 83.570, 1351.299 77.349, 1344.500 74.075 C 1332.363 68.230, 1327.770 59.621, 1332.388 51.370 C 1334.780 47.095, 1339.494 45.154, 1344.459 46.400 C 1348.109 47.316, 1352.454 52.236, 1353.913 57.103 C 1354.564 59.278, 1355.507 60.804, 1356.008 60.495 C 1356.509 60.185, 1357.699 57.459, 1358.652 54.436 C 1360.348 49.056, 1360.341 48.897, 1358.343 46.899 C 1354.443 42.999, 1341.301 41.811, 1333.323 44.638 M 783.540 47.750 C 782.612 49.813, 781.227 52.850, 780.463 54.500 C 777.441 61.027, 775 67.321, 775 68.586 C 775 69.319, 772.975 73.957, 770.500 78.893 C 768.025 83.829, 766 88.159, 766 88.514 C 766 88.868, 764.803 92.161, 763.339 95.829 C 759.956 104.310, 756.236 109.960, 753.301 111.076 C 748.440 112.924, 751.089 114, 760.500 114 C 765.725 114, 770 113.658, 770 113.241 C 770 112.823, 769.100 111.919, 768 111.232 C 765.206 109.487, 765.487 106.536, 769.370 96.881 L 772.740 88.500 781.785 88.214 L 790.829 87.927 792.765 93.214 C 798.603 109.150, 798.518 108.770, 796.685 110.795 C 795.758 111.819, 795 112.960, 795 113.329 C 795 114.348, 816.801 114.132, 817.434 113.107 C 817.738 112.615, 816.832 111.924, 815.422 111.570 C 813.504 111.088, 812.221 109.485, 810.335 105.213 C 808.948 102.071, 806.955 97.612, 805.907 95.305 C 804.858 92.998, 804 90.598, 804 89.972 C 804 89.347, 802.689 85.835, 801.086 82.168 C 799.483 78.500, 796.087 69.242, 793.538 61.594 C 786.987 41.938, 786.475 41.229, 783.540 47.750 M 827.543 45.250 C 827.326 45.938, 826.876 57.750, 826.541 71.500 C 825.707 105.821, 825.495 108.149, 823.033 110.160 C 819.203 113.289, 820.586 114, 830.500 114 C 835.725 114, 840 113.640, 840 113.201 C 840 112.761, 838.441 111.838, 836.536 111.149 C 833.798 110.159, 832.956 109.226, 832.522 106.698 C 831.769 102.316, 832.339 66.002, 833.161 66.001 C 833.524 66, 844.870 77.009, 858.374 90.465 C 871.877 103.920, 883.136 114.589, 883.393 114.173 C 883.650 113.757, 884.134 105.110, 884.469 94.958 C 885.648 59.146, 886.328 51.753, 888.754 48.346 C 891.365 44.678, 890.987 44.046, 886.716 44.939 C 884.947 45.309, 881.899 45.325, 879.942 44.975 C 877.986 44.625, 875.514 44.644, 874.449 45.018 C 872.724 45.623, 872.853 45.873, 875.635 47.311 C 877.353 48.199, 879.037 49.654, 879.379 50.545 C 880.344 53.060, 880.110 92.814, 879.127 93.422 C 878.179 94.008, 839.949 56.456, 833.630 48.731 C 829.659 43.877, 828.233 43.062, 827.543 45.250 M 900.734 45.750 C 900.998 46.438, 901.771 47, 902.452 47 C 903.133 47, 904.507 47.903, 905.505 49.006 C 907.200 50.879, 907.277 52.789, 906.661 77.756 C 906.299 92.465, 905.732 105.482, 905.402 106.683 C 905.072 107.884, 903.271 109.592, 901.401 110.480 C 899.530 111.368, 898 112.445, 898 112.873 C 898 113.302, 906.541 113.751, 916.981 113.871 C 938.093 114.113, 942.006 113.439, 950.761 108.052 C 955.946 104.861, 963 96.576, 963 93.675 C 963 92.819, 963.398 91.872, 963.884 91.571 C 965.385 90.644, 967.279 78.153, 966.593 73.708 C 965.335 65.559, 962.947 60.217, 958.599 55.832 C 948.751 45.899, 945.619 45.011, 919.377 44.716 C 904.419 44.547, 900.358 44.772, 900.734 45.750 M 978.557 46.627 C 980.232 47.963, 981.481 50.193, 981.918 52.627 C 982.877 57.978, 980.497 108.334, 979.266 108.745 C 977.390 109.370, 974.506 111.839, 975.034 112.368 C 975.823 113.156, 1016.221 113.287, 1018.180 112.508 C 1019.104 112.140, 1020.342 110.459, 1020.930 108.771 C 1022.188 105.163, 1022.363 95.342, 1021.183 94.613 C 1020.733 94.335, 1019.530 96.134, 1018.509 98.609 C 1015.943 104.833, 1012.522 107, 1004.266 107.631 C 1000.545 107.915, 996.263 107.675, 994.750 107.098 L 992 106.050 992 93.647 C 992 84.931, 992.371 80.945, 993.250 80.235 C 994.634 79.117, 1007.491 79.293, 1010.250 80.469 C 1011.212 80.879, 1012 81.841, 1012 82.607 C 1012 84.083, 1013.569 84.514, 1014.339 83.250 C 1014.590 82.838, 1014.954 80.710, 1015.148 78.522 L 1015.500 74.544 1004.250 74.866 L 993 75.188 993 63.217 C 993 54.777, 993.374 50.935, 994.266 50.194 C 994.963 49.616, 998.094 49.143, 1001.225 49.143 C 1007.702 49.143, 1012.611 51.725, 1014.805 56.287 C 1015.522 57.779, 1016.472 59, 1016.916 59 C 1017.870 59, 1019.351 46.018, 1018.496 45.162 C 1018.174 44.840, 1008.455 44.559, 996.900 44.538 L 975.890 44.500 978.557 46.627 M 1230.171 45.737 C 1229.669 46.707, 1228.941 52.450, 1228.554 58.500 C 1228.166 64.550, 1227.674 72.200, 1227.460 75.500 C 1227.070 81.519, 1225.264 98.786, 1224.415 104.613 C 1224.165 106.325, 1223.070 108.532, 1221.980 109.518 C 1220.891 110.503, 1220 111.579, 1220 111.907 C 1220 112.578, 1238.034 112.300, 1238.715 111.618 C 1238.955 111.378, 1237.887 110.576, 1236.342 109.835 C 1234.197 108.807, 1233.373 107.543, 1232.860 104.494 C 1232.128 100.143, 1233.360 66.307, 1234.284 65.383 C 1234.596 65.070, 1235.898 66.049, 1237.176 67.557 C 1238.454 69.066, 1246.460 77.452, 1254.966 86.194 C 1263.472 94.936, 1272.548 104.318, 1275.134 107.044 C 1282.327 114.625, 1282.553 114.366, 1283.465 97.500 C 1283.793 91.450, 1284.486 83.125, 1285.007 79 C 1285.527 74.875, 1286.437 66.775, 1287.028 61 C 1287.798 53.477, 1288.656 49.732, 1290.052 47.790 C 1291.123 46.300, 1292 44.838, 1292 44.540 C 1292 43.789, 1280.529 43.860, 1278.539 44.624 C 1277.057 45.192, 1277.067 45.416, 1278.653 47.169 C 1279.978 48.633, 1280.447 51.164, 1280.624 57.796 C 1280.897 68.084, 1279.081 90.088, 1277.846 91.459 C 1277.316 92.047, 1276.345 91.510, 1275.337 90.071 C 1274.433 88.780, 1267.462 81.414, 1259.846 73.703 C 1252.231 65.992, 1246 59.459, 1246 59.186 C 1246 58.912, 1244.313 56.980, 1242.250 54.893 C 1240.188 52.806, 1237.697 49.959, 1236.716 48.566 C 1234.025 44.746, 1231.295 43.566, 1230.171 45.737 M 1302.360 45.460 C 1301.214 46.263, 1299.704 48.300, 1299.006 49.986 C 1297.905 52.645, 1297.970 53.310, 1299.500 55 C 1300.470 56.072, 1302.104 57.216, 1303.132 57.542 C 1305.936 58.432, 1305.424 60.236, 1300.915 65.359 C 1296.062 70.872, 1297.237 71.283, 1304.331 66.553 C 1310.807 62.235, 1312.086 60.148, 1312.752 52.802 C 1313.203 47.828, 1312.995 46.709, 1311.392 45.496 C 1308.935 43.636, 1304.987 43.620, 1302.360 45.460 M 185.882 48.731 C 185.816 50.804, 185.823 52.856, 185.895 53.292 C 185.968 53.727, 186.308 58.227, 186.651 63.292 C 186.993 68.356, 187.723 73.070, 188.273 73.766 C 190.009 75.967, 199.080 74.271, 201.855 71.227 C 203.916 68.967, 204.161 67.868, 203.815 62.442 C 203.227 53.206, 198.462 47.880, 188.750 45.606 C 186.136 44.994, 185.994 45.148, 185.882 48.731 M 249.542 46.932 C 249.223 47.448, 249.226 54.087, 249.549 61.685 C 250.305 79.460, 250.800 80.373, 259.379 79.827 C 267.851 79.287, 272.006 75.167, 271.994 67.316 C 271.980 57.453, 265.932 48.723, 258.257 47.489 C 256.191 47.157, 253.515 46.684, 252.311 46.439 C 251.107 46.193, 249.861 46.415, 249.542 46.932 M 550.322 47.858 C 545.373 50.415, 542.505 53.325, 540.160 58.170 C 536.254 66.238, 535.141 78.104, 537.363 88 C 538.290 92.132, 544.417 103.988, 545.628 103.994 C 546.248 103.997, 547.343 104.708, 548.061 105.573 C 550.782 108.852, 556.783 111, 563.224 111 C 568.792 111, 570.143 110.585, 574.819 107.436 C 577.730 105.475, 580.378 103.113, 580.703 102.186 C 581.029 101.259, 582.241 98.475, 583.397 96 C 586.749 88.826, 586.393 74.900, 582.596 64.696 C 580.151 58.123, 578.889 56.215, 574.596 52.595 C 571.793 50.231, 567.970 47.780, 566.101 47.148 C 561.412 45.564, 554.128 45.892, 550.322 47.858 M 1170.507 47.520 C 1163.911 51.076, 1160.907 54.249, 1157.918 60.816 C 1152.840 71.971, 1152.093 88.417, 1156.354 95.244 C 1157.128 96.485, 1158.032 98.668, 1158.361 100.095 C 1158.752 101.789, 1160.874 103.961, 1164.465 106.345 C 1169.259 109.528, 1170.739 110, 1175.938 110 C 1185.842 110, 1192.535 105.845, 1197.055 96.892 C 1201.314 88.453, 1202.547 78.936, 1200.599 69.517 C 1198.934 61.469, 1196.345 55.508, 1193.356 52.847 C 1187.234 47.394, 1175.720 44.710, 1170.507 47.520 M 464.500 47.849 C 463.554 48.841, 463.883 62.997, 465.586 94.661 C 466.317 108.253, 467.102 109.467, 475.813 110.478 C 492.842 112.455, 503.880 99.933, 502.820 79.841 C 501.810 60.680, 490.869 48.856, 472.795 47.391 C 468.230 47.021, 465.126 47.192, 464.500 47.849 M 1049.326 48.250 C 1048.890 48.938, 1048.445 51.525, 1048.338 54 C 1048.230 56.475, 1047.928 63.081, 1047.667 68.680 C 1047.131 80.177, 1047.021 80.003, 1054.832 79.996 C 1063.316 79.989, 1069 74.072, 1069 65.248 C 1069 56.399, 1064.523 50.533, 1056.059 48.294 C 1050.264 46.761, 1050.269 46.761, 1049.326 48.250 M 920.284 48.764 C 918.676 49.838, 918.118 56.406, 917.569 80.709 C 916.991 106.300, 917.211 107.772, 921.896 109.730 C 927.461 112.055, 935.798 110.922, 941.817 107.022 C 945.808 104.435, 947.290 102.607, 949.802 97.173 C 956.383 82.933, 955.733 69.361, 947.927 58 C 944.121 52.460, 924.542 45.918, 920.284 48.764 M 321.290 72.937 C 319.619 77.805, 318.552 82.275, 318.920 82.871 C 319.724 84.171, 334 84.225, 334 82.928 C 334 81.666, 325.933 65.077, 325.056 64.534 C 324.656 64.288, 322.962 68.069, 321.290 72.937 M 781.200 65.200 C 780.540 65.860, 780 66.901, 780 67.513 C 780 68.125, 778.920 70.865, 777.599 73.602 C 776.279 76.340, 775.041 79.866, 774.849 81.439 C 774.503 84.276, 774.546 84.301, 780.500 84.622 C 789.176 85.090, 789.914 84.347, 787.269 77.812 C 786.086 74.890, 784.624 70.588, 784.021 68.250 C 782.790 63.487, 782.849 63.551, 781.200 65.200 M 189.119 78.905 C 187.960 79.640, 187.929 81.918, 188.931 93.140 C 190.282 108.291, 190.895 109.412, 198.449 110.545 C 206.016 111.679, 211.626 107.207, 212.702 99.182 C 213.379 94.138, 211.748 89.656, 207.592 85.139 C 202.545 79.654, 193.015 76.438, 189.119 78.905 M 1324.853 172 L 1315.207 172.500 1311.086 177 C 1302.187 186.718, 1298.448 198.670, 1299.357 214.497 C 1299.919 224.286, 1301.525 231.488, 1304.487 237.500 C 1305.300 239.150, 1306.639 242.075, 1307.462 244 C 1313.783 258.775, 1337.896 282.966, 1364 300.720 C 1365.375 301.656, 1369.650 305.011, 1373.500 308.177 C 1377.350 311.342, 1382.640 315.635, 1385.256 317.716 C 1414.683 341.126, 1429.227 360.172, 1436.637 385 C 1439.227 393.679, 1439.460 395.753, 1439.335 409 C 1439.183 425.114, 1437.280 434.572, 1432.138 444.763 C 1430.962 447.094, 1429.108 450.763, 1428.017 452.917 C 1426.926 455.071, 1423.663 459.542, 1420.767 462.851 C 1411.418 473.531, 1402.774 478.925, 1387.993 483.303 C 1357.958 492.198, 1326.256 481.494, 1315.317 458.763 C 1309.560 446.802, 1308.512 427.416, 1313.064 417.123 C 1314.129 414.715, 1315 412.083, 1315 411.274 C 1315 408.864, 1322.163 397.995, 1326.819 393.339 C 1337.849 382.308, 1356.792 376.243, 1368.004 380.151 C 1372.604 381.755, 1373.982 379.774, 1372.923 373.077 C 1371.958 366.972, 1370.873 364.903, 1365.689 359.279 C 1360.731 353.899, 1358.062 352.456, 1348.157 349.797 C 1331.312 345.275, 1312.878 349.150, 1297.138 360.522 C 1286.089 368.506, 1277.393 380.313, 1272.113 394.500 C 1269.933 400.358, 1268.446 412.722, 1268.503 424.528 C 1268.555 435.370, 1268.860 437.337, 1271.736 445.363 C 1277.322 460.952, 1285.145 470.683, 1300.256 480.841 C 1311.872 488.650, 1330.955 495.374, 1344.500 496.432 C 1348.900 496.776, 1355.875 497.309, 1360 497.616 C 1374.920 498.728, 1400.782 494.717, 1412.500 489.472 C 1415.250 488.242, 1418.625 486.904, 1420 486.499 C 1421.375 486.094, 1423.175 485.197, 1424 484.504 C 1424.825 483.811, 1428.835 481.371, 1432.911 479.082 C 1442.856 473.496, 1459.119 459.459, 1461.971 454 C 1462.689 452.625, 1463.903 450.825, 1464.669 450 C 1468.651 445.709, 1470.516 442.700, 1475.151 433.091 C 1480.886 421.202, 1484.457 410.844, 1485.354 403.500 C 1485.690 400.750, 1486.298 396.025, 1486.705 393 C 1487.111 389.975, 1487.393 382.325, 1487.330 376 C 1487.113 354.125, 1479.250 335.456, 1463.112 318.500 C 1456.884 311.956, 1447.576 303.733, 1445.688 303.105 C 1445.035 302.888, 1442.811 301.200, 1440.747 299.355 C 1438.683 297.510, 1436.383 296, 1435.637 296 C 1434.890 296, 1432.543 294.822, 1430.422 293.382 C 1425.286 289.897, 1415.136 284.490, 1394 273.977 C 1359.396 256.768, 1358.649 256.364, 1348.305 249.339 C 1338.860 242.923, 1328 232.897, 1328 230.593 C 1328 229.771, 1327.438 228.740, 1326.750 228.300 C 1325.514 227.509, 1323.801 224.856, 1321.391 220 C 1320.709 218.625, 1319.840 213.900, 1319.461 209.500 C 1319.082 205.100, 1318.608 201.222, 1318.408 200.882 C 1317.935 200.076, 1322.595 188.193, 1324.091 186.390 C 1326.403 183.604, 1353.581 184.986, 1383.229 189.398 C 1394.335 191.051, 1401.916 193.092, 1409.336 196.427 C 1412.176 197.704, 1416.975 199.543, 1420 200.514 C 1430.640 203.931, 1443.474 211.528, 1458.094 223.061 C 1464.212 227.887, 1477.842 241.956, 1479.591 245.250 C 1481.125 248.138, 1484.098 248.868, 1485.702 246.750 C 1486.223 246.063, 1486.762 242.140, 1486.900 238.032 C 1487.038 233.925, 1487.369 230.211, 1487.636 229.780 C 1487.903 229.348, 1488.331 225.958, 1488.588 222.247 C 1488.845 218.536, 1489.481 209.650, 1490.001 202.500 C 1490.521 195.350, 1491.147 186.704, 1491.392 183.286 C 1491.637 179.868, 1492.085 176.672, 1492.387 176.183 C 1492.689 175.695, 1492.388 174.561, 1491.718 173.664 C 1490.613 172.186, 1483.245 172.009, 1412.500 171.767 C 1369.600 171.620, 1330.159 171.725, 1324.853 172 M 1041.474 174.893 C 1041.104 176.327, 1040.639 182.450, 1040.440 188.500 C 1040.240 194.550, 1039.849 204.450, 1039.569 210.500 C 1039.289 216.550, 1038.816 227.125, 1038.518 234 C 1038.220 240.875, 1037.767 251.225, 1037.511 257 C 1037.254 262.775, 1036.814 274.025, 1036.533 282 C 1036.251 289.975, 1035.793 300.325, 1035.515 305 C 1035.236 309.675, 1034.764 320.475, 1034.466 329 C 1034.167 337.525, 1033.722 348.775, 1033.476 354 C 1033.230 359.225, 1032.786 369.350, 1032.488 376.500 C 1032.191 383.650, 1031.747 393.100, 1031.502 397.500 C 1031.256 401.900, 1030.816 413.150, 1030.524 422.500 C 1030.232 431.850, 1029.764 441.975, 1029.485 445 C 1028.751 452.946, 1027.815 473.820, 1027.646 486 L 1027.500 496.500 1088.193 496.624 C 1121.867 496.693, 1151.248 496.333, 1154.193 495.816 C 1163.096 494.253, 1179.489 487.461, 1183.500 483.673 C 1184.600 482.635, 1187.075 480.770, 1189 479.529 C 1190.925 478.289, 1194.300 475.487, 1196.500 473.302 C 1204.655 465.204, 1212 457.163, 1212 456.334 C 1212 455.863, 1213.594 453.683, 1215.543 451.489 C 1217.492 449.295, 1220.474 444.800, 1222.170 441.500 C 1223.866 438.200, 1226.036 434.375, 1226.993 433 C 1227.950 431.625, 1230.638 426.225, 1232.966 421 C 1235.295 415.775, 1237.605 410.719, 1238.100 409.764 C 1238.595 408.809, 1239 407.346, 1239 406.514 C 1239 405.681, 1239.450 405, 1240 405 C 1240.550 405, 1240.912 404.663, 1240.804 404.250 C 1240.696 403.837, 1241.422 400.800, 1242.417 397.500 C 1243.412 394.200, 1244.333 391.050, 1244.462 390.500 C 1244.592 389.950, 1244.940 388.825, 1245.236 388 C 1248.336 379.356, 1251.566 364.512, 1254.048 347.500 C 1256.091 333.502, 1255.011 294.063, 1252.472 289.955 C 1252.267 289.624, 1251.611 285.416, 1251.013 280.603 C 1250.415 275.791, 1249.522 271.099, 1249.028 270.177 C 1248.534 269.255, 1246.734 264.279, 1245.028 259.119 C 1240.962 246.823, 1234.724 234.310, 1228.220 225.406 C 1221.747 216.543, 1206.979 201.671, 1202.750 199.757 C 1201.237 199.072, 1200 198.193, 1200 197.804 C 1200 196.647, 1191.841 191.476, 1187.058 189.602 C 1184.614 188.645, 1181.407 187.002, 1179.930 185.950 C 1178.454 184.899, 1174.828 183.398, 1171.873 182.615 C 1168.918 181.832, 1165.187 180.681, 1163.582 180.057 C 1161.977 179.433, 1159.502 178.735, 1158.082 178.507 C 1156.662 178.278, 1152.800 177.408, 1149.500 176.572 C 1143.122 174.956, 1137.610 174.078, 1129.500 173.386 C 1120.419 172.610, 1060 172.449, 1060 173.201 C 1060 173.606, 1059.438 173.738, 1058.750 173.495 C 1058.063 173.252, 1054.045 172.881, 1049.822 172.670 C 1042.255 172.292, 1042.135 172.324, 1041.474 174.893 M 484.275 173.830 C 483.661 174.209, 471.648 174.507, 457.579 174.492 C 429.002 174.460, 429.140 174.420, 435.381 180.958 C 439.183 184.941, 446.739 195.699, 449.456 201 C 457.294 216.287, 459.468 221.259, 462.453 230.719 C 467.644 247.172, 469.732 256.161, 472.041 272 C 473.204 279.975, 474.825 289.822, 475.645 293.882 C 477.306 302.107, 476.500 304.668, 473.195 301.676 C 472.176 300.754, 470.764 300, 470.057 300 C 469.349 300, 466.685 298.918, 464.135 297.597 C 453.284 291.970, 439.455 287.984, 425 286.316 C 423.075 286.094, 419.340 285.482, 416.701 284.956 C 407.285 283.080, 387.503 284.193, 370.066 287.578 C 365.355 288.493, 361.072 289.637, 360.550 290.121 C 360.028 290.604, 358.258 291, 356.617 291 C 353.384 291, 334.610 298.992, 329.110 302.709 C 327.246 303.969, 325.179 305, 324.516 305 C 323.099 305, 323.387 279.670, 324.954 266.500 C 325.478 262.100, 326.172 254.996, 326.498 250.714 C 327.124 242.474, 332.448 219.969, 335.537 212.500 C 336.219 210.850, 337.106 208.415, 337.507 207.090 C 339.471 200.600, 344.064 192.429, 352.453 180.500 C 354.387 177.750, 355.976 175.275, 355.985 175 C 355.993 174.725, 337.213 174.606, 314.250 174.736 C 291.288 174.866, 269.012 174.978, 264.750 174.986 C 258.463 174.997, 257 175.289, 257 176.531 C 257 177.374, 257.600 178.293, 258.333 178.574 C 260.319 179.336, 272.876 195.458, 274.487 199.315 C 275.256 201.154, 276.537 203.201, 277.335 203.863 C 278.132 204.525, 279.362 206.514, 280.067 208.283 C 280.772 210.052, 282.107 212.625, 283.034 214 C 284.609 216.338, 288.326 226.275, 288.457 228.500 C 288.489 229.050, 289.247 231.075, 290.141 233 C 294.516 242.425, 297.818 255.272, 301.063 275.500 C 301.593 278.800, 302.435 282.850, 302.936 284.500 C 303.436 286.150, 304.171 290.650, 304.568 294.500 C 304.966 298.350, 305.427 302.400, 305.592 303.500 C 306.759 311.244, 308.990 337.134, 309.643 350.491 C 309.938 356.536, 310.386 361.816, 310.638 362.223 C 311.572 363.734, 310.864 403.023, 309.498 425.500 C 308.831 436.480, 303.628 461.446, 300.537 468.500 C 299.814 470.150, 298.894 472.625, 298.493 474 C 298.092 475.375, 297.205 477.175, 296.523 478 C 295.841 478.825, 294.792 480.965, 294.192 482.755 C 292.915 486.565, 286.765 496.287, 283.095 500.297 C 280.920 502.674, 280.758 503.246, 282.018 504.103 C 282.987 504.762, 297.511 504.918, 324 504.555 C 346.275 504.250, 366.413 504, 368.750 504 C 374.244 504, 374.311 502.246, 369.019 496.901 C 362.702 490.521, 350.812 472.082, 349.409 466.492 C 348.996 464.846, 347.245 460.350, 345.518 456.500 C 341.846 448.314, 338.276 435.474, 333.424 413 C 330.784 400.773, 325.581 361.944, 326.146 358.691 C 326.358 357.474, 325.404 340.905, 324.421 328.725 L 323.874 321.951 327.369 320.490 C 329.291 319.687, 331.148 318.570, 331.495 318.008 C 333.105 315.403, 355.399 306.710, 370.500 302.800 C 381.595 299.927, 420.226 299.705, 432.280 302.445 C 440.162 304.237, 452.596 308.263, 453.720 309.386 C 454.057 309.724, 455.120 310, 456.081 310 C 458.707 310, 476.023 319.174, 477.062 321.116 C 477.560 322.047, 478.312 331.064, 478.734 341.154 C 480.754 389.528, 478.203 428.534, 471.518 451.500 C 470.237 455.900, 468.885 460.850, 468.513 462.500 C 468.141 464.150, 466.299 468.623, 464.419 472.440 C 462.538 476.257, 461 479.862, 461 480.451 C 461 481.647, 452.984 493.932, 449.313 498.362 C 444.934 503.646, 446.446 503.996, 471.346 503.459 C 483.531 503.196, 503.337 502.801, 515.360 502.580 C 528.108 502.347, 537.640 501.760, 538.226 501.174 C 539.238 500.162, 534.641 493, 532.979 493 C 531.168 493, 519.432 472.787, 515.306 462.564 C 508.553 445.829, 507.845 443.388, 503.403 421.500 C 501.031 409.812, 500.223 404.781, 498.585 391.500 C 496.981 378.501, 495.037 346.034, 494.631 325.500 C 494.275 307.439, 495.769 274.107, 497.389 263.971 C 498.221 258.762, 498.987 252.250, 499.091 249.500 C 499.292 244.160, 503.461 225.781, 505.200 222.567 C 505.775 221.503, 507.058 217.794, 508.050 214.324 C 510.338 206.325, 519.442 187.973, 522.945 184.298 C 524.412 182.759, 526.607 180.070, 527.823 178.323 L 530.033 175.145 527.766 174.423 C 526.520 174.026, 522.350 173.807, 518.500 173.936 C 499.054 174.588, 488.349 174.574, 486.946 173.893 C 486.091 173.479, 484.890 173.450, 484.275 173.830 M 729.577 173.756 C 729.436 173.897, 695.611 174.046, 654.410 174.087 C 613.210 174.128, 578.685 174.389, 577.690 174.667 C 576.051 175.125, 575.934 176.085, 576.451 184.836 C 576.765 190.151, 577.276 206.650, 577.587 221.500 C 578.226 252.067, 578.243 252.344, 579.546 252.925 C 580.478 253.341, 581.396 252.105, 587.453 242.287 C 592.940 233.390, 605.319 220.674, 617.132 211.799 C 625.092 205.819, 648.198 194, 651.929 194 C 653.979 194, 654.096 194.421, 653.943 201.250 C 653.644 214.547, 650.607 223.281, 638.383 245.999 C 637.347 247.924, 636.225 249.724, 635.890 249.999 C 635.554 250.275, 634.485 252.075, 633.515 254 C 632.545 255.925, 630.318 259.300, 628.567 261.500 C 626.816 263.700, 624.322 267.300, 623.024 269.500 C 621.727 271.700, 619.165 275.376, 617.333 277.668 C 615.500 279.961, 614 282.128, 614 282.485 C 614 283.147, 609.015 290.095, 607.890 291 C 607.548 291.275, 606.315 293.382, 605.149 295.682 C 603.983 297.982, 602.561 300.153, 601.991 300.506 C 599.777 301.874, 582.946 328.316, 574.226 344.125 C 569.276 353.101, 560.975 372.015, 559.385 377.943 C 558.582 380.936, 557.555 383.861, 557.102 384.443 C 556.149 385.667, 552.556 400.517, 550.919 410 C 549.491 418.269, 549.485 442.080, 550.909 452.500 C 551.510 456.900, 552.263 462.525, 552.581 465 C 552.900 467.475, 553.642 470.850, 554.232 472.500 C 556.555 479.002, 563.520 492.751, 566.806 497.320 L 570.274 502.141 599.387 501.457 C 615.399 501.081, 628.861 500.440, 629.303 500.034 C 630.192 499.215, 626.782 492.947, 623.554 489.464 C 619.883 485.502, 611.827 469.728, 609.273 461.500 C 603.786 443.821, 601.264 432.035, 600.010 418.218 C 598.541 402.031, 599.239 379.475, 601.552 368.422 C 602.348 364.615, 603 360.279, 603 358.786 C 603 357.204, 603.731 355.700, 604.750 355.183 C 605.712 354.695, 622.925 354.207, 643 354.098 C 663.075 353.989, 691.425 353.710, 706 353.477 C 720.575 353.244, 733.288 353.297, 734.250 353.594 C 737.866 354.711, 735.882 364.872, 727.727 387 C 720.414 406.840, 705.846 429.994, 686.262 452.900 C 680.582 459.544, 677.829 463.914, 678.570 465.112 C 679.525 466.658, 758.051 465.241, 759.664 463.649 C 760.529 462.796, 761.001 432.147, 761.500 344.500 C 762.380 189.950, 762.398 175.065, 761.704 174.371 C 761.147 173.814, 730.113 173.220, 729.577 173.756 M 805.500 173.827 C 803.850 174.007, 802.107 174.535, 801.626 175 C 801.146 175.466, 800.615 191.069, 800.447 209.674 C 800.278 228.278, 799.847 273.650, 799.488 310.500 C 798.215 441.274, 798.167 462.985, 799.151 463.593 C 800.372 464.348, 876.527 464.119, 878.520 463.354 C 880.095 462.750, 880.595 460, 879.130 460 C 878.339 460, 875.007 455.378, 863.798 438.735 C 855.493 426.403, 839.016 394.486, 836.902 386.636 C 836.298 384.394, 834.478 379.222, 832.858 375.143 C 831.238 371.063, 829.298 364.975, 828.547 361.613 C 827.797 358.251, 826.286 352.350, 825.191 348.500 C 823.472 342.460, 821.017 328.969, 819.458 317 C 818.656 310.836, 816.945 287.854, 816.443 276.500 C 816.176 270.450, 815.762 263.672, 815.524 261.437 C 815.285 259.202, 815.348 256.385, 815.664 255.176 C 816.155 253.299, 816.872 254.007, 820.587 260.032 C 827.067 270.541, 830.742 274.779, 850.479 294.500 C 869.189 313.194, 882.180 327.374, 895.064 343.162 C 898.036 346.804, 906.780 359.490, 910.393 365.403 C 911.434 367.106, 913.315 370.075, 914.574 372 C 922.516 384.148, 933.025 414.340, 934.618 429.589 C 936.444 447.071, 933.611 471.938, 927.762 489.770 C 926.631 493.218, 926.036 496.368, 926.439 496.770 C 927.448 497.774, 992.291 497.046, 993.354 496.018 C 995.237 494.197, 996.932 481.797, 996.965 469.598 C 996.995 458.491, 996.570 454.941, 993.912 444.098 C 992.214 437.169, 989.500 428.626, 987.881 425.112 C 986.262 421.599, 983.996 416.537, 982.845 413.862 C 981.695 411.188, 980.431 409, 980.036 409 C 979.641 409, 978.151 406.863, 976.724 404.250 C 968.368 388.945, 943.789 361.870, 916.502 337.912 C 909.353 331.636, 902.603 325.676, 901.502 324.668 C 900.401 323.661, 896.688 320.545, 893.250 317.744 C 889.813 314.943, 887 312.301, 887 311.873 C 887 311.446, 884.886 309.642, 882.302 307.864 C 879.719 306.086, 878.108 304.464, 878.723 304.259 C 879.338 304.054, 883.233 304.587, 887.378 305.443 C 892.531 306.508, 900.478 307, 912.500 307 C 934.956 307, 943.768 305.312, 959.739 297.953 C 962.071 296.879, 964.244 296, 964.569 296 C 965.695 296, 974.387 288.470, 980.729 282 C 984.233 278.425, 988.118 273.475, 989.361 271 C 990.604 268.525, 992.104 265.600, 992.694 264.500 C 993.284 263.400, 994.213 261.375, 994.759 260 C 995.305 258.625, 996.314 256.150, 997.001 254.500 C 999.157 249.329, 1000.973 227.874, 999.898 220.285 C 998.709 211.888, 993.269 200.559, 987.632 194.737 C 981.848 188.764, 974.570 183, 972.814 183 C 971.999 183, 971.020 182.687, 970.638 182.304 C 970.255 181.922, 969.393 181.481, 968.721 181.325 C 968.049 181.170, 964.285 179.913, 960.355 178.532 C 947.230 173.922, 942.592 173.657, 873.500 173.576 C 837.750 173.534, 807.150 173.647, 805.500 173.827 M 232.825 174.508 C 232.575 174.758, 190.248 175.084, 138.766 175.231 L 45.160 175.500 42.830 177.706 C 41.549 178.920, 39.442 182.070, 38.149 184.706 C 36.856 187.343, 35.401 190.270, 34.915 191.211 C 34.429 192.152, 33.506 196.104, 32.864 199.993 C 31.405 208.825, 33.233 218.665, 38.531 230.500 C 39.762 233.250, 41.367 237.075, 42.098 239 C 43.472 242.620, 47.835 248.835, 51.753 252.753 C 52.989 253.989, 54 255.386, 54 255.858 C 54 257.953, 76.754 279.192, 84 283.861 C 85.375 284.748, 86.950 285.957, 87.500 286.548 C 88.050 287.140, 91.200 289.394, 94.500 291.556 C 97.800 293.719, 102.300 296.846, 104.500 298.506 C 106.700 300.165, 110.075 302.382, 112 303.433 C 113.925 304.484, 116.625 306.194, 118 307.234 C 123.010 311.022, 140.146 321.912, 142.047 322.515 C 143.121 322.856, 144 323.496, 144 323.936 C 144 324.377, 146.789 326.485, 150.199 328.619 C 153.608 330.754, 158.220 333.966, 160.449 335.757 C 162.677 337.548, 164.950 339.348, 165.500 339.757 C 171.184 343.980, 187.327 358.312, 191.117 362.500 C 197.938 370.039, 205.886 381.128, 209.751 388.500 C 212.966 394.630, 218.839 412.732, 219.972 420 C 222.194 434.256, 220.167 451.801, 215.178 461.500 C 211.022 469.579, 205.779 478, 204.906 478 C 204.461 478, 202.554 479.588, 200.670 481.528 C 195.594 486.754, 183.761 492.449, 172.635 495.020 C 155.930 498.880, 140.351 497.233, 122.500 489.717 C 119.750 488.559, 116.068 486.574, 114.317 485.306 C 112.566 484.038, 110.906 483, 110.627 483 C 110.349 483, 107.105 479.962, 103.418 476.250 C 83.796 456.488, 80.703 424.952, 96.330 403.984 C 105.106 392.209, 120.769 386.172, 135.460 388.902 C 140.456 389.831, 141.660 389.768, 142.914 388.515 C 147.098 384.330, 134.923 367.381, 123.243 361.130 C 118.827 358.767, 106.049 356.635, 96 356.586 C 84.453 356.529, 74.102 359.084, 67.370 363.653 C 65.467 364.944, 63.528 366, 63.060 366 C 62.592 366, 59.338 368.829, 55.829 372.286 C 49.621 378.404, 44.008 387.810, 41.084 397 C 38.945 403.720, 38.183 420.395, 39.633 428.734 C 41.936 441.973, 48.599 459.166, 53.500 464.513 C 54.600 465.713, 57.525 469.235, 60 472.341 C 62.475 475.446, 64.756 477.989, 65.070 477.993 C 65.383 477.997, 67.183 479.399, 69.070 481.109 C 72.322 484.057, 78.108 488.126, 82.500 490.555 C 83.600 491.163, 86.975 493.063, 90 494.776 C 93.025 496.489, 97.300 498.333, 99.500 498.872 C 101.700 499.412, 105.975 500.732, 109 501.805 C 119.164 505.412, 121.796 506.064, 130.165 507.047 C 152.402 509.658, 176.228 508.780, 190.500 504.823 C 208.077 499.950, 228.131 489.196, 239.011 478.807 C 251.376 467.001, 260.419 451.304, 264.689 434.231 C 267.874 421.499, 268.405 404.152, 266.059 389.500 C 264.285 378.427, 256.445 357.612, 251.873 351.839 C 250.058 349.548, 247.882 346.426, 247.037 344.902 C 244.336 340.031, 229.196 325.055, 223.043 321.169 C 221.644 320.285, 218.096 317.636, 215.158 315.281 C 212.220 312.927, 209.390 311, 208.868 311 C 207.967 311, 202.831 307.648, 200.441 305.500 C 199.341 304.511, 180.510 295.441, 166 288.911 C 161.875 287.055, 157.427 284.741, 156.115 283.768 C 154.803 282.796, 152.754 282, 151.561 282 C 150.369 282, 147.167 280.915, 144.446 279.588 C 137.947 276.419, 130.241 273, 129.596 273 C 129.314 273, 124.452 270.823, 118.792 268.162 C 104.681 261.529, 104.166 261.271, 98.500 257.987 C 95.750 256.393, 91.925 254.346, 90 253.437 C 88.075 252.529, 85.825 251.180, 85 250.439 C 84.175 249.699, 82.544 248.228, 81.375 247.171 C 80.206 246.115, 78.782 245.081, 78.210 244.875 C 76.273 244.177, 64.756 232.634, 62.925 229.557 C 61.925 227.876, 59.457 223.167, 57.440 219.093 C 54.255 212.658, 53.756 210.681, 53.637 204.021 C 53.531 198.102, 53.951 195.517, 55.477 192.678 L 57.455 189 68.477 189.004 C 78.702 189.008, 111.413 191.520, 112.861 192.413 C 113.212 192.630, 117.878 193.330, 123.229 193.968 C 133.773 195.227, 141.839 197.280, 152 201.293 C 155.575 202.705, 160.525 204.388, 163 205.033 C 167.039 206.087, 173.627 208.923, 186.943 215.341 C 191.384 217.482, 195.785 220.174, 205.860 226.914 C 208.807 228.886, 213.037 231.689, 215.260 233.143 C 217.482 234.596, 219.705 236.509, 220.200 237.393 C 220.695 238.277, 221.652 239, 222.327 239 C 223.003 239, 224.262 239.787, 225.125 240.750 C 228.884 244.940, 239.037 254, 239.974 254 C 240.888 254, 241.387 252.676, 241.155 250.861 C 240.705 247.323, 239.791 231.825, 239.896 229.500 C 239.970 227.850, 239.585 222.675, 239.040 218 C 238.107 209.995, 237.330 200.753, 236.511 187.921 C 235.886 178.122, 234.447 172.887, 232.825 174.508 M 1061.298 185.810 C 1059.342 185.999, 1057.904 186.777, 1057.601 187.810 C 1057.328 188.739, 1056.834 196.250, 1056.503 204.500 C 1056.172 212.750, 1055.471 226.250, 1054.945 234.500 C 1053.357 259.429, 1053.402 286.985, 1055.074 314 C 1056.591 338.501, 1056.671 339.487, 1057.912 349 C 1058.522 353.675, 1059.490 362, 1060.062 367.500 C 1061.113 377.600, 1064.449 395.421, 1066.103 399.770 C 1066.596 401.068, 1067.009 403.338, 1067.021 404.815 C 1067.033 406.292, 1068.170 410.650, 1069.548 414.500 C 1070.927 418.350, 1072.932 424.716, 1074.004 428.646 C 1075.077 432.576, 1077.314 438.414, 1078.977 441.618 C 1080.640 444.823, 1082 447.812, 1082 448.261 C 1082 448.710, 1084.642 452.997, 1087.871 457.788 C 1099.350 474.823, 1110.576 482.195, 1129.973 485.437 C 1134.833 486.249, 1150.716 481.506, 1156.860 477.408 C 1162.364 473.735, 1171.760 464.312, 1175.488 458.723 C 1177.405 455.850, 1179.592 452.825, 1180.349 452 C 1181.106 451.175, 1182.538 448.700, 1183.530 446.500 C 1184.523 444.300, 1185.861 441.825, 1186.503 441 C 1189.996 436.516, 1199.711 407.366, 1203.501 390 C 1206.554 376.013, 1206.835 374.502, 1206.759 372.500 C 1206.717 371.400, 1207.188 363.075, 1207.807 354 C 1209.807 324.643, 1209.319 315.913, 1203.919 284.500 C 1203.352 281.200, 1202.384 276.700, 1201.769 274.500 C 1201.153 272.300, 1200.590 270.050, 1200.517 269.500 C 1200.381 268.461, 1199.980 267.432, 1196.865 260.123 C 1195.839 257.715, 1195 255.196, 1195 254.524 C 1195 252.810, 1184.369 232.527, 1180.311 226.500 C 1175.247 218.978, 1170.093 213.209, 1163.109 207.248 C 1158.712 203.495, 1156.692 202.169, 1145.500 195.692 C 1138.712 191.763, 1122.478 186.989, 1113.500 186.281 C 1106.450 185.725, 1065.953 185.359, 1061.298 185.810 M 688.732 188.282 C 680.060 188.711, 671.826 189.496, 670.435 190.025 C 668.237 190.861, 667.986 191.411, 668.517 194.243 C 670.470 204.675, 669.038 219.486, 664.928 231.353 C 660.516 244.092, 643.632 275.503, 637.939 281.564 C 636.873 282.700, 636 284.124, 636 284.729 C 636 285.334, 633.473 289.580, 630.384 294.165 C 627.295 298.749, 624.340 303.625, 623.817 305 C 623.295 306.375, 622.045 308.400, 621.042 309.500 C 619.233 311.482, 618.250 313.495, 612.008 328 C 610.232 332.125, 608.379 335.928, 607.890 336.450 C 607.400 336.972, 607 338.269, 607 339.332 C 607 341.226, 608.245 341.252, 672.606 340.692 C 708.689 340.378, 738.313 339.982, 738.437 339.811 C 738.560 339.640, 739.421 334.100, 740.349 327.500 C 744.041 301.260, 744.975 282.583, 744.988 234.750 L 745 188 735.750 187.931 C 730.663 187.892, 721.550 187.780, 715.500 187.681 C 709.450 187.581, 697.404 187.852, 688.732 188.282 M 818.068 187.958 C 817.356 188.398, 816.947 194.832, 816.884 206.599 C 816.797 222.566, 817.010 225.065, 818.793 229.034 C 819.897 231.490, 821.280 234.985, 821.866 236.800 C 822.451 238.615, 823.864 241.315, 825.004 242.800 C 826.144 244.285, 829.197 248.415, 831.788 251.979 C 838.815 261.640, 851.284 273.422, 862.149 280.667 C 880.172 292.684, 904.115 298.720, 917.081 294.516 C 928.466 290.824, 939.321 282.590, 942.152 275.500 C 942.810 273.850, 944.102 271.375, 945.021 270 C 947.030 266.995, 950.111 255.245, 950.528 249 C 950.979 242.225, 948.432 229.908, 945.025 222.395 C 938.577 208.174, 924.361 196.576, 906.290 190.793 L 896.500 187.661 857.828 187.473 C 836.559 187.370, 818.667 187.588, 818.068 187.958 M 799.500 480.817 C 797.300 480.991, 795.193 481.441, 794.819 481.817 C 794.444 482.193, 793.994 508.150, 793.819 539.500 L 793.500 596.500 807 596.807 C 820.761 597.120, 831 596.416, 831 595.155 C 831 594.770, 829.440 593.615, 827.534 592.588 C 815.524 586.120, 810.578 571.412, 811.196 544 L 811.500 530.500 824 530.543 C 834.338 530.578, 837.674 530.983, 843.289 532.887 C 849.288 534.921, 850.561 535.829, 854.232 540.691 C 858.060 545.762, 858.490 546.051, 859.713 544.377 C 860.444 543.379, 861.470 540.970, 861.994 539.024 C 862.518 537.078, 864.102 533.090, 865.514 530.163 C 866.927 527.235, 868.351 523.493, 868.681 521.847 L 869.279 518.854 840.203 519.524 L 811.127 520.195 810.422 516.434 C 809.759 512.904, 810.553 492.113, 811.382 491.285 C 811.591 491.075, 821.379 490.884, 833.131 490.860 C 855.984 490.813, 864.206 491.933, 871.764 496.120 C 876.379 498.676, 880.787 502.753, 881.556 505.176 C 882.115 506.939, 884.884 507.775, 885.112 506.250 C 885.667 502.552, 885.933 485.796, 885.478 483.223 L 884.899 479.945 844.200 480.223 C 821.815 480.375, 801.700 480.643, 799.500 480.817 M 702.670 482.007 C 693.821 483.138, 680.869 489.966, 673.373 497.451 C 663.463 507.346, 657.169 521.766, 656.285 536.602 C 655.768 545.285, 657.070 557.175, 658.939 560.834 C 659.407 561.750, 661.284 565.650, 663.111 569.500 C 668.442 580.736, 679.689 591.627, 690 595.537 C 695.985 597.807, 707.631 600, 713.697 600 C 720.057 600, 732.424 597.877, 738.733 595.704 C 744.679 593.655, 756.037 585.761, 760.812 580.357 C 763.116 577.751, 765 575.245, 765 574.788 C 765 574.331, 766.135 572.242, 767.522 570.147 C 771.401 564.285, 772.463 560.270, 773.910 546 C 774.877 536.457, 773.114 521.052, 770.362 515 C 764.320 501.713, 756.509 493.424, 744.500 487.555 C 731.992 481.443, 719.770 479.822, 702.670 482.007 M 693.224 496.297 C 683.067 500.539, 678.265 506.532, 675.888 517.937 C 674.287 525.615, 675.390 533.466, 679.919 546.632 C 685.401 562.567, 694.081 574.041, 706.500 581.770 C 712.412 585.449, 718.209 586.942, 726.715 586.976 C 739.330 587.025, 748.159 581.484, 752.108 571.041 C 754.963 563.487, 754.936 549.084, 752.050 540.350 C 745.369 520.130, 734.126 505.090, 721.500 499.483 C 707.859 493.425, 701.749 492.736, 693.224 496.297 M 1418 541.757 C 1407.825 541.899, 1398.866 542.250, 1398.091 542.537 C 1397.002 542.941, 1397.241 543.675, 1399.148 545.780 C 1405.420 552.699, 1424 583.765, 1424 587.332 C 1424 587.880, 1425.579 591.655, 1427.508 595.720 C 1429.438 599.785, 1431.478 605.170, 1432.042 607.687 C 1432.606 610.204, 1434.001 615.017, 1435.142 618.382 C 1436.283 621.747, 1437.592 626.750, 1438.051 629.500 C 1438.510 632.250, 1439.363 636.525, 1439.947 639 C 1441.579 645.923, 1442.834 653.849, 1443.427 661 C 1443.724 664.575, 1444.181 669.300, 1444.441 671.500 C 1446.942 692.591, 1447.356 708.193, 1446.245 739.419 C 1445.452 761.674, 1444.547 765.024, 1441.400 757.338 C 1435.406 742.693, 1428.193 730.397, 1415.979 714 C 1401.382 694.405, 1403.306 696.575, 1360.469 651.367 C 1358.836 649.644, 1355.925 646.345, 1354 644.037 C 1352.075 641.729, 1349.116 638.406, 1347.426 636.653 C 1345.735 634.900, 1343.506 632.123, 1342.474 630.483 C 1341.441 628.842, 1339.286 625.796, 1337.685 623.713 C 1325.296 607.599, 1319.048 576.778, 1324.872 560.500 C 1326.053 557.200, 1328.369 552.326, 1330.018 549.669 C 1331.668 547.012, 1332.757 544.416, 1332.438 543.900 C 1332.096 543.346, 1319.977 543.002, 1302.900 543.060 L 1273.942 543.159 1272.322 545.631 C 1267.624 552.801, 1265.637 570.467, 1268.401 580.500 C 1270.007 586.328, 1274.459 596.284, 1277.256 600.298 C 1279.011 602.818, 1279.142 604.211, 1278.576 614.298 C 1277.513 633.214, 1275.959 654.421, 1275.520 656 C 1275.290 656.825, 1274.825 662.675, 1274.486 669 C 1274.147 675.325, 1273.725 682.300, 1273.549 684.500 C 1272.528 697.258, 1271.668 710.603, 1271.825 711.260 C 1271.925 711.678, 1271.567 716.178, 1271.029 721.260 C 1270.492 726.342, 1269.828 735.450, 1269.553 741.500 C 1269.013 753.403, 1267.625 774.131, 1266.039 794 C 1265.490 800.875, 1264.807 810.325, 1264.522 815 C 1264.236 819.675, 1263.740 826.200, 1263.420 829.500 C 1262.750 836.387, 1262.778 843.111, 1263.479 843.812 C 1264.082 844.415, 1327.995 843.823, 1339.250 843.111 C 1341.689 842.956, 1341.440 841.759, 1338.271 838.396 C 1335.490 835.445, 1334.900 834.644, 1326.658 822.651 C 1313.920 804.115, 1301.876 772.604, 1296.863 744.694 C 1293.280 724.746, 1293.033 722.782, 1291.427 701.500 C 1289.636 677.779, 1289.311 621.289, 1290.955 619.645 C 1291.614 618.986, 1294.737 621.366, 1300.225 626.711 C 1308.578 634.848, 1320.631 645.481, 1333.992 656.500 C 1337.994 659.800, 1343.141 664.075, 1345.432 666 C 1347.722 667.925, 1351.802 671.300, 1354.498 673.500 C 1376.189 691.198, 1396.217 711.581, 1409.400 729.374 C 1421.342 745.492, 1430.992 765.015, 1433.433 778 C 1436.581 794.735, 1437.094 799.693, 1436.906 811.518 C 1436.792 818.677, 1436.325 827.641, 1435.868 831.437 C 1435.333 835.880, 1435.399 838.776, 1436.054 839.564 C 1436.662 840.298, 1439.500 840.767, 1443.122 840.733 C 1448.315 840.684, 1449.283 840.380, 1449.949 838.588 C 1450.376 837.440, 1451.255 829.075, 1451.903 820 C 1452.550 810.925, 1453.511 799.225, 1454.039 794 C 1454.567 788.775, 1455.441 779.325, 1455.982 773 C 1456.522 766.675, 1457.194 760.375, 1457.474 759 C 1458.178 755.541, 1462.741 713.284, 1463.467 703.500 C 1464.079 695.240, 1465.771 675.912, 1466.574 668 C 1466.825 665.525, 1467.267 661.025, 1467.556 658 C 1467.846 654.975, 1469.005 643.500, 1470.132 632.500 C 1471.259 621.500, 1472.315 610.475, 1472.479 608 C 1472.643 605.525, 1473.220 600.350, 1473.761 596.500 C 1474.302 592.650, 1474.780 588.600, 1474.824 587.500 C 1474.974 583.713, 1475.760 575.460, 1477.472 559.717 C 1478.416 551.036, 1478.922 543.240, 1478.597 542.392 C 1478.085 541.057, 1475.225 540.894, 1457.253 541.175 C 1445.839 541.354, 1428.175 541.616, 1418 541.757 M 241.714 550.581 C 241.596 550.678, 215.400 551.047, 183.500 551.403 C 151.600 551.759, 122.575 552.324, 119 552.659 C 112.815 553.239, 112.174 553.557, 105.783 559.208 C 99.480 564.781, 90.270 575.918, 85.316 583.956 C 81.502 590.144, 73 607.945, 72.994 609.757 C 72.990 610.716, 72.330 612.760, 71.527 614.301 C 69.159 618.841, 68.058 623.451, 64.555 643.500 C 61.630 660.240, 61.282 664.106, 61.625 676 C 62.156 694.395, 63.572 707.629, 66.437 721 C 67.203 724.575, 68.361 730.200, 69.009 733.500 C 69.658 736.800, 70.821 740.497, 71.594 741.715 C 72.367 742.933, 73 744.627, 73 745.478 C 73 746.330, 73.404 747.809, 73.899 748.764 C 75.934 752.697, 81 764.729, 81 765.631 C 81 767.070, 95.681 790.859, 99.433 795.500 C 101.211 797.700, 103.079 800.255, 103.583 801.178 C 106.778 807.025, 131.493 829.064, 138.753 832.539 C 140.542 833.396, 143.109 835.200, 144.457 836.548 C 145.806 837.897, 147.400 839, 148.001 839 C 148.601 839, 152.559 840.636, 156.796 842.636 C 161.033 844.636, 165.850 846.639, 167.500 847.087 C 169.150 847.534, 173.491 848.781, 177.146 849.858 C 199.509 856.445, 235.270 854.129, 254.406 844.854 C 272.626 836.024, 283.313 819.744, 281.466 803.633 C 280.822 798.009, 277.814 790, 276.347 790 C 276.010 790, 273.043 792.938, 269.753 796.529 C 261.538 805.494, 249.008 811.816, 236.829 813.143 C 214.459 815.578, 191.765 811.641, 176.912 802.747 C 174.389 801.236, 171.978 800, 171.554 800 C 170.754 800, 158.374 791.882, 154 788.490 C 145.794 782.126, 122.047 755.979, 121.983 753.239 C 121.973 752.832, 120.961 751.537, 119.733 750.361 C 118.505 749.184, 115.638 744.684, 113.361 740.361 C 111.085 736.037, 108.087 730.475, 106.698 728 C 103.374 722.074, 92.514 689.278, 91.136 681 C 87.671 660.196, 86.942 646.857, 88.623 635 C 91.067 617.766, 93.750 606.965, 97.542 599.106 C 98.894 596.303, 100 593.586, 100 593.068 C 100 591.463, 109.001 578.729, 113.360 574.167 C 119.827 567.400, 129.467 563.545, 137.638 564.460 C 139.762 564.698, 144.881 565.151, 149.013 565.466 C 155.996 566, 172.202 568.670, 181.500 570.819 C 186.760 572.035, 200.331 577.462, 206 580.616 C 208.475 581.994, 212.525 584.057, 215 585.202 C 217.475 586.347, 219.725 587.599, 220 587.985 C 220.275 588.370, 222.922 590.376, 225.882 592.443 C 228.843 594.510, 232.819 597.618, 234.718 599.350 C 243.363 607.234, 249.888 613.839, 252.898 617.750 C 257.962 624.331, 259.219 623.559, 258.595 614.250 C 257.175 593.081, 255.969 577.103, 255.521 573.500 C 255.247 571.300, 254.805 565.500, 254.539 560.611 C 254.273 555.722, 253.788 551.455, 253.463 551.129 C 252.946 550.613, 242.282 550.115, 241.714 550.581 M 1142.500 614.420 C 1134.255 616.102, 1122.501 620.523, 1116.500 624.200 C 1107.110 629.954, 1092.676 642.950, 1089.985 648.074 C 1089.284 649.408, 1087.402 652.170, 1085.802 654.211 C 1079.035 662.845, 1070.891 682.474, 1068.048 697 C 1063.940 717.993, 1063.606 721.050, 1063.681 737 C 1063.775 757.227, 1066.482 774.945, 1071.617 788.938 C 1073.546 794.197, 1075.298 799.037, 1075.509 799.692 C 1076.268 802.048, 1086.195 816.409, 1090.751 821.742 C 1096.429 828.388, 1105.027 834.636, 1115 839.362 C 1125.815 844.487, 1131.286 845.449, 1149.500 845.426 C 1164.298 845.407, 1165.989 845.213, 1172.013 842.837 C 1182.087 838.864, 1190.089 834.571, 1196.052 829.941 C 1203.270 824.337, 1215.996 810.915, 1215.998 808.905 C 1215.999 808.028, 1216.967 806.453, 1218.150 805.405 C 1220.404 803.407, 1229.233 785.455, 1232.858 775.500 C 1236.424 765.704, 1240.691 737.515, 1241.107 721 C 1241.606 701.136, 1240.038 690.219, 1233.781 670 C 1229.844 657.278, 1221.259 643.299, 1211.392 633.548 C 1202.210 624.474, 1190.685 618.591, 1174.169 614.549 C 1166.691 612.719, 1151.148 612.656, 1142.500 614.420 M 907.651 614.684 C 907.550 614.785, 887.301 615.068, 862.654 615.313 C 836.742 615.570, 817.446 616.154, 816.904 616.696 C 816.354 617.246, 816.076 628.555, 816.233 644.067 L 816.500 670.500 820.500 664.615 C 833.953 644.822, 852.086 632.292, 876.318 626.046 C 882.817 624.371, 889.513 623, 891.198 623 L 894.261 623 893.494 659.250 C 893.072 679.188, 892.625 699.100, 892.500 703.500 C 891.956 722.665, 890.036 746.788, 887.963 760.500 C 884.690 782.149, 881.598 798.866, 880.043 803.323 C 879.049 806.170, 877.253 811.425, 876.052 815 C 873.223 823.418, 869.559 830.479, 865.361 835.603 C 863.513 837.860, 862 839.976, 862 840.305 C 862 840.777, 926.733 840.596, 927.765 840.122 C 927.910 840.055, 926.897 838.313, 925.512 836.250 C 924.128 834.188, 921.834 830.761, 920.414 828.636 C 918.993 826.511, 917.181 822.277, 916.387 819.226 C 915.592 816.176, 914.327 812.290, 913.574 810.590 C 912.201 807.488, 909.986 795.977, 908.073 782 C 905.190 760.945, 904.527 746.537, 904.574 706 C 904.638 650.522, 905.450 624.984, 907.189 623.804 C 911.210 621.074, 938.962 628.764, 948.154 635.155 C 949.614 636.170, 951.360 637, 952.033 637 C 953.459 637, 958.958 641.424, 966.327 648.500 C 971.315 653.290, 975.884 659.368, 978.919 665.250 C 982.659 672.498, 983.341 667.574, 983.446 632.554 L 983.500 614.609 945.668 614.554 C 924.861 614.524, 907.753 614.583, 907.651 614.684 M 999.433 615.108 C 999.227 615.442, 1000.892 618.142, 1003.133 621.108 C 1010.031 630.235, 1017.587 647.795, 1019.156 658.350 C 1019.659 661.732, 1020.506 667.425, 1021.038 671 C 1023.375 686.707, 1023.847 695.998, 1023.474 719 C 1022.881 755.602, 1020.963 772.272, 1014.386 798 C 1010.709 812.383, 1002.557 828.180, 994.282 836.960 C 992.488 838.863, 991.390 840.790, 991.841 841.241 C 992.292 841.692, 1007.138 842.285, 1024.831 842.558 C 1049.237 842.935, 1057 842.769, 1057 841.870 C 1057 841.218, 1055.215 838.371, 1053.033 835.542 C 1037.360 815.228, 1031.044 776.294, 1034.532 721.500 C 1035.053 713.318, 1035.834 705.451, 1037.513 691.500 C 1041.103 661.661, 1051.813 633.548, 1064.842 619.768 C 1066.782 617.716, 1068.047 615.713, 1067.651 615.318 C 1066.782 614.449, 999.968 614.243, 999.433 615.108 M 759.667 616.667 C 759.509 616.824, 685.310 618.087, 668.724 618.214 C 664.188 618.249, 660.664 618.734, 660.266 619.379 C 659.890 619.988, 659.719 625.213, 659.887 630.993 C 660.055 636.772, 660.262 648.212, 660.346 656.416 C 660.520 673.287, 661.282 674.874, 665.577 667.308 C 667.078 664.664, 669.740 661.127, 671.492 659.448 C 673.245 657.769, 675.089 655.711, 675.589 654.874 C 679.845 647.761, 712.509 628.517, 715.755 631.211 C 717.492 632.653, 716.769 642.155, 714.515 647.500 C 710.309 657.479, 708.059 661.590, 701.289 671.673 C 697.005 678.053, 692.618 684.674, 691.540 686.387 C 690.462 688.099, 689.205 689.656, 688.747 689.848 C 688.289 690.039, 685.885 693.189, 683.406 696.848 C 680.927 700.506, 676.675 706.425, 673.956 710 C 671.237 713.575, 668.695 717.175, 668.307 718 C 667.919 718.825, 665.207 723.100, 662.280 727.500 C 650.698 744.909, 642.258 765.358, 638.959 784 C 637.834 790.354, 637.439 812.283, 638.420 813.870 C 638.692 814.311, 639.650 818.232, 640.548 822.585 C 641.807 828.682, 643.241 832.108, 646.792 837.500 C 649.327 841.350, 651.874 844.856, 652.451 845.292 C 653.519 846.097, 693.942 845.392, 694.781 844.553 C 695.033 844.300, 692.899 840.659, 690.038 836.460 C 687.176 832.262, 684.352 827.403, 683.761 825.663 C 683.171 823.924, 682.083 821.612, 681.344 820.527 C 680.605 819.443, 679.997 817.868, 679.994 817.027 C 679.990 816.187, 679.369 814.315, 678.614 812.867 C 674.173 804.355, 673.174 760.529, 677.085 745.750 L 678.077 742 700.789 741.907 C 713.280 741.855, 725.300 741.686, 727.500 741.531 C 729.700 741.375, 741.803 740.920, 754.396 740.520 L 777.291 739.793 776.647 742.646 C 776.293 744.216, 775.298 748.425, 774.436 752 C 773.574 755.575, 772.222 761.598, 771.431 765.384 C 770.641 769.170, 768.420 776.201, 766.497 781.008 C 764.574 785.815, 762.989 790.367, 762.975 791.124 C 762.961 791.881, 761.161 796.095, 758.975 800.489 C 756.789 804.883, 755 808.891, 755 809.397 C 755 809.902, 752.801 813.779, 750.114 818.012 C 747.426 822.245, 744.921 826.674, 744.546 827.854 C 744.172 829.034, 743.457 830, 742.958 830 C 742.459 830, 741.411 831.237, 740.628 832.750 C 739.845 834.263, 737.815 837.075, 736.118 839 C 734.421 840.925, 733.025 842.837, 733.016 843.250 C 732.992 844.373, 741.563 844.400, 773.500 843.378 C 783.950 843.044, 792.831 842.574, 793.235 842.335 C 793.640 842.096, 793.974 821.485, 793.979 796.534 C 793.983 771.582, 794.216 741.117, 794.496 728.834 C 795.849 669.523, 795.931 618.187, 794.673 617.144 C 793.678 616.318, 760.472 615.865, 759.667 616.667 M 585.633 619.701 C 585.378 619.955, 535.410 620.914, 519.849 620.963 L 508.198 621 502.349 625.431 C 492.773 632.685, 484.970 643.457, 475.857 662 C 464.667 684.771, 460.995 709.771, 463.952 743.062 C 464.969 754.518, 467.758 766.319, 471.500 775 C 472.803 778.025, 474.167 781.625, 474.531 783 C 474.894 784.375, 477.881 790.504, 481.169 796.621 C 488.633 810.511, 502.302 825.621, 515.165 834.204 C 524.310 840.306, 538.589 846.426, 547.673 848.137 C 555.386 849.589, 580.740 848.612, 588.283 846.572 C 611.467 840.302, 624.983 822.311, 620.077 804.250 C 618.765 799.418, 616.967 798.825, 614.966 802.563 C 613.194 805.874, 599.813 814.836, 594 816.606 C 586.246 818.966, 575.359 819.331, 564.718 817.588 C 556.744 816.282, 553.140 815.057, 545.218 810.958 C 532.594 804.425, 527.948 801.115, 519.786 792.839 C 509.470 782.378, 499.100 766.050, 492.577 749.997 C 488.844 740.811, 483.150 712.658, 484.377 709.459 C 485.592 706.294, 524.726 708.606, 535.500 712.480 C 550.014 717.699, 555.985 721.052, 563.263 728.067 C 568.211 732.836, 571 733.746, 571 730.592 C 571 729.783, 572.573 726.057, 574.495 722.311 C 576.417 718.565, 577.992 714.949, 577.995 714.275 C 577.998 713.601, 579.350 710.103, 581 706.500 C 582.650 702.897, 584 699.478, 584 698.900 C 584 697.867, 494.438 698.511, 489.229 699.582 C 487.981 699.838, 486.074 699.575, 484.992 698.996 C 483.015 697.938, 482.905 695.200, 484.509 687 C 484.778 685.625, 485.192 682.925, 485.430 681 C 487.449 664.637, 499.879 641.012, 509.756 634.765 C 515.605 631.066, 517.567 630.633, 527.826 630.780 C 541.669 630.977, 556.864 634.192, 568.965 639.485 C 584.453 646.258, 594.496 653.792, 605.296 666.738 C 608.158 670.169, 611.063 672.982, 611.750 672.988 C 613.421 673.004, 613.614 661.687, 612.408 634.500 C 612.066 626.800, 611.572 620.275, 611.309 620 C 610.867 619.538, 586.085 619.250, 585.633 619.701 M 382.773 622.560 C 382.605 622.728, 361.817 623.096, 336.576 623.379 C 288.076 623.921, 288.551 623.870, 289.492 628.492 C 290.181 631.875, 291.970 652.902, 292.513 664 C 292.796 669.775, 293.227 676.075, 293.472 678 C 293.716 679.925, 294.208 685.550, 294.564 690.500 C 295.797 707.656, 296.916 722.407, 297.522 729.500 C 297.757 732.250, 298.215 739.128, 298.539 744.784 C 298.863 750.440, 299.327 756.065, 299.571 757.284 C 299.815 758.503, 300.244 763.775, 300.523 769 C 300.802 774.225, 301.253 780.300, 301.524 782.500 C 301.796 784.700, 302.463 793.025, 303.006 801 C 303.549 808.975, 304.267 819.100, 304.602 823.500 C 304.936 827.900, 305.500 835.775, 305.855 841 L 306.500 850.500 336.750 850.555 C 355.080 850.589, 367 850.239, 367 849.667 C 367 849.148, 365.313 846.793, 363.250 844.434 C 356.899 837.168, 353 831.846, 353 830.442 C 353 829.703, 352.422 828.740, 351.716 828.300 C 351.010 827.860, 349.088 825.250, 347.446 822.500 C 345.804 819.750, 343.912 816.600, 343.241 815.500 C 338.657 807.984, 331.241 792.504, 326.582 780.727 C 321.676 768.327, 312.890 735.574, 311.379 724.056 C 310.554 717.762, 309.651 712.245, 309.374 711.797 C 309.097 711.349, 308.674 708.849, 308.433 706.241 C 308.192 703.633, 307.314 696.595, 306.481 690.600 C 305.649 684.604, 305.249 679.429, 305.593 679.100 C 305.937 678.770, 306.957 679.606, 307.859 680.959 C 308.762 682.311, 310.590 684.718, 311.922 686.308 C 314.260 689.098, 337.828 710.295, 346.962 717.822 C 356.889 726.004, 382.088 752.846, 385.418 758.785 C 385.923 759.686, 387.833 762.384, 389.662 764.780 C 391.491 767.176, 394.632 772.368, 396.643 776.318 C 398.654 780.268, 400.899 784.655, 401.631 786.067 C 402.364 787.478, 403.627 792.102, 404.438 796.342 C 405.250 800.582, 406.154 804.440, 406.448 804.916 C 407.866 807.210, 406.791 840.145, 405.117 845.737 C 404.513 847.752, 404.502 849.192, 405.088 849.555 C 406.293 850.299, 446.304 850.135, 451.114 849.366 C 454.693 848.793, 454.750 848.710, 455.319 843.199 C 456.273 833.958, 454.033 819.416, 450.414 811.349 C 449.636 809.616, 449 807.634, 449 806.945 C 449 805.811, 445.571 799.545, 439.686 789.926 C 432.452 778.101, 411.797 757.556, 392.006 742.500 C 389.114 740.300, 385.435 737.431, 383.831 736.125 C 379.681 732.746, 359.533 717.720, 357.338 716.367 C 353.917 714.259, 356.887 713.738, 365.070 715.011 C 376.114 716.729, 397.053 715.689, 407.019 712.928 C 414.955 710.728, 425.047 704.778, 430.828 698.890 C 434.980 694.661, 440.329 685.014, 441.997 678.747 C 443.996 671.233, 442.898 654.622, 440.031 649 C 435.377 639.875, 424.060 630.386, 414.269 627.398 C 407.028 625.188, 383.725 621.609, 382.773 622.560 M 745.041 626.248 C 734.008 626.792, 728.310 627.462, 727.760 628.280 C 727.308 628.951, 727.099 631.750, 727.295 634.500 C 727.861 642.450, 726.093 651.545, 722.411 659.626 C 720.535 663.743, 719 667.496, 719 667.967 C 719 668.985, 707.438 687.356, 704.234 691.430 C 703.005 692.992, 702 694.700, 702 695.226 C 702 695.752, 700.427 698.020, 698.505 700.265 C 696.582 702.511, 694.068 706.293, 692.918 708.669 C 691.768 711.045, 690.387 713.261, 689.850 713.593 C 688.975 714.133, 680 732.447, 680 733.691 C 680 733.970, 688.663 733.926, 699.250 733.594 C 709.837 733.261, 729.975 732.766, 744 732.492 C 758.025 732.218, 771.595 731.734, 774.157 731.416 L 778.813 730.838 779.392 724.169 C 779.710 720.501, 780.489 711.454, 781.123 704.064 C 781.757 696.674, 782.326 675.974, 782.388 658.064 L 782.500 625.500 772 625.468 C 766.225 625.451, 754.093 625.801, 745.041 626.248 M 1133.500 630.737 C 1120.820 632.530, 1113.957 635.670, 1106.360 643.152 C 1100.354 649.068, 1094.105 660.830, 1091.035 672 C 1088.320 681.875, 1087.162 709.861, 1088.961 722.097 C 1089.640 726.719, 1090.355 731.625, 1090.550 733 C 1090.744 734.375, 1091.378 737.750, 1091.958 740.500 C 1092.537 743.250, 1093.421 747.776, 1093.922 750.557 C 1094.423 753.338, 1096.373 759.638, 1098.256 764.557 C 1100.138 769.476, 1102.423 775.525, 1103.333 778 C 1105.672 784.363, 1113.917 797.903, 1120.180 805.668 C 1126.692 813.741, 1134.584 820.274, 1143.904 825.308 C 1149.824 828.506, 1152.436 829.270, 1160.182 830.071 C 1173.751 831.475, 1182.005 829.605, 1191.104 823.064 C 1195.261 820.075, 1197.763 817.195, 1203.361 808.951 C 1209.242 800.291, 1213.652 783.418, 1214.586 766 C 1215.145 755.594, 1213.613 737.669, 1210.527 718.500 C 1209.302 710.886, 1204.360 695.429, 1199.660 684.511 C 1185.926 652.601, 1165.500 633.700, 1142 631.157 C 1138.425 630.770, 1134.600 630.581, 1133.500 630.737 M 305.500 632.783 C 304.400 633.009, 303.173 633.500, 302.773 633.874 C 302.373 634.248, 302.675 640.227, 303.443 647.160 C 305.056 661.717, 306.490 665.243, 314.764 675 C 332.239 695.606, 354.998 708.097, 375.051 708.086 C 382.513 708.082, 384.443 707.688, 390.217 704.986 C 395.573 702.479, 397.503 700.901, 400.356 696.695 C 405.754 688.735, 407.500 681.336, 406.182 672.010 C 404.805 662.274, 404.196 660.779, 398.564 653.292 C 390.997 643.234, 383.543 638.281, 370.713 634.787 C 363.189 632.737, 360.194 632.542, 335 632.461 C 319.875 632.412, 306.600 632.557, 305.500 632.783" stroke="none" fill="white" fill-rule="evenodd"/>
</svg>