<svg width="428.07" height="537.51" xmlns="http://www.w3.org/2000/svg" viewBox="213.45 87.31 428.07 537.51">
<path d="M429.05,624.82l-215.6-268.75L429.05,87.31l212.47,268.75-212.47,268.75ZM221.32,356.07l207.69,258.89,204.68-258.89L429.02,97.18l-207.69,258.89Z" fill="#E8A090"/>
<path transform="translate(319.0 466.07) scale(0.831)" d="M177.93-140.43Q215.63-131.64 230.86-119.14Q252.73-101.37 252.73-73.05Q252.73-43.16 228.71-23.63Q199.22 0 142.97 0L8.40 0L8.40-7.23Q26.76-7.23 33.30-10.64Q39.84-14.06 42.48-19.53Q45.12-25 45.12-46.48L45.12-218.36Q45.12-239.84 42.48-245.41Q39.84-250.98 33.20-254.30Q26.56-257.62 8.40-257.62L8.40-264.84L135.35-264.84Q180.86-264.84 199.80-256.74Q218.75-248.63 229.69-232.52Q240.63-216.41 240.63-198.24Q240.63-179.10 226.76-164.16Q212.89-149.22 177.93-140.43M106.84-250L106.84-145.70Q134.57-145.70 147.75-151.95Q160.94-158.20 167.97-169.53Q175-180.86 175-198.44Q175-216.02 168.07-227.25Q161.13-238.48 148.24-244.34Q135.35-250.20 106.84-250M106.84-130.47L106.84-45.51L106.64-35.74Q106.64-25.20 112.01-19.82Q117.38-14.45 127.93-14.45Q143.55-14.45 156.74-21.39Q169.92-28.32 176.95-41.50Q183.98-54.69 183.98-70.90Q183.98-89.45 175.39-104.20Q166.80-118.95 151.76-124.80Q136.72-130.66 106.84-130.47" fill="#231f20"/>
</svg>
