<svg width="1142.59" height="89.28" xmlns="http://www.w3.org/2000/svg" viewBox="-7.9 -77.72 1142.59 89.28">
<path d="M44.48-35.11Q53.91-32.91 57.71-29.79Q63.18-25.34 63.18-18.26Q63.18-10.79 57.18-5.91Q49.80 0 35.74 0L2.10 0L2.10-1.81Q6.69-1.81 8.33-2.66Q9.96-3.52 10.62-4.88Q11.28-6.25 11.28-11.62L11.28-54.59Q11.28-59.96 10.62-61.35Q9.96-62.74 8.30-63.57Q6.64-64.40 2.10-64.40L2.10-66.21L33.84-66.21Q45.21-66.21 49.95-64.18Q54.69-62.16 57.42-58.13Q60.16-54.10 60.16-49.56Q60.16-44.78 56.69-41.04Q53.22-37.30 44.48-35.11M26.71-62.50L26.71-36.43Q33.64-36.43 36.94-37.99Q40.23-39.55 41.99-42.38Q43.75-45.21 43.75-49.61Q43.75-54 42.02-56.81Q40.28-59.62 37.06-61.08Q33.84-62.55 26.71-62.50M26.71-32.62L26.71-11.38L26.66-8.94Q26.66-6.30 28-4.96Q29.35-3.61 31.98-3.61Q35.89-3.61 39.18-5.35Q42.48-7.08 44.24-10.38Q46-13.67 46-17.72Q46-22.36 43.85-26.05Q41.70-29.74 37.94-31.20Q34.18-32.67 26.71-32.62M108.32-67.14Q124.14-67.72 134.03-57.91Q143.92-48.10 143.92-33.35Q143.92-20.75 136.54-11.18Q126.78 1.51 108.96 1.51Q91.09 1.51 81.32-10.60Q73.61-20.17 73.61-33.30Q73.61-48.05 83.64-57.89Q93.67-67.72 108.32-67.14M108.91-64.01Q99.83-64.01 95.09-54.74Q91.23-47.12 91.23-32.86Q91.23-15.92 97.19-7.81Q101.34-2.15 108.81-2.15Q113.84-2.15 117.21-4.59Q121.51-7.71 123.90-14.58Q126.29-21.44 126.29-32.47Q126.29-45.61 123.85-52.12Q121.41-58.64 117.62-61.33Q113.84-64.01 108.91-64.01M179.54-66.21L198.14-22.56L216.11-66.21L243.06-66.21L243.06-64.40L240.91-64.40Q237.98-64.40 236.22-63.38Q235-62.70 234.27-61.08Q233.73-59.91 233.73-54.98L233.73-11.33Q233.73-6.25 234.27-4.98Q234.81-3.71 236.47-2.76Q238.13-1.81 240.91-1.81L243.06-1.81L243.06 0L208.49 0L208.49-1.81L210.64-1.81Q213.57-1.81 215.33-2.83Q216.55-3.52 217.28-5.18Q217.82-6.35 217.82-11.33L217.82-60.40L192.43 0L191.25 0L165.47-59.96L165.47-13.33Q165.47-8.45 165.72-7.32Q166.35-4.88 168.48-3.34Q170.60-1.81 175.14-1.81L175.14 0L152.48 0L152.48-1.81L153.17-1.81Q155.37-1.76 157.27-2.51Q159.17-3.27 160.15-4.54Q161.13-5.81 161.66-8.11Q161.76-8.64 161.76-13.09L161.76-54.98Q161.76-60.01 161.22-61.25Q160.69-62.50 159.03-63.45Q157.37-64.40 154.58-64.40L152.48-64.40L152.48-66.21L179.54-66.21M292.35-35.11Q301.77-32.91 305.58-29.79Q311.05-25.34 311.05-18.26Q311.05-10.79 305.04-5.91Q297.67 0 283.61 0L249.97 0L249.97-1.81Q254.56-1.81 256.19-2.66Q257.83-3.52 258.49-4.88Q259.15-6.25 259.15-11.62L259.15-54.59Q259.15-59.96 258.49-61.35Q257.83-62.74 256.17-63.57Q254.51-64.40 249.97-64.40L249.97-66.21L281.71-66.21Q293.08-66.21 297.82-64.18Q302.55-62.16 305.29-58.13Q308.02-54.10 308.02-49.56Q308.02-44.78 304.56-41.04Q301.09-37.30 292.35-35.11M274.58-62.50L274.58-36.43Q281.51-36.43 284.81-37.99Q288.10-39.55 289.86-42.38Q291.62-45.21 291.62-49.61Q291.62-54 289.88-56.81Q288.15-59.62 284.93-61.08Q281.71-62.55 274.58-62.50M274.58-32.62L274.58-11.38L274.53-8.94Q274.53-6.30 275.87-4.96Q277.21-3.61 279.85-3.61Q283.76-3.61 287.05-5.35Q290.35-7.08 292.11-10.38Q293.86-13.67 293.86-17.72Q293.86-22.36 291.71-26.05Q289.57-29.74 285.81-31.20Q282.05-32.67 274.58-32.62M363.07-67.72L364.54-67.72L365.08-45.65L363.07-45.65Q361.66-53.96 356.12-59.01Q350.57-64.06 344.13-64.06Q339.15-64.06 336.24-61.40Q333.34-58.74 333.34-55.27Q333.34-53.08 334.36-51.37Q335.78-49.07 338.90-46.83Q341.20-45.21 349.50-41.11Q361.12-35.40 365.17-30.32Q369.18-25.24 369.18-18.70Q369.18-10.40 362.71-4.42Q356.24 1.56 346.28 1.56Q343.15 1.56 340.37 0.93Q337.59 0.29 333.39-1.46Q331.04-2.44 329.53-2.44Q328.26-2.44 326.84-1.46Q325.43-0.49 324.55 1.51L322.74 1.51L322.74-23.49L324.55-23.49Q326.70-12.94 332.83-7.40Q338.95-1.86 346.03-1.86Q351.50-1.86 354.75-4.83Q358-7.81 358-11.77Q358-14.11 356.75-16.31Q355.51-18.51 352.97-20.48Q350.43-22.46 343.98-25.63Q334.95-30.08 330.99-33.20Q327.04-36.33 324.92-40.19Q322.79-44.04 322.79-48.68Q322.79-56.59 328.60-62.16Q334.41-67.72 343.25-67.72Q346.47-67.72 349.50-66.94Q351.79-66.36 355.09-64.77Q358.39-63.18 359.71-63.18Q360.97-63.18 361.71-63.96Q362.44-64.75 363.07-67.72M426.91-31.84L403.53-31.84L403.53-11.33Q403.53-6.25 404.09-4.98Q404.65-3.71 406.28-2.76Q407.92-1.81 410.70-1.81L412.90-1.81L412.90 0L378.28 0L378.28-1.81L380.48-1.81Q383.36-1.81 385.12-2.83Q386.39-3.52 387.07-5.18Q387.61-6.35 387.61-11.33L387.61-54.88Q387.61-59.96 387.07-61.23Q386.53-62.50 384.90-63.45Q383.26-64.40 380.48-64.40L378.28-64.40L378.28-66.21L412.90-66.21L412.90-64.40L410.70-64.40Q407.82-64.40 406.06-63.38Q404.79-62.70 404.06-61.04Q403.53-59.86 403.53-54.88L403.53-36.13L426.91-36.13L426.91-54.88Q426.91-59.96 426.38-61.23Q425.84-62.50 424.18-63.45Q422.52-64.40 419.74-64.40L417.59-64.40L417.59-66.21L452.16-66.21L452.16-64.40L450.01-64.40Q447.08-64.40 445.37-63.38Q444.10-62.70 443.37-61.04Q442.83-59.86 442.83-54.88L442.83-11.33Q442.83-6.25 443.37-4.98Q443.91-3.71 445.57-2.76Q447.23-1.81 450.01-1.81L452.16-1.81L452.16 0L417.59 0L417.59-1.81L419.74-1.81Q422.67-1.81 424.38-2.83Q425.64-3.52 426.38-5.18Q426.91-6.35 426.91-11.33L426.91-31.84M491.05-62.40L484.21-62.40L484.21-35.45L485.53-35.45Q491.83-35.45 494.66-39.40Q497.49-43.36 498.27-51.07L500.13-51.07L500.13-16.41L498.27-16.41Q497.69-22.07 495.81-25.68Q493.93-29.30 491.44-30.54Q488.95-31.79 484.21-31.79L484.21-13.13Q484.21-7.67 484.67-6.45Q485.14-5.22 486.41-4.44Q487.68-3.66 490.51-3.66L494.46-3.66Q503.74-3.66 509.33-7.96Q514.92-12.26 517.37-21.04L519.17-21.04L516.19 0L458.97 0L458.97-1.81L461.16-1.81Q464.04-1.81 465.80-2.83Q467.07-3.52 467.76-5.18Q468.29-6.35 468.29-11.33L468.29-54.88Q468.29-59.37 468.05-60.40Q467.56-62.11 466.24-63.04Q464.39-64.40 461.16-64.40L458.97-64.40L458.97-66.21L514.39-66.21L514.39-46.63L512.53-46.63Q511.12-53.81 508.55-56.93Q505.99-60.06 501.30-61.52Q498.57-62.40 491.05-62.40M587.80-23.24L589.80-23.24L587.31 0L528.52 0L528.52-1.81L530.72-1.81Q533.60-1.81 535.36-2.83Q536.63-3.52 537.31-5.18Q537.85-6.35 537.85-11.33L537.85-54.88Q537.85-59.96 537.31-61.23Q536.77-62.50 535.14-63.45Q533.50-64.40 530.72-64.40L528.52-64.40L528.52-66.21L563.82-66.21L563.82-64.40L560.94-64.40Q558.06-64.40 556.30-63.38Q555.03-62.70 554.30-61.04Q553.76-59.86 553.76-54.88L553.76-12.70Q553.76-7.62 554.35-6.23Q554.94-4.83 556.64-4.15Q557.87-3.71 562.55-3.71L568.07-3.71Q573.34-3.71 576.86-5.57Q580.38-7.42 582.94-11.43Q585.50-15.43 587.80-23.24M657.50-23.24L659.50-23.24L657.01 0L598.22 0L598.22-1.81L600.42-1.81Q603.30-1.81 605.05-2.83Q606.32-3.52 607.01-5.18Q607.54-6.35 607.54-11.33L607.54-54.88Q607.54-59.96 607.01-61.23Q606.47-62.50 604.83-63.45Q603.20-64.40 600.42-64.40L598.22-64.40L598.22-66.21L633.52-66.21L633.52-64.40L630.64-64.40Q627.76-64.40 626-63.38Q624.73-62.70 624-61.04Q623.46-59.86 623.46-54.88L623.46-12.70Q623.46-7.62 624.05-6.23Q624.63-4.83 626.34-4.15Q627.56-3.71 632.25-3.71L637.77-3.71Q643.04-3.71 646.56-5.57Q650.07-7.42 652.64-11.43Q655.20-15.43 657.50-23.24M738.54-35.11Q747.97-32.91 751.78-29.79Q757.25-25.34 757.25-18.26Q757.25-10.79 751.24-5.91Q743.87 0 729.80 0L696.16 0L696.16-1.81Q700.75-1.81 702.39-2.66Q704.02-3.52 704.68-4.88Q705.34-6.25 705.34-11.62L705.34-54.59Q705.34-59.96 704.68-61.35Q704.02-62.74 702.36-63.57Q700.70-64.40 696.16-64.40L696.16-66.21L727.90-66.21Q739.28-66.21 744.01-64.18Q748.75-62.16 751.48-58.13Q754.22-54.10 754.22-49.56Q754.22-44.78 750.75-41.04Q747.29-37.30 738.54-35.11M720.77-62.50L720.77-36.43Q727.71-36.43 731-37.99Q734.30-39.55 736.05-42.38Q737.81-45.21 737.81-49.61Q737.81-54 736.08-56.81Q734.35-59.62 731.12-61.08Q727.90-62.55 720.77-62.50M720.77-32.62L720.77-11.38L720.72-8.94Q720.72-6.30 722.07-4.96Q723.41-3.61 726.04-3.61Q729.95-3.61 733.25-5.35Q736.54-7.08 738.30-10.38Q740.06-13.67 740.06-17.72Q740.06-22.36 737.91-26.05Q735.76-29.74 732-31.20Q728.24-32.67 720.77-32.62M797.84-62.40L791.01-62.40L791.01-35.45L792.33-35.45Q798.63-35.45 801.46-39.40Q804.29-43.36 805.07-51.07L806.93-51.07L806.93-16.41L805.07-16.41Q804.48-22.07 802.60-25.68Q800.72-29.30 798.23-30.54Q795.74-31.79 791.01-31.79L791.01-13.13Q791.01-7.67 791.47-6.45Q791.94-5.22 793.21-4.44Q794.47-3.66 797.31-3.66L801.26-3.66Q810.54-3.66 816.13-7.96Q821.72-12.26 824.16-21.04L825.97-21.04L822.99 0L765.76 0L765.76-1.81L767.96-1.81Q770.84-1.81 772.60-2.83Q773.87-3.52 774.55-5.18Q775.09-6.35 775.09-11.33L775.09-54.88Q775.09-59.37 774.85-60.40Q774.36-62.11 773.04-63.04Q771.18-64.40 767.96-64.40L765.76-64.40L765.76-66.21L821.18-66.21L821.18-46.63L819.33-46.63Q817.91-53.81 815.35-56.93Q812.79-60.06 808.10-61.52Q805.36-62.40 797.84-62.40M878.58-10.60L875.06-18.85L851.67-18.85L848.89-12.40Q847.52-9.18 847.52-7.08Q847.52-4.30 849.77-2.98Q851.09-2.20 856.26-1.81L856.26 0L834.24 0L834.24-1.81Q837.81-2.34 840.10-4.76Q842.40-7.18 845.77-14.75L869.45-67.58L870.38-67.58L894.25-13.28Q897.67-5.57 899.87-3.56Q901.53-2.05 904.55-1.81L904.55 0L872.52 0L872.52-1.81L873.84-1.81Q877.70-1.81 879.26-2.88Q880.34-3.66 880.34-5.13Q880.34-6.01 880.04-6.93Q879.95-7.37 878.58-10.60M853.38-22.46L873.40-22.46L863.54-45.26L853.38-22.46M911.02-64.40L911.02-66.21L945.20-66.21L945.20-64.40L943.49-64.40Q939.63-64.40 938.19-63.60Q936.75-62.79 936.14-61.38Q935.53-59.96 935.53-54.30L935.53-21.87Q935.53-12.99 936.88-10.11Q938.22-7.23 941.29-5.32Q944.37-3.42 949.06-3.42Q954.43-3.42 958.21-5.83Q962-8.25 963.88-12.50Q965.76-16.75 965.76-27.29L965.76-54.30Q965.76-58.74 964.83-60.64Q963.90-62.55 962.49-63.28Q960.29-64.40 956.29-64.40L956.29-66.21L979.19-66.21L979.19-64.40L977.82-64.40Q975.04-64.40 973.18-63.28Q971.32-62.16 970.49-59.91Q969.86-58.35 969.86-54.30L969.86-29.15Q969.86-17.48 968.32-12.30Q966.78-7.13 960.83-2.78Q954.87 1.56 944.57 1.56Q935.97 1.56 931.29-0.73Q924.89-3.86 922.25-8.74Q919.62-13.62 919.62-21.87L919.62-54.30Q919.62-60.01 918.98-61.40Q918.35-62.79 916.78-63.62Q915.22-64.45 911.02-64.40M987.51-66.21L1046.98-66.21L1046.98-48.29L1045.22-48.29Q1043.66-54.49 1041.76-57.20Q1039.85-59.91 1036.53-61.52Q1034.68-62.40 1030.04-62.40L1025.11-62.40L1025.11-11.33Q1025.11-6.25 1025.67-4.98Q1026.23-3.71 1027.86-2.76Q1029.50-1.81 1032.33-1.81L1034.53-1.81L1034.53 0L999.86 0L999.86-1.81L1002.06-1.81Q1004.94-1.81 1006.70-2.83Q1007.97-3.52 1008.70-5.18Q1009.24-6.35 1009.24-11.33L1009.24-62.40L1004.45-62.40Q997.76-62.40 994.73-59.57Q990.49-55.62 989.36-48.29L987.51-48.29L987.51-66.21M1104.47-66.21L1124.69-66.21L1124.69-64.40Q1121.42-63.96 1119.66-62.50Q1117.22-60.45 1111.94-51.32L1097.59-27.34L1097.59-11.33Q1097.59-6.20 1098.13-4.96Q1098.66-3.71 1100.25-2.76Q1101.84-1.81 1104.47-1.81L1108.18-1.81L1108.18 0L1071.03 0L1071.03-1.81L1074.49-1.81Q1077.42-1.81 1079.13-2.83Q1080.40-3.52 1081.13-5.18Q1081.67-6.35 1081.67-11.33L1081.67-24.61L1066.09-52.98Q1061.46-61.38 1059.55-62.87Q1057.65-64.36 1054.47-64.40L1054.47-66.21L1086.21-66.21L1086.21-64.40L1084.79-64.40Q1081.91-64.40 1080.77-63.57Q1079.62-62.74 1079.62-61.82Q1079.62-60.06 1083.53-52.98L1095.49-31.05L1107.40-51.03Q1111.85-58.35 1111.85-60.74Q1111.85-62.06 1110.58-62.94Q1108.92-64.16 1104.47-64.40" fill="#231f20"/>
</svg>
