<svg width="545.1023559570312" height="869.1951293945312" xmlns="http://www.w3.org/2000/svg"  viewBox="20.188823699951172 36 545.1023559570312 869.1951293945312" version="1.1">
	<path fill-opacity="0.569" d="M 553.233 45.617 C 543.363 55.918, 531.866 76.870, 530.474 87.091 C 529.122 97.024, 528.358 98.074, 518.748 103.208 C 506.885 109.546, 500.637 119.753, 496.505 139.549 C 492.713 157.713, 491.924 158.596, 484.419 153.077 C 479.277 149.295, 467.316 143.349, 452.392 137.153 C 426.924 126.581, 421.758 123.731, 415.898 117.024 C 405.519 105.143, 395.853 104.608, 384.271 115.274 C 368.829 129.495, 343.603 139.797, 312.507 144.579 C 270.597 151.024, 250.033 162.122, 235.848 185.950 C 229.308 196.936, 215.795 209.156, 199.822 218.529 C 182.547 228.666, 180.536 230.584, 175.212 242 C 171.338 250.306, 169.500 252.820, 160.591 262 C 146.654 276.362, 138.675 288.992, 134.528 303.254 C 132.727 309.451, 130.174 313.609, 123.047 321.952 C 117.063 328.958, 107.538 343.202, 102.150 353.203 C 97.623 361.606, 96.812 368.200, 99.099 378 C 101.400 387.855, 106.070 416.892, 106.963 426.895 C 107.892 437.294, 108.691 440.699, 112.906 452.225 C 116.049 460.819, 115.775 461.978, 108.750 469.808 C 105.312 473.640, 99.652 480.437, 96.171 484.913 C 91.010 491.550, 88.704 493.623, 83.671 496.156 C 78.920 498.546, 74.163 502.636, 63 513.927 C 38.809 538.395, 29.043 558.049, 29.006 582.345 C 29.003 584.459, 28.036 589.363, 26.858 593.242 C 24.873 599.775, 24.802 601.001, 25.893 609.874 C 27.293 621.270, 28.909 624.406, 37.294 632 C 46.582 640.412, 53.321 651.323, 52.580 656.750 C 50.508 671.930, 49.340 669.147, 62.905 681.349 L 67.185 685.198 66.479 696.490 L 65.774 707.783 69.137 711.380 C 70.987 713.358, 76.550 717.164, 81.500 719.838 C 86.450 722.511, 95.840 728.405, 102.367 732.935 C 115.531 742.071, 118.476 743.524, 132.688 747.890 C 150.456 753.348, 163.256 755.864, 179.126 757.015 C 200.586 758.572, 201 758.653, 201 761.290 C 201 765.266, 193.128 775.539, 188.274 777.898 C 181.912 780.988, 182.740 784.892, 190.079 786.416 C 195.582 787.560, 196.557 797.287, 192.350 809.075 C 187.574 822.456, 188.642 837.793, 195.556 855.139 C 199.350 864.657, 199.777 869.364, 197.460 876.162 C 196.394 879.293, 196.010 883.572, 196.210 890.090 L 196.500 899.500 326.579 899.754 L 456.658 900.007 459.764 895.254 C 461.471 892.639, 465.486 887.560, 468.684 883.966 C 474.682 877.228, 481.671 868.496, 527.483 810.500 C 542.254 791.800, 555.614 775.129, 557.170 773.452 L 560 770.405 560 405.702 C 560 127.655, 559.722 41, 558.829 41 C 558.184 41, 555.666 43.078, 553.233 45.617 M 554.845 862.750 C 552.410 865.362, 548.892 869.750, 547.027 872.500 C 545.163 875.250, 541.309 880.200, 538.464 883.500 C 532.479 890.442, 527 897.922, 527 899.150 C 527 899.618, 534.425 900, 543.500 900 L 560 900 560 879 C 560 867.450, 559.837 858, 559.637 858 C 559.437 858, 557.281 860.138, 554.845 862.750" stroke="none" fill="#E8A090" fill-rule="evenodd"/>
	<path fill-opacity="0.327" d="M 555.190 45.932 C 544.683 56.129, 533.552 76.866, 531.806 89.500 C 530.658 97.798, 529.889 98.783, 520.539 103.914 C 507.421 111.114, 501.983 120.025, 497.534 141.616 C 493.690 160.274, 493.081 160.801, 483.177 154.041 C 477.041 149.852, 466.275 144.644, 449 137.506 C 425.546 127.815, 418.598 123.813, 413.409 117.009 C 405.320 106.402, 395.987 106.692, 383.571 117.936 C 369.721 130.478, 346.961 140.240, 320.500 144.986 C 269.089 154.208, 251.816 162.796, 238 186.007 C 230.380 198.809, 218.277 209.975, 201.661 219.533 C 183.320 230.084, 182.773 230.604, 176.515 243.425 C 171.777 253.132, 170.214 255.339, 164.503 260.385 C 153.361 270.227, 137 294.355, 137 300.943 C 137 304.751, 132.024 313.962, 126.379 320.605 C 118.207 330.221, 109.602 343.087, 104.191 353.782 C 99.465 363.120, 98.880 368.570, 101.429 379.500 C 102.198 382.800, 103.547 390.390, 104.427 396.366 C 105.306 402.343, 106.266 407.621, 106.559 408.096 C 106.853 408.571, 107.722 415.536, 108.490 423.574 C 109.639 435.590, 110.551 440.081, 113.620 448.844 C 118.194 461.904, 118.061 462.618, 109.244 472.298 C 105.535 476.370, 99.800 483.031, 96.500 487.101 C 91.640 493.094, 89.203 495.146, 83.677 497.899 C 78.884 500.287, 75.611 502.816, 72.677 506.399 C 70.380 509.205, 64.371 515.550, 59.325 520.500 C 41.148 538.330, 33.203 554.789, 31.087 579 C 30.582 584.775, 29.456 591.173, 28.584 593.218 C 26.633 597.796, 26.607 603.109, 28.485 613.500 C 29.280 617.900, 29.946 621.649, 29.965 621.832 C 29.984 622.015, 33.782 626.096, 38.405 630.901 C 43.027 635.706, 48.691 642.531, 50.990 646.069 C 55.454 652.934, 55.428 652.729, 53.394 665.221 C 52.728 669.312, 53.589 670.449, 63.268 678.273 C 68.874 682.804, 70.583 687.511, 69.045 694.182 C 66.399 705.652, 68.579 709.590, 81.644 716.944 C 85.965 719.376, 91.525 722.803, 94 724.560 C 96.475 726.316, 100.975 728.981, 104 730.482 C 107.025 731.983, 110.850 734.489, 112.500 736.051 C 117.714 740.988, 129.692 745.498, 155 752.051 C 164.348 754.471, 196.463 756.411, 200.858 754.821 C 202.155 754.351, 204.845 752.625, 206.836 750.984 C 210.789 747.725, 214.717 747.099, 215.667 749.575 C 216.672 752.193, 214.101 758.842, 211.354 760.729 C 198.451 769.593, 197 772.545, 197 789.929 C 197 802.409, 196.711 804.816, 194.385 811.729 C 190.329 823.786, 191.165 834.881, 197.556 853.771 L 202.383 868.043 200.176 877.271 C 198.032 886.230, 197.368 895.189, 198.607 898.418 C 199.434 900.574, 456 900.878, 456 898.723 C 456 898.021, 458.813 893.997, 462.250 889.781 C 479.987 868.028, 502.381 840.038, 526.478 809.500 C 541.234 790.800, 554.814 773.905, 556.655 771.956 L 560.003 768.413 559.751 405.081 L 559.500 41.749 555.190 45.932 M 493.501 439.796 C 490.800 444.231, 487.298 448.546, 485.377 449.805 C 481.850 452.117, 481.300 453.823, 483.035 457.066 C 484.943 460.630, 487.933 459.434, 490.075 454.250 C 491.154 451.637, 493.551 446.575, 495.403 443 C 502.184 429.906, 500.871 427.693, 493.501 439.796 M 481.887 489.890 C 479.928 491.477, 479.737 492.129, 480.650 494.133 C 481.621 496.265, 481.496 508.629, 480.473 511.750 C 479.627 514.328, 476.269 513.095, 475.645 509.976 C 474.535 504.423, 468.500 504.958, 468.500 510.609 C 468.500 512.946, 468.979 513.557, 471 513.799 C 475.975 514.394, 476.480 514.904, 474.199 517.029 C 471.462 519.579, 469.373 519.534, 468.687 516.910 C 468.193 515.022, 465.063 514.848, 463.107 516.600 C 462.159 517.449, 465.455 520, 467.500 520 C 468.740 520, 470.340 520.705, 471.055 521.566 C 473.106 524.037, 477.825 526.168, 487 528.767 C 504.039 533.593, 506.998 532.899, 511.850 522.939 C 514.008 518.511, 515.522 516.911, 520 514.332 C 530.276 508.412, 531.500 507.471, 531.500 505.493 C 531.500 502.852, 528.939 502.502, 520.815 504.035 C 512.854 505.537, 507.945 504.178, 501.401 498.662 C 492.997 491.579, 484.512 487.765, 481.887 489.890 M 467.557 494.937 C 465.588 497.112, 466.214 499, 468.904 499 C 470.582 499, 472.788 497.096, 474.407 494.250 C 475.600 492.152, 469.526 492.762, 467.557 494.937 M 498.500 512.660 C 486.075 514.154, 483.493 519.902, 494.505 521.553 C 503.478 522.899, 510.851 519.526, 509.624 514.638 C 508.932 511.880, 507.341 511.598, 498.500 512.660 M 449.244 516.250 C 449.724 517.709, 458 518.573, 458 517.164 C 458 515.884, 455.482 515, 451.835 515 C 449.881 515, 448.977 515.436, 449.244 516.250 M 497.325 631.584 C 494.129 634.780, 495.894 637.400, 501.243 637.400 C 508.135 637.400, 510.407 633.807, 505.535 630.615 C 502.116 628.375, 500.323 628.586, 497.325 631.584 M 554.744 865.843 C 552.252 868.506, 549.443 872.219, 548.501 874.093 C 547.559 875.967, 544.426 879.975, 541.539 883 C 535.832 888.978, 529 897.775, 529 899.144 C 529 899.615, 535.975 900, 544.500 900 L 560 900 560 880.500 C 560 869.775, 559.837 861, 559.637 861 C 559.437 861, 557.235 863.179, 554.744 865.843" stroke="none" fill="#E8A090" fill-rule="evenodd"/>
	<path fill-opacity="0.500" d="M 555.327 48.250 C 544.155 60.094, 533.825 80.571, 533.610 91.300 C 533.451 99.176, 533.481 99.140, 522.725 104.607 C 508.458 111.858, 502.993 120.739, 498.519 143.941 C 495.122 161.562, 492.867 163.650, 484.456 156.965 C 480.125 153.523, 472.260 149.595, 453.500 141.504 C 419.761 126.953, 417.947 125.892, 409.390 115.703 C 403.768 109.009, 393.849 110.716, 383.520 120.156 C 377.765 125.415, 361.871 135.242, 356.097 137.109 C 354.119 137.749, 350.418 139.316, 347.874 140.591 C 343.842 142.610, 322.394 147.528, 309 149.503 C 303.700 150.285, 287.010 155.426, 282.939 157.532 C 281.377 158.339, 279.064 159.003, 277.800 159.006 C 276.535 159.010, 274.150 159.726, 272.500 160.599 C 270.850 161.472, 267.363 163.037, 264.752 164.078 C 253.907 168.398, 243.129 179.162, 239.098 189.695 C 234.730 201.109, 221.262 213.064, 202.751 221.957 C 186.739 229.650, 182.624 233.479, 178.523 244.500 C 175.669 252.171, 175.021 253.018, 162.786 265.078 C 149.412 278.259, 141.893 290.366, 137.990 305 C 136.077 312.173, 133.950 315.604, 123.109 329 C 116.679 336.945, 109.979 347.493, 108.916 351.342 C 108.348 353.400, 106.784 356.703, 105.441 358.681 C 101.823 364.014, 102.146 369.408, 108.069 402.500 C 109.152 408.550, 110.443 418.911, 110.937 425.524 C 111.690 435.588, 112.426 439.091, 115.452 447.024 C 121.042 461.676, 121.201 465.254, 116.441 469.264 C 109.628 475.004, 103.627 481.360, 98 488.798 C 93.110 495.261, 91.588 496.516, 84.279 500.105 C 76.713 503.822, 75.691 504.696, 71.440 511.090 C 68.900 514.910, 65.018 519.491, 62.813 521.268 C 54.008 528.366, 52.372 529.942, 50.984 532.666 C 50.190 534.224, 47.446 538.650, 44.888 542.500 C 36.150 555.646, 33.028 565.950, 33.007 581.713 C 33.003 584.580, 32.100 589.209, 31 592 C 28.754 597.698, 28.439 603.491, 30.146 607.685 C 30.776 609.233, 31.628 613.097, 32.040 616.272 C 32.736 621.649, 33.256 622.537, 39.651 629.272 C 43.426 633.247, 48.906 639.875, 51.829 644 L 57.142 651.500 56.821 659.925 L 56.500 668.350 61.836 672.445 C 70.624 679.189, 72.238 682.687, 71.653 693.719 C 71.220 701.884, 71.394 703.231, 73.177 705.497 C 75.294 708.190, 81.878 712, 84.413 712 C 87.492 712, 90.696 714.273, 93.059 718.133 C 96.018 722.964, 100.006 725.547, 106 726.515 C 109.663 727.107, 111.461 728.231, 115.667 732.558 C 122.946 740.048, 132.812 744.292, 156.500 750.126 C 166.539 752.598, 196.624 753.668, 200.500 751.691 C 206.064 748.852, 211.391 743.090, 215.007 736 C 219.286 727.609, 227.357 718.981, 233.195 716.555 C 235.227 715.710, 237.280 714.322, 237.756 713.471 C 238.536 712.078, 238.917 712.076, 241.561 713.455 C 243.178 714.298, 245.175 714.995, 246 715.004 C 246.825 715.012, 249.907 716.140, 252.849 717.510 C 256.021 718.986, 260.006 720, 262.639 720 C 267.565 720, 275.358 723.416, 274.738 725.304 C 273.607 728.749, 248.675 726.515, 243.407 722.497 C 240.275 720.108, 239.620 719.927, 238.882 721.246 C 238.408 722.093, 236.471 724.641, 234.578 726.907 C 232.299 729.635, 230.757 732.855, 230.012 736.443 C 229.311 739.821, 227.584 743.567, 225.426 746.394 C 223.522 748.887, 220.424 754.578, 218.542 759.040 C 214.712 768.121, 210.945 773.612, 207.452 775.204 C 206.164 775.791, 204.812 776.997, 204.447 777.885 C 202.641 782.281, 201.068 791.200, 201.036 797.219 C 201.012 801.593, 200.128 806.611, 198.500 811.597 C 195.132 821.915, 195.099 831.914, 198.403 841.500 C 204.932 860.447, 206.436 874.513, 203 884.500 C 201.900 887.697, 201 892.493, 201 895.157 L 201 900 327.433 900 C 452.826 900, 453.870 899.984, 454.498 898.008 C 455.216 895.743, 460.742 888.518, 469.034 879 C 475.814 871.218, 490.753 852.529, 525 808.984 C 539.025 791.151, 552.638 774.254, 555.250 771.434 L 560 766.307 560 740.653 C 560 726.544, 559.837 715, 559.638 715 C 559.439 715, 556.402 716.297, 552.888 717.883 C 545.226 721.340, 535.233 724.566, 534.489 723.822 C 532.316 721.650, 543.527 713.778, 554.087 710.060 L 559.500 708.154 559.767 682.692 L 560.033 657.230 556.267 655.744 C 554.195 654.926, 549.811 653.929, 546.524 653.528 C 542.787 653.073, 535.682 650.715, 527.561 647.237 L 514.575 641.674 501.144 641.880 C 489.434 642.060, 486.673 641.775, 479.606 639.655 C 475.148 638.318, 468.890 636.468, 465.701 635.545 C 459.570 633.771, 445.823 632.047, 437.562 632.018 C 428.588 631.985, 422.383 625.478, 426.766 620.695 C 430.214 616.932, 427.917 610.167, 421.303 604.601 C 419.545 603.122, 417.818 601.003, 417.466 599.891 C 416.740 597.604, 413.456 596.068, 410.787 596.766 C 409.359 597.139, 409 598.281, 409 602.442 C 409 606.719, 408.548 608.076, 406.476 610.022 L 403.952 612.393 398.451 609.695 C 394.399 607.708, 392.248 605.836, 390.291 602.596 C 388.820 600.161, 386.192 597.508, 384.408 596.658 C 382.635 595.812, 380.355 593.877, 379.342 592.359 C 378.329 590.840, 375.363 587.437, 372.752 584.797 C 370.140 582.157, 366.925 577.860, 365.607 575.248 C 364.289 572.637, 362.224 568.603, 361.018 566.285 C 358.524 561.490, 358.894 557.311, 362.066 554.440 C 363.957 552.729, 364.159 552.827, 368.506 557.562 C 371.048 560.331, 373.255 563.842, 373.596 565.661 C 373.927 567.427, 375.655 570.588, 377.435 572.686 C 380.987 576.872, 386.540 584.982, 389.203 589.872 C 390.844 592.884, 391.150 593, 397.453 593 C 405.073 593, 405.674 591.928, 401.500 585.785 C 398.496 581.365, 398.349 578.643, 400.937 575.354 C 402.724 573.082, 402.762 572.577, 401.437 568.820 C 400.646 566.581, 400 564.625, 400 564.473 C 400 564.322, 401.575 563.268, 403.500 562.133 C 407.930 559.519, 407.930 557.481, 403.500 554.867 C 396.731 550.873, 400.359 547.319, 407.610 550.841 C 410.029 552.016, 415.061 553.672, 418.792 554.521 C 428.236 556.669, 431.207 558.794, 435.828 566.705 C 443.711 580.203, 465.396 603.140, 472.202 605.179 C 474.299 605.807, 477.744 607.801, 479.857 609.609 C 481.969 611.418, 488.558 615.173, 494.498 617.953 C 500.439 620.734, 508.233 624.863, 511.820 627.128 C 524.628 635.217, 529.744 637.134, 536.627 636.425 C 540.856 635.989, 542.980 636.158, 543.482 636.970 C 544.383 638.429, 557.653 647, 559.010 647 C 559.653 647, 560 624.017, 560 581.406 C 560 516.654, 559.974 515.806, 558 515.290 C 556.900 515.002, 556 514.014, 556 513.095 C 556 512.175, 556.900 509.658, 558 507.500 C 560.710 502.185, 561.189 382, 558.500 382 C 557.675 382, 557 381.536, 557 380.969 C 557 380.401, 557.675 379.678, 558.500 379.362 C 560.167 378.722, 560.862 45, 559.196 45 C 558.754 45, 557.013 46.462, 555.327 48.250 M 293.065 338.878 C 291.496 341.811, 291.770 345.698, 293.595 346.398 C 295.500 347.129, 302.392 340.685, 301.760 338.762 C 301.022 336.516, 294.282 336.605, 293.065 338.878 M 115.200 350.200 C 113.492 351.908, 113.715 354.954, 115.601 355.677 C 117.472 356.395, 118.963 354.444, 118.985 351.250 C 119.001 348.808, 117.116 348.284, 115.200 350.200 M 517.316 369.061 C 511.155 369.681, 506.375 371.860, 505.357 374.511 C 505.063 375.278, 502.612 377.324, 499.911 379.057 C 497.210 380.790, 495 382.837, 495 383.604 C 495 386.106, 500.502 385.177, 504.500 382 C 507.407 379.690, 509.290 379, 512.690 379 C 517.338 379, 530.299 376.389, 533.213 374.865 C 538.848 371.919, 528.059 367.980, 517.316 369.061 M 521.449 389.468 C 520.652 391.375, 519.996 393.288, 519.990 393.718 C 519.977 394.815, 513.114 403.343, 511.521 404.242 C 509.432 405.421, 502.775 402.161, 499.500 398.356 C 490.947 388.417, 481.143 395.134, 482.443 410.041 C 483.184 418.532, 482.361 421.579, 477.057 429.988 C 472.760 436.801, 470.738 445.036, 471.534 452.476 L 472.200 458.693 467.687 461.338 C 461.283 465.091, 459 469.236, 458.998 477.118 C 458.996 485.868, 456.831 489.945, 451.207 491.788 C 443.219 494.406, 439.751 491.390, 440.733 482.678 C 441.501 475.861, 438.446 476.125, 434.116 483.250 C 432.862 485.313, 431.510 487, 431.111 487 C 430.003 487, 424 495.862, 424 497.498 C 424 498.289, 426.412 500.719, 429.361 502.897 C 433.861 506.222, 434.824 507.496, 435.358 510.837 C 435.792 513.551, 436.958 515.628, 439.023 517.366 C 442.636 520.406, 445.255 521.231, 474.500 528.534 C 480 529.908, 487.987 531.981, 492.250 533.141 C 503.688 536.254, 509.208 534.405, 514.320 525.749 C 517.683 520.055, 522.489 515.655, 528.279 512.969 C 532.934 510.810, 539 504.783, 539 502.317 C 539 500.270, 532.045 499.632, 523.990 500.941 C 513.826 502.591, 509.550 501.393, 500.204 494.274 C 486.908 484.148, 481.926 474.732, 486.337 468.067 C 487.725 465.970, 492.314 458.010, 496.535 450.377 C 500.757 442.745, 506.191 433.825, 508.611 430.555 C 511.031 427.285, 514.471 421.039, 516.256 416.675 C 518.296 411.685, 521.285 406.700, 524.310 403.243 C 533.020 393.290, 533.959 389.669, 528.477 387.171 C 524.390 385.309, 522.996 385.765, 521.449 389.468 M 472.990 464.019 C 471.237 467.294, 473.780 471.500, 477.513 471.500 C 481.325 471.500, 481.967 468.500, 478.972 464.691 C 476.450 461.486, 474.465 461.263, 472.990 464.019 M 120.667 468.667 C 118.346 470.988, 124.134 481.272, 126.825 479.608 C 128.158 478.784, 127.377 471.325, 125.741 469.250 C 124.684 467.909, 121.760 467.573, 120.667 468.667 M 124.116 488.631 C 121.389 490.542, 121.448 492.745, 124.403 499.228 C 125.725 502.128, 127.306 505.773, 127.918 507.329 C 129.785 512.082, 131.439 509.909, 132.339 501.520 C 133.503 490.672, 129.704 484.717, 124.116 488.631 M 197.768 516.579 C 186.783 529.502, 183.248 538.887, 191.088 534.311 C 195.342 531.828, 197.770 528.151, 199.176 522.059 C 199.833 519.213, 201.439 515.834, 202.766 514.507 C 204.086 513.186, 205.017 511.330, 204.834 510.382 C 204.596 509.154, 202.565 510.935, 197.768 516.579 M 132.598 525.736 C 129.026 529.307, 140.292 552, 145.636 552 C 148.673 552, 145.655 541.448, 141.673 538.144 C 140.863 537.471, 139.217 534.497, 138.014 531.535 C 135.964 526.482, 133.977 524.356, 132.598 525.736 M 147.426 529.750 C 148.591 534.735, 150.256 538.081, 151.387 537.711 C 153.391 537.054, 153.155 532.467, 150.975 529.695 C 148.215 526.186, 146.599 526.211, 147.426 529.750 M 177.598 549.163 C 175.970 551.488, 176.306 553, 178.452 553 C 179.831 553, 181 550.897, 181 548.418 C 181 546.327, 179.328 546.693, 177.598 549.163 M 159.750 570.666 C 156.432 573.125, 155 574.895, 155 576.535 C 155 581.961, 160.864 580.794, 164.464 574.652 C 169.234 566.512, 167.421 564.979, 159.750 570.666 M 536.500 580.672 C 529.198 582.279, 526.715 584.987, 530.264 587.473 C 533.816 589.960, 537.270 589.348, 540.916 585.586 C 545.474 580.884, 543.833 579.058, 536.500 580.672 M 417.250 583.031 C 413.091 584.703, 415.011 594, 419.515 594 C 421.735 594, 424 589.847, 424 585.777 C 424 581.695, 422.297 581.002, 417.250 583.031 M 149.684 587.253 C 147.201 592.486, 147.997 620.768, 150.817 627.500 C 151.969 630.250, 153.364 635.076, 153.917 638.225 C 155.994 650.044, 164.468 660, 172.450 660 C 175.695 660, 175.685 658.300, 172.413 653.944 C 170.990 652.050, 168.717 648.025, 167.363 645 C 166.008 641.975, 163.374 637.925, 161.509 636 C 156.306 630.628, 156 628.931, 156.682 609.239 C 157.128 596.382, 156.959 590.405, 156.072 587.719 C 154.508 582.981, 151.805 582.784, 149.684 587.253 M 211 688.396 C 211 691.201, 221.026 698.308, 222.667 696.667 C 223.873 695.460, 221.591 691.794, 218.197 689.488 C 214.140 686.731, 211 686.255, 211 688.396 M 514 731.754 C 509.911 733.750, 499 744.015, 499 745.867 C 499 746.730, 499.881 746.514, 501.750 745.195 C 503.262 744.127, 507.425 741.797, 511 740.018 C 518.083 736.492, 522 733.398, 522 731.326 C 522 729.500, 518.202 729.703, 514 731.754 M 465.500 759.869 C 458.517 763.207, 454.447 767.116, 455.391 769.577 C 456.269 771.866, 462.071 770.892, 466.888 767.648 C 468.875 766.310, 472.133 764.700, 474.129 764.070 C 478.901 762.564, 482.041 759.271, 479.960 757.954 C 477.239 756.233, 471.524 756.990, 465.500 759.869 M 555.571 869.368 C 551.624 873.091, 551.443 873.818, 553.237 878.778 C 554.750 882.963, 551.927 886, 546.524 886 C 542.726 886, 538.964 888.687, 534.892 894.307 C 530.737 900.043, 530.653 900, 546 900 L 560 900 560 883 C 560 873.650, 559.807 866, 559.571 866 C 559.335 866, 557.535 867.516, 555.571 869.368" stroke="none" fill="#E8A090" fill-rule="evenodd"/>
	<path fill-opacity="0.432" d="M 555.460 58.031 C 552.254 64.532, 550.707 66.531, 547.337 68.522 C 542.452 71.409, 539.789 75.380, 537.562 83.098 C 534.947 92.159, 536.949 93.662, 547.409 90.489 C 550.109 89.670, 554.046 89, 556.159 89 L 560 89 560 69.500 C 560 58.775, 559.870 50, 559.710 50 C 559.551 50, 557.639 53.614, 555.460 58.031 M 538.500 102.142 C 535.200 103.215, 530.083 104.838, 527.130 105.750 C 510.979 110.733, 503.575 123.098, 499 152.724 C 497.206 164.342, 492.449 166.383, 483.350 159.437 C 477.782 155.187, 469.184 151.300, 463.448 150.440 C 460.924 150.061, 457.653 148.776, 456.179 147.583 C 450.063 142.632, 434.241 136.045, 428.385 136.012 C 427.222 136.005, 425.151 135.120, 423.783 134.044 C 419.556 130.719, 411.865 128.272, 403.269 127.518 C 395.922 126.873, 394.723 126.474, 392.118 123.809 C 388.440 120.048, 387.957 120.291, 377.425 131.211 C 372.058 136.776, 367.385 140.576, 363.489 142.542 C 360 144.303, 356.995 146.643, 356.064 148.325 C 355.204 149.879, 354.005 151.861, 353.399 152.731 C 352.001 154.740, 346.868 154.640, 342.393 152.516 C 335.261 149.132, 320.992 151.669, 311.722 157.969 C 307.444 160.877, 303.160 164.252, 302.203 165.469 C 299.713 168.635, 296.731 169.993, 289.834 171.104 C 286.415 171.655, 282.200 173.151, 280.156 174.540 C 278.165 175.893, 276.020 177, 275.390 177 C 273.337 177, 271.500 180.234, 271.500 183.851 C 271.500 187.163, 271.247 187.445, 267.578 188.216 C 262.852 189.209, 261.426 190.300, 259.472 194.417 C 258.652 196.146, 256.188 199.729, 253.997 202.381 C 249.939 207.292, 249.626 209.274, 252.138 214.184 C 253.402 216.654, 253.189 220.762, 251.750 221.676 C 246.772 224.839, 235.706 227.213, 218 228.918 C 204.046 230.262, 201.598 231.382, 195.455 239.232 C 189.016 247.462, 188.939 248.006, 193.526 252.730 C 198.717 258.075, 198.962 260.403, 194.800 264.827 C 192.900 266.847, 189.906 270.380, 188.146 272.677 C 182.470 280.089, 172.352 282.302, 170.672 276.500 C 167.845 266.739, 165.825 266.549, 157.766 275.285 C 150.252 283.430, 149 286.230, 149 294.901 C 149 300.545, 148.692 302, 147.500 302 C 145.599 302, 145.616 304.909, 147.532 307.441 C 148.462 308.670, 149 311.690, 149 315.677 C 149 319.139, 149.550 324.029, 150.223 326.543 C 151.248 330.377, 151.203 331.548, 149.943 333.793 C 147.998 337.257, 143.648 339.625, 143.177 337.476 C 142.774 335.638, 142.038 335.657, 139.505 337.571 C 137.451 339.123, 138.611 340.945, 141.679 340.985 C 143.064 341.003, 146.070 350.534, 146.745 357.045 C 147.134 360.805, 146.794 362.101, 144.778 364.545 C 141.369 368.678, 140.832 370.663, 141.976 374.912 C 143.263 379.690, 142.079 383.787, 137.484 390.459 C 133.874 395.701, 133.127 399.444, 133.025 412.809 C 133.010 414.755, 132.588 415.863, 132 415.500 C 128.797 413.520, 131.807 418.825, 136.138 422.793 C 142.625 428.736, 143.875 431.648, 143.266 439.400 C 142.818 445.103, 142.996 445.760, 145.991 449.500 C 152.199 457.250, 155.353 469.370, 153.010 476.470 C 150.660 483.591, 153.510 497.666, 158.180 502 C 163.382 506.828, 163.971 510.543, 160.569 517.051 L 157.898 522.158 161.067 527.829 C 166.539 537.619, 169.460 541.926, 170.657 541.963 C 171.748 541.998, 186.491 523.181, 192.175 514.500 C 196.569 507.788, 204.291 500.202, 207.500 499.445 C 213.505 498.029, 214.935 495.613, 214.294 487.968 C 213.605 479.751, 214.750 474.779, 220.030 463.052 C 223.993 454.251, 223.996 454.239, 222.436 449.871 C 216.640 433.639, 222.996 412.063, 237.203 399.750 C 239.992 397.333, 243 397.475, 243 400.025 C 243 401.894, 239.600 408.989, 233.465 419.924 C 230.637 424.964, 230.709 434.398, 233.671 446.950 L 235.194 453.400 231.095 461.285 C 228.841 465.621, 226.750 471.043, 226.448 473.334 C 226.146 475.625, 225.162 479.838, 224.261 482.696 C 222.818 487.272, 222.778 488.885, 223.924 496.196 C 225.568 506.679, 226.634 508.323, 233.172 510.462 C 238.615 512.242, 256.625 524.860, 257.692 527.641 C 260.433 534.782, 235.495 526.341, 226.562 517.103 C 221.284 511.645, 216.248 509.917, 214.070 512.816 C 208.526 520.196, 205.988 523.985, 204.188 527.569 C 203.063 529.807, 200.199 534.029, 197.822 536.950 C 191.110 545.198, 191.065 545.280, 189.909 551.535 C 188.383 559.792, 185.926 564.054, 179.558 569.494 C 175.878 572.638, 173.162 576.078, 171.381 579.851 C 169.913 582.958, 167.427 588.159, 165.856 591.410 C 162.755 597.825, 162.420 600.047, 164.082 603.154 C 164.692 604.293, 165.152 610.444, 165.137 617.244 C 165.106 631.120, 165.650 632.691, 172.446 638.325 C 174.984 640.429, 177.996 644.141, 179.140 646.575 C 180.284 649.009, 181.560 651, 181.974 651 C 182.389 651, 183.492 652.999, 184.425 655.442 C 186.325 660.418, 190.670 662.716, 196.118 661.626 C 202.610 660.328, 207.484 664.140, 218.307 678.983 C 220.415 681.874, 223.484 684.419, 226.948 686.150 C 229.902 687.627, 233.398 690.212, 234.715 691.895 C 236.252 693.859, 238.824 695.464, 241.897 696.377 C 248.672 698.389, 254.721 701.653, 257.294 704.686 C 259.674 707.491, 269.451 712.327, 274.796 713.342 C 276.609 713.687, 279.543 715.075, 281.316 716.427 C 285.295 719.462, 291.439 720.944, 300.182 720.976 C 306.453 720.998, 306.995 721.185, 309 724 C 311.105 726.957, 314.298 727.945, 315.494 726.009 C 315.831 725.465, 314.507 720.073, 312.553 714.028 C 309.114 703.391, 309 702.543, 309 687.700 C 309 672.398, 307.770 664.572, 304.566 659.500 C 302.167 655.701, 301.082 650.454, 300.121 638 C 299.412 628.806, 298.373 623.120, 296.193 616.500 C 293.082 607.050, 290.329 586.521, 291.531 581.733 C 292.612 577.424, 289.447 572.936, 280.437 566 C 275.793 562.425, 270.935 559.050, 269.642 558.500 C 263.140 555.734, 263.020 554.135, 268.654 545.327 C 273.378 537.942, 273.457 537.537, 270.855 534.017 C 268.890 531.361, 268.767 530.759, 270.024 529.964 C 272.359 528.488, 272.731 528.687, 278.616 534.572 L 284.188 540.145 283.516 546.838 C 282.735 554.618, 283.564 556.165, 291.943 562.555 C 295.451 565.230, 297.998 568.370, 300.462 573.060 C 302.395 576.739, 306.075 582.599, 308.640 586.083 L 313.303 592.417 312.072 596.959 C 310.102 604.221, 309.732 614.666, 311.026 626.500 C 311.688 632.550, 312.158 640.525, 312.072 644.221 C 311.950 649.432, 312.457 652.129, 314.325 656.221 C 319.048 666.567, 322 678.294, 322 686.711 C 322 704.968, 326.485 720.304, 334.254 728.611 C 337.418 731.994, 340.961 736.954, 342.127 739.632 C 343.415 742.590, 347.336 747.688, 352.123 752.628 C 360.123 760.882, 361.716 764, 357.934 764 C 354.881 764, 351.987 762.246, 347.415 757.627 C 342.921 753.087, 328.578 740.015, 326.690 738.740 C 326.036 738.298, 322.125 738.212, 318 738.550 C 312.251 739.020, 309.449 738.771, 306 737.482 C 298.089 734.527, 284.056 733.140, 270.500 733.974 C 267.750 734.143, 260.963 733.932, 255.418 733.505 L 245.336 732.728 242.263 735.614 C 239.042 738.638, 231.676 754.057, 231.806 757.500 C 231.848 758.600, 232.172 760.878, 232.527 762.561 C 233.065 765.118, 232.422 766.718, 228.626 772.263 C 224.466 778.339, 220.184 789.871, 221.373 791.795 C 222.119 793.002, 222.247 822.153, 221.530 827.500 C 220.912 832.101, 221.223 833.218, 225.427 841.500 C 230.951 852.383, 231.081 854.705, 226.500 860.704 C 222.554 865.872, 222.053 869.391, 225 871.232 C 227.682 872.907, 227.566 873.473, 223.521 878.409 C 218.898 884.051, 217 888.870, 217 894.968 L 217 900 333.933 900 L 450.865 900 451.515 897.952 C 452.334 895.372, 460.767 884.235, 467.425 876.940 C 475.199 868.424, 540.169 786.933, 550.029 773.332 C 552.488 769.940, 555.737 766.427, 557.250 765.526 C 559.947 763.918, 560 763.702, 560 754.221 C 560 745.492, 559.859 744.756, 558.550 746.625 C 557.752 747.764, 554.488 749.648, 551.296 750.812 C 544.770 753.191, 537 758.473, 537 760.530 C 537 762.747, 532.829 765, 528.723 765 C 526.019 765, 522.922 766.187, 518.206 769.031 C 506.211 776.266, 504.221 776.356, 491.157 770.260 C 484.249 767.037, 476.977 768.230, 466.500 774.306 C 456.658 780.013, 455.808 780.851, 456.531 784.142 C 459.356 797.002, 438.365 801.521, 424.033 791.139 C 421.650 789.412, 418.755 787.990, 417.600 787.978 C 414.966 787.950, 407.494 784.608, 406.511 783.017 C 405.338 781.119, 406.800 780.302, 421.555 774.609 C 441.206 767.027, 448.054 764.213, 451.500 762.305 C 464.555 755.074, 469.210 752.926, 474 751.922 C 481.622 750.324, 486.135 747.813, 490.643 742.660 C 495.272 737.370, 509.111 727.789, 517.730 723.907 C 521.157 722.364, 526.557 719.339, 529.730 717.186 C 536.784 712.398, 550 705.679, 555.750 703.957 L 560 702.683 560 684.361 L 560 666.038 557.250 665.376 C 555.737 665.012, 552.443 663.686, 549.929 662.431 C 547.414 661.175, 542.491 659.405, 538.989 658.497 C 535.486 657.589, 530.810 655.924, 528.599 654.795 C 521.740 651.296, 514.868 651.740, 513.805 655.750 C 512.844 659.372, 511.530 659.760, 508.176 657.411 C 503.402 654.067, 501.396 658.569, 504.635 665.361 C 507.846 672.094, 504.203 677.868, 496.400 678.413 C 493.595 678.609, 490.370 679.267, 489.233 679.875 C 487.106 681.014, 483.728 689.330, 483.413 694.203 C 483.124 698.683, 479.750 703.211, 474.292 706.443 C 469.345 709.372, 467.575 711.045, 463.783 716.376 C 462.838 717.703, 459.935 719.515, 457.332 720.402 L 452.600 722.015 449.050 718.561 C 444.876 714.500, 441.872 713.218, 437.894 713.802 C 433.392 714.463, 434.382 716.893, 442.750 725.718 C 445.519 728.638, 445.521 728.814, 442.816 731.160 C 436.293 736.817, 423.348 733.894, 424.277 726.974 C 424.585 724.677, 424.278 722.415, 423.510 721.318 C 422.806 720.313, 421.716 716.179, 421.088 712.132 C 420.460 708.085, 419.125 702.912, 418.121 700.637 C 417.116 698.361, 416.028 695.741, 415.703 694.813 C 415.089 693.063, 417.759 684.967, 419.307 683.883 C 420.536 683.023, 417.456 677.389, 415.306 676.564 C 414.334 676.191, 413.401 676.296, 413.234 676.797 C 412.805 678.085, 407.840 677.035, 405.750 675.214 C 403.146 672.946, 403.595 670.833, 407.696 666.042 C 410.865 662.340, 411.454 660.873, 411.824 655.759 C 412.065 652.427, 412.593 650.341, 413.020 651.033 C 414.164 652.884, 418.706 651.378, 420.574 648.528 C 423.715 643.733, 419.540 642.413, 414.047 646.465 L 410.706 648.930 407.953 646.614 C 406.439 645.340, 403.751 642.647, 401.980 640.630 C 398.969 637.201, 398.429 636.981, 393.630 637.232 C 386.725 637.593, 386.157 635.026, 391.957 629.660 C 398.013 624.057, 397.616 622.900, 387.414 616.440 C 384.161 614.380, 379.627 611.076, 377.338 609.097 C 375.049 607.119, 370.393 603.250, 366.991 600.500 C 336.357 575.734, 321.422 542.359, 340.046 540.290 C 342.496 540.018, 346.648 538.881, 349.274 537.764 C 353.504 535.964, 354.689 535.862, 359.690 536.867 C 362.794 537.490, 368.971 538.020, 373.417 538.044 C 377.863 538.068, 383.300 538.463, 385.500 538.923 C 408.534 543.737, 418.410 546.600, 427.604 551.126 C 434.259 554.402, 434.940 554.983, 444.732 565.750 C 447.858 569.188, 450.967 572, 451.640 572 C 452.313 572, 453.819 573.342, 454.987 574.981 C 461.891 584.677, 467.381 588.399, 486.500 596.344 C 506.273 604.561, 518.250 605.063, 518.250 597.675 C 518.250 593.688, 516.297 592.004, 511.628 591.966 C 503.037 591.895, 491.726 588.411, 489.006 584.998 C 485.482 580.575, 480.137 575.105, 475.302 570.970 C 471.471 567.695, 468.602 561.065, 470.287 559.380 C 471.367 558.299, 476.877 562.065, 478.840 565.226 C 481.922 570.188, 488.031 575.707, 492.500 577.567 C 494.700 578.483, 498.140 580.530, 500.144 582.116 C 504.590 585.635, 506.547 585.671, 515.500 582.401 C 519.350 580.995, 526.547 578.483, 531.494 576.818 C 541.306 573.516, 545.099 571.662, 552.112 566.738 C 554.648 564.957, 557.476 563.050, 558.395 562.500 C 559.887 561.608, 560.037 559.283, 559.784 541 L 559.500 520.500 557.058 524.500 C 550.616 535.054, 542.440 542.150, 538.475 540.629 C 535.522 539.496, 537.509 525.544, 541.484 519.500 C 549.334 507.564, 548.645 504.263, 539.845 511.644 C 537.455 513.648, 532.767 516.519, 529.426 518.023 C 525.974 519.578, 522.305 522.121, 520.926 523.916 C 510.348 537.683, 505.458 539.842, 493.414 536.066 C 490.066 535.016, 483.541 533.627, 478.914 532.979 C 474.286 532.331, 466.225 530.516, 461 528.946 C 455.775 527.375, 448.932 525.388, 445.793 524.530 C 442.654 523.671, 437.078 521.401, 433.401 519.485 C 429.724 517.568, 425.486 516, 423.984 516 C 417.282 516, 403 508.393, 403 504.824 C 403 503.742, 404.144 500.904, 405.542 498.519 C 407.342 495.447, 407.894 493.426, 407.433 491.590 C 406.664 488.526, 408.490 477.550, 410.943 470.500 C 412.981 464.640, 412.232 460.253, 408.419 455.722 C 406.018 452.868, 405.063 447, 407 447 C 407.550 447, 408 446.127, 408 445.059 C 408 443.991, 408.395 442.874, 408.877 442.576 C 409.359 442.278, 410.288 439.889, 410.942 437.267 C 412.526 430.910, 415.389 426.217, 420.194 422.103 C 425.448 417.605, 426.207 415.337, 424.431 409.437 C 422.282 402.296, 424.047 400.016, 431.773 399.953 C 440.684 399.880, 457.667 393.360, 459.922 389.145 C 460.620 387.842, 460.432 385.797, 459.284 382.208 C 457.205 375.706, 457.837 374.908, 467.683 371.598 C 471.836 370.201, 476.797 367.867, 478.707 366.410 C 483.543 362.721, 494.359 361.264, 493.381 364.432 C 492.268 368.042, 489.202 373.587, 487.573 374.939 C 485.499 376.661, 485.563 379, 487.684 379 C 490.538 379, 497.597 375.107, 502.387 370.891 C 508.075 365.884, 511.403 364.891, 521.500 365.186 C 536.616 365.629, 549.507 365.053, 554.500 363.712 L 559.500 362.370 559.747 297.291 L 559.994 232.212 556.723 232.950 C 554.925 233.355, 552.564 234.156, 551.476 234.728 C 550.389 235.301, 545.946 236.738, 541.601 237.922 C 537.257 239.107, 532.442 240.973, 530.902 242.070 C 523.699 247.199, 506.186 252.146, 501.028 250.509 C 498.973 249.857, 497.358 246.595, 496.490 241.339 C 496.141 239.228, 494.694 234.113, 493.274 229.974 C 488.488 216.017, 492.344 209.890, 498.614 221.487 C 503.037 229.666, 508.870 235, 513.391 235 C 516.736 235, 516.925 234.795, 518.680 229.250 L 520.500 223.500 527.135 223.500 C 532.082 223.500, 534.272 223.049, 535.741 221.726 C 537.634 220.021, 541 220.242, 541 222.072 C 541 224.506, 545.386 225.199, 552.638 223.910 L 560 222.602 560 161.943 L 560 101.285 553.853 100.642 C 545.897 99.811, 545.578 99.842, 538.500 102.142 M 388.755 198.558 C 376.020 199.944, 368.579 201.970, 364.530 205.155 C 360.679 208.184, 349 226.541, 349 229.565 C 349 231.879, 354.180 228.889, 359.300 223.621 C 364.848 217.913, 366.019 217.176, 370.431 216.615 C 373.274 216.254, 379.380 213.981, 384.856 211.244 C 394.127 206.612, 394.578 206.498, 403.926 206.416 C 416.384 206.307, 422.238 203.803, 416.818 200.903 C 414.304 199.557, 404.222 197.021, 402 197.175 C 401.175 197.233, 395.215 197.855, 388.755 198.558 M 311.500 289.564 C 303.967 293.459, 291.139 309.509, 288.433 318.426 C 287.586 321.217, 286.620 329.326, 286.287 336.447 L 285.680 349.394 279.794 355.721 C 276.557 359.201, 273.002 364.162, 271.895 366.746 C 270.561 369.857, 267.286 373.892, 262.197 378.692 C 255.169 385.321, 254.648 386.077, 256.104 387.533 C 257.560 388.988, 258.197 388.948, 263.563 387.062 C 266.790 385.928, 270.894 385, 272.683 385 L 275.936 385 275.796 379.673 C 275.558 370.630, 284.788 356.395, 293.341 352.613 C 296.254 351.324, 300.632 348.456, 303.069 346.238 C 305.506 344.021, 310.548 339.439, 314.274 336.057 C 318 332.675, 322.950 329.085, 325.274 328.078 C 327.598 327.072, 333.775 324.228, 339 321.759 C 344.225 319.289, 350.300 316.691, 352.500 315.984 C 354.700 315.278, 358.975 313.423, 362 311.861 C 367.970 308.781, 377.215 306.598, 389 305.487 C 398.159 304.623, 401.569 303.288, 406.890 298.481 C 412.224 293.662, 412.347 291.573, 407.250 292.360 C 390.860 294.889, 376.129 295.887, 370.693 294.838 C 362.829 293.320, 358.933 294.630, 351.080 301.431 C 347.607 304.438, 341.106 308.784, 336.633 311.087 C 332.160 313.390, 326.250 316.872, 323.500 318.825 C 309.858 328.510, 303.612 330.740, 302 326.500 C 300.878 323.549, 301.635 321.222, 305.905 314.488 C 307.607 311.804, 309 308.525, 309 307.202 C 309 305.878, 310.771 301.016, 312.935 296.397 C 317.003 287.717, 316.814 286.816, 311.500 289.564 M 546 328.584 C 541.875 331.002, 537.517 332.985, 536.315 332.990 C 532.863 333.006, 528.899 334.838, 523.500 338.913 C 520.750 340.989, 514.791 344.649, 510.257 347.048 C 502.955 350.911, 501.943 351.787, 501.391 354.729 C 501.049 356.555, 499.820 358.713, 498.662 359.524 C 495.818 361.516, 496.959 361.381, 502.963 359.015 C 505.733 357.923, 508 357.223, 508 357.461 C 508 358.862, 520.156 353.351, 524.562 349.952 C 527.699 347.532, 531.353 345.667, 533.654 345.312 C 538.149 344.618, 543 342.368, 543 340.977 C 543 339.160, 550.114 332.123, 554.624 329.480 C 558.293 327.330, 558.901 326.586, 557.936 325.423 C 556.147 323.268, 554.184 323.788, 546 328.584 M 547.564 392.952 C 540.582 394.340, 538.177 395.269, 536.564 397.200 C 535.429 398.560, 531.946 402.717, 528.825 406.440 C 524.614 411.462, 522.843 414.535, 521.962 418.354 C 520.472 424.811, 518.960 427.246, 512.556 433.500 C 507.526 438.411, 496.364 456.552, 492.698 465.770 C 488.656 475.936, 492.048 484.371, 503.721 493.176 C 512.411 499.731, 515.061 499.968, 534.654 495.942 C 543.369 494.150, 552.638 492.487, 555.250 492.246 L 560 491.807 560 441.403 C 560 394.034, 559.895 391.005, 558.250 391.087 C 557.288 391.135, 552.479 391.974, 547.564 392.952 M 289 415.545 C 289 416.395, 290.238 418.308, 291.750 419.795 C 294.467 422.468, 294.504 422.474, 294.813 420.302 C 294.985 419.092, 294.631 417.180, 294.028 416.052 C 292.744 413.652, 289 413.275, 289 415.545 M 300.040 455.452 C 296.403 459.834, 294.042 466.605, 293.050 475.502 C 292.477 480.643, 291.556 486.037, 291.004 487.489 C 286.647 498.950, 294.356 509.307, 314.507 519.060 C 322.428 522.894, 324.623 524.471, 328.337 528.990 C 329.611 530.541, 330.493 530.907, 331.216 530.184 C 332.381 529.019, 326.891 519.163, 324.213 517.611 C 323.370 517.121, 320.083 514.334, 316.909 511.416 C 313.735 508.498, 309.357 505.202, 307.180 504.092 C 300.551 500.710, 300.122 496.361, 304.654 478.521 C 307.172 468.612, 303.666 451.083, 300.040 455.452 M 101.270 494.281 C 100.159 495.501, 98.783 497.400, 98.213 498.500 C 97.554 499.771, 94.865 501.181, 90.838 502.369 C 80.423 505.440, 78.988 506.149, 76.439 509.491 C 74.684 511.793, 74 513.958, 74 517.217 C 74 522.721, 67.307 530, 62.245 530 C 58.144 530, 55.226 532.513, 53.800 537.273 C 53.050 539.776, 50.873 543.094, 48.411 545.486 C 39.023 554.607, 38.418 556.413, 36.180 582 C 35.763 586.771, 34.683 591.904, 33.719 593.700 C 30.912 598.926, 31.458 601.633, 35.880 604.424 C 41.926 608.241, 44.787 614.928, 42.523 619.949 C 40.526 624.377, 40.861 625.324, 47.037 632.697 C 60.940 649.297, 62.231 650.121, 68.538 646.425 C 73.695 643.403, 75.128 643.396, 78.673 646.376 C 80.228 647.683, 83.525 649.886, 86 651.270 C 92.507 654.911, 92.534 657.587, 86.117 662.998 C 76.736 670.909, 76.349 683.385, 85.355 687.573 C 87.925 688.767, 90.026 690.640, 90.883 692.500 C 93.990 699.241, 97.373 700.883, 98.328 696.112 C 99.436 690.570, 111.725 686.829, 115.418 690.909 C 118.626 694.454, 112.647 702.192, 105.750 703.422 C 101.647 704.154, 101.041 705.800, 103.161 710.453 C 104.615 713.646, 104.894 713.633, 111.265 710.085 C 118.203 706.221, 129.043 703, 135.105 703 C 148.843 703, 146.624 721.339, 132.315 726.061 C 129.696 726.926, 128.959 727.677, 129.193 729.244 C 129.544 731.593, 129.616 731.638, 140.936 736.590 C 145.576 738.620, 151.300 741.503, 153.657 742.997 C 160.501 747.338, 167.844 748.438, 180.426 747.008 C 186.295 746.341, 192.580 746.074, 194.393 746.414 C 198.886 747.257, 201.484 745.034, 209.581 733.420 C 213.197 728.234, 218.370 721.568, 221.078 718.605 C 226.784 712.362, 226.921 711.750, 223.292 708.743 C 221.803 707.510, 218.315 704.438, 215.542 701.919 C 212.769 699.399, 207.800 695.659, 204.500 693.608 C 201.200 691.556, 197.087 688.893, 195.360 687.689 C 193.633 686.485, 190.933 684.721, 189.360 683.769 C 187.787 682.817, 182.900 679.114, 178.500 675.540 C 171.235 669.639, 166.581 666.294, 155.842 659.254 C 151.863 656.645, 148.777 650.724, 146.945 642.179 C 145.658 636.179, 143.289 633.811, 137.820 633.062 C 130.688 632.086, 130.075 627.555, 136.589 623.956 C 141.261 621.374, 142.526 601.459, 138.459 594.519 C 136.133 590.552, 135.903 589.508, 136.881 587.363 C 139.482 581.653, 140.055 576.187, 138.515 571.766 C 137.698 569.420, 137.023 565.397, 137.015 562.827 C 137.004 559.393, 136.373 557.404, 134.637 555.327 C 133.337 553.772, 131.332 550.644, 130.181 548.376 C 128.644 545.347, 127.025 543.827, 124.082 542.649 C 117.341 539.952, 115.063 533.168, 119.500 529 C 122.484 526.196, 122.682 522.742, 120.509 511.383 C 118.585 501.328, 117.509 500.179, 112.055 502.361 C 105.849 504.844, 103.616 503.253, 104.607 497.054 C 105.347 492.427, 103.987 491.297, 101.270 494.281 M 383 775.477 C 383 777.241, 386.566 779.728, 390.864 780.961 C 395.311 782.236, 395.551 780.691, 391.462 777.101 C 387.733 773.827, 383 772.919, 383 775.477 M 540.831 895.250 C 537.156 898.211, 537.797 900, 542.531 900 C 547.362 900, 548.349 898.492, 545.429 895.571 C 543.530 893.673, 542.847 893.626, 540.831 895.250" stroke="none" fill="#E8A090" fill-rule="evenodd"/>
</svg>