<svg width="647" height="132" viewBox="0 0 647 132" fill="none" xmlns="http://www.w3.org/2000/svg">
<path d="M39.0537 122.105V131.64H31V108.36H45.324C50.0795 108.36 52.4573 109.943 52.4573 113.109V115.808C52.4573 117.727 51.3643 118.951 49.1783 119.478C51.0958 119.91 52.0546 120.894 52.0546 122.429V131.64H44.0009V122.825C44.0009 122.345 43.6366 122.105 42.9079 122.105H39.0537ZM39.0537 111.778V118.579H43.3106C43.6174 118.579 43.8667 118.507 44.0584 118.363C44.2885 118.219 44.4036 118.051 44.4036 117.859V112.498C44.4036 112.306 44.2885 112.138 44.0584 111.994C43.8667 111.85 43.6174 111.778 43.3106 111.778H39.0537Z" fill="#8B4A3D"/>
<path d="M78.3953 108.36H86.1613L78.4528 131.64H69.1911L61.4826 108.36H69.3061L73.8507 125.343L78.3953 108.36Z" fill="#8B4A3D"/>
<path d="M127.752 108.36C132.508 108.36 134.886 109.943 134.886 113.109V117.751C134.886 120.918 132.508 122.501 127.752 122.501H121.252V131.64H113.198V108.36H127.752ZM126.832 118.327V112.534C126.832 112.342 126.717 112.174 126.487 112.03C126.295 111.886 126.046 111.814 125.739 111.814H121.252V119.046H125.739C126.046 119.046 126.295 118.975 126.487 118.831C126.717 118.687 126.832 118.519 126.832 118.327Z" fill="#8B4A3D"/>
<path d="M156.522 111.94C160.485 111.94 162.467 113.259 162.467 115.898V131.64H155.755V125.133H150.914V131.64H144.202V115.898C144.202 113.259 146.184 111.94 150.147 111.94H156.522ZM150.914 121.895H155.755V115.388C155.755 115.228 155.66 115.088 155.468 114.969C155.308 114.849 155.1 114.789 154.845 114.789H151.824C151.569 114.789 151.345 114.849 151.153 114.969C150.994 115.088 150.914 115.228 150.914 115.388V121.895Z" fill="#8B4A3D"/>
<path d="M178.974 123.694V131.64H172.263V112.24H184.2C188.163 112.24 190.144 113.559 190.144 116.198V118.447C190.144 120.046 189.233 121.065 187.412 121.505C189.01 121.865 189.809 122.685 189.809 123.964V131.64H183.097V124.294C183.097 123.894 182.794 123.694 182.186 123.694H178.974ZM178.974 115.088V120.756H182.522C182.778 120.756 182.985 120.696 183.145 120.576C183.337 120.456 183.433 120.316 183.433 120.156V115.688C183.433 115.528 183.337 115.388 183.145 115.268C182.985 115.148 182.778 115.088 182.522 115.088H178.974Z" fill="#8B4A3D"/>
<path d="M218.566 112.24L213.293 121.145L219.573 131.64H212.718L208.116 123.964H205.959V131.64H199.247V112.24H205.959V120.366H207.589L212.43 112.24H218.566Z" fill="#8B4A3D"/>
<path d="M246.987 120.414C245.415 119.694 244.629 118.399 244.629 116.528V114.153C244.629 110.987 247.006 109.403 251.762 109.403H257.86C262.615 109.403 264.993 110.987 264.993 114.153V115.16H257.802V114.045C257.802 113.853 257.687 113.685 257.457 113.541C257.265 113.397 257.016 113.325 256.709 113.325H252.855C252.548 113.325 252.28 113.397 252.049 113.541C251.858 113.685 251.762 113.853 251.762 114.045V117.859C251.762 118.051 251.858 118.219 252.049 118.363C252.28 118.507 252.548 118.579 252.855 118.579H267.064V122.465H264.82V127.25C264.82 130.417 262.442 132 257.687 132H251.417C246.661 132 244.283 130.417 244.283 127.25V124.48C244.283 122.561 245.185 121.205 246.987 120.414ZM257.054 128.186C257.361 128.186 257.61 128.114 257.802 127.97C258.032 127.826 258.147 127.658 258.147 127.466V122.465H252.51C252.203 122.465 251.934 122.537 251.704 122.681C251.513 122.825 251.417 122.993 251.417 123.184V127.466C251.417 127.658 251.513 127.826 251.704 127.97C251.934 128.114 252.203 128.186 252.51 128.186H257.054Z" fill="#8B4A3D"/>
<path d="M307.746 127.826V124.228H315.397V127.25C315.397 130.417 313.02 132 308.264 132H301.016C296.26 132 293.883 130.417 293.883 127.25V112.75C293.883 109.583 296.26 108 301.016 108H308.264C313.02 108 315.397 109.583 315.397 112.75V114.945H307.746V112.138C307.746 111.946 307.631 111.778 307.401 111.634C307.21 111.49 306.96 111.418 306.653 111.418H303.029C302.722 111.418 302.454 111.49 302.224 111.634C302.032 111.778 301.936 111.946 301.936 112.138V127.826C301.936 128.018 302.032 128.186 302.224 128.33C302.454 128.474 302.722 128.546 303.029 128.546H306.653C306.96 128.546 307.21 128.474 307.401 128.33C307.631 128.186 307.746 128.018 307.746 127.826Z" fill="#8B4A3D"/>
<path d="M337.824 111.94C341.786 111.94 343.768 113.259 343.768 115.898V131.64H337.056V125.133H332.215V131.64H325.503V115.898C325.503 113.259 327.485 111.94 331.448 111.94H337.824ZM332.215 121.895H337.056V115.388C337.056 115.228 336.961 115.088 336.769 114.969C336.609 114.849 336.401 114.789 336.146 114.789H333.126C332.87 114.789 332.646 114.849 332.454 114.969C332.295 115.088 332.215 115.228 332.215 115.388V121.895Z" fill="#8B4A3D"/>
<path d="M360.228 131.64H353.516V115.898C353.516 113.259 355.498 111.94 359.461 111.94H363.008C365.341 111.94 367.003 112.42 367.994 113.379C368.92 112.42 370.582 111.94 372.979 111.94H376.527C380.49 111.94 382.471 113.259 382.471 115.898V131.64H375.76V115.538C375.76 115.378 375.664 115.238 375.472 115.118C375.312 114.998 375.105 114.939 374.849 114.939H372.26C372.005 114.939 371.781 114.998 371.589 115.118C371.429 115.238 371.349 115.378 371.349 115.538V131.64H364.638V115.538C364.638 115.378 364.542 115.238 364.35 115.118C364.191 114.998 363.983 114.939 363.727 114.939H361.138C360.883 114.939 360.659 114.998 360.467 115.118C360.308 115.238 360.228 115.378 360.228 115.538V131.64Z" fill="#8B4A3D"/>
<path d="M403.958 112.24C407.921 112.24 409.902 113.559 409.902 116.198V120.066C409.902 122.705 407.921 124.024 403.958 124.024H398.541V131.64H391.83V112.24H403.958ZM403.191 120.546V115.718C403.191 115.558 403.095 115.418 402.903 115.298C402.744 115.178 402.536 115.118 402.28 115.118H398.541V121.145H402.28C402.536 121.145 402.744 121.085 402.903 120.966C403.095 120.846 403.191 120.706 403.191 120.546Z" fill="#8B4A3D"/>
<path d="M427.126 123.934V120.846H435.995V127.982C435.995 130.621 434.013 131.94 430.05 131.94H424.01C420.047 131.94 418.066 130.621 418.066 127.982V115.898C418.066 113.259 420.047 111.94 424.01 111.94H430.05C434.013 111.94 435.995 113.259 435.995 115.898V117.727H429.619V115.388C429.619 115.228 429.523 115.088 429.331 114.969C429.172 114.849 428.964 114.789 428.708 114.789H425.688C425.432 114.789 425.209 114.849 425.017 114.969C424.857 115.088 424.777 115.228 424.777 115.388V128.462C424.777 128.622 424.857 128.762 425.017 128.882C425.209 129.001 425.432 129.061 425.688 129.061H428.708C428.964 129.061 429.172 129.001 429.331 128.882C429.523 128.762 429.619 128.622 429.619 128.462V123.934H427.126Z" fill="#8B4A3D"/>
<path d="M451.199 123.694V131.64H444.488V112.24H456.425C460.388 112.24 462.369 113.559 462.369 116.198V118.447C462.369 120.046 461.458 121.065 459.637 121.505C461.235 121.865 462.034 122.685 462.034 123.964V131.64H455.322V124.294C455.322 123.894 455.019 123.694 454.411 123.694H451.199ZM451.199 115.088V120.756H454.747C455.003 120.756 455.21 120.696 455.37 120.576C455.562 120.456 455.658 120.316 455.658 120.156V115.688C455.658 115.528 455.562 115.388 455.37 115.268C455.21 115.148 455.003 115.088 454.747 115.088H451.199Z" fill="#8B4A3D"/>
<path d="M489.737 115.898V127.982C489.737 130.621 487.755 131.94 483.792 131.94H477.417C473.454 131.94 471.472 130.621 471.472 127.982V115.898C471.472 113.259 473.454 111.94 477.417 111.94H483.792C487.755 111.94 489.737 113.259 489.737 115.898ZM483.025 128.462V115.388C483.025 115.228 482.93 115.088 482.738 114.969C482.578 114.849 482.37 114.789 482.115 114.789H479.094C478.839 114.789 478.615 114.849 478.423 114.969C478.263 115.088 478.184 115.228 478.184 115.388V128.462C478.184 128.622 478.263 128.762 478.423 128.882C478.615 129.001 478.839 129.061 479.094 129.061H482.115C482.37 129.061 482.578 129.001 482.738 128.882C482.93 128.762 483.025 128.622 483.025 128.462Z" fill="#8B4A3D"/>
<path d="M510.56 112.24H517.271V127.982C517.271 130.621 515.29 131.94 511.327 131.94H505.383C501.42 131.94 499.438 130.621 499.438 127.982V112.24H506.15V128.342C506.15 128.502 506.23 128.642 506.389 128.762C506.581 128.882 506.805 128.942 507.061 128.942H509.649C509.905 128.942 510.113 128.882 510.272 128.762C510.464 128.642 510.56 128.502 510.56 128.342V112.24Z" fill="#8B4A3D"/>
<path d="M544.443 131.64H537.731V115.538C537.731 115.378 537.636 115.238 537.444 115.118C537.284 114.998 537.076 114.939 536.821 114.939H534.232C533.976 114.939 533.753 114.998 533.561 115.118C533.401 115.238 533.321 115.378 533.321 115.538V131.64H526.61V115.898C526.61 113.259 528.591 111.94 532.554 111.94H538.498C542.461 111.94 544.443 113.259 544.443 115.898V131.64Z" fill="#8B4A3D"/>
<path d="M566.056 112.24C570.019 112.24 572 113.559 572 116.198V127.682C572 130.321 570.019 131.64 566.056 131.64H553.735V112.24H566.056ZM565.289 128.162V115.688C565.289 115.528 565.193 115.388 565.001 115.268C564.841 115.148 564.633 115.088 564.378 115.088H560.447V128.762H564.378C564.633 128.762 564.841 128.702 565.001 128.582C565.193 128.462 565.289 128.322 565.289 128.162Z" fill="#8B4A3D"/>
<path fill-rule="evenodd" clip-rule="evenodd" d="M605.72 65.1121C605.432 64.6925 605.189 64.3371 603.934 64.0234C602.816 64.0234 602.458 64.8074 602.684 66.7584C602.983 69.3454 603.245 69.4764 607.499 69.1644C609.974 68.9834 612.311 68.3284 612.693 67.7114C613.152 66.9694 614.079 67.3844 615.423 68.9344C616.542 70.2254 617.216 71.6734 616.92 72.1524C616.624 72.6314 616.949 73.0234 617.641 73.0234C618.492 73.0234 618.571 73.3524 617.886 74.0374C617.329 74.5944 614.584 75.1024 611.788 75.1654C603.392 75.3544 603.154 76.9784 611.5 77.1244C615.625 77.1964 618.212 77.4614 617.25 77.7124C614.379 78.4624 615.263 80.9014 618.75 81.8534L622 82.7404L617.211 83.5014C613.429 84.1024 612.045 83.9214 610.632 82.6424C609.648 81.7524 607.865 81.0234 606.671 81.0234C605.477 81.0234 604.5 80.5464 604.5 79.9644C604.5 79.3824 603.992 79.2194 603.372 79.6024C602.624 80.0654 602.45 82.2734 602.857 86.1614C603.403 91.3844 603.271 92.0234 601.652 92.0234C600.055 92.0234 599.892 91.3384 600.304 86.3704L600.773 80.7174L596.887 81.3594C594.749 81.7124 592.019 82.0064 590.821 82.0124C590.033 82.0162 589.51 82.1454 589.076 82.6971C590.218 81.0264 591.498 77.4136 591.568 76.2615C591.677 77.0435 593.053 76.8912 594.934 75.6584C596.306 74.7594 598.233 74.0164 599.215 74.0084C600.733 73.9954 600.776 73.8474 599.5 73.0234C597.524 71.7464 594.211 71.7464 595 73.0234C595.34 73.5734 594.943 74.0234 594.118 74.0234C593.557 74.0234 592.927 74.2456 592.468 74.5726C593.897 73.4013 594.056 70.1596 593.536 69.0388C593.848 69.4342 595.193 69.6524 597.482 69.5904C599.014 69.5494 600.095 68.8534 600.305 67.7734C600.691 65.7974 600.344 65.7754 595.619 67.4854C594.211 67.9949 593.509 68.4555 593.468 68.8158C593.25 67.5486 591.574 62.7136 590.935 61.5501C591.019 61.6688 591.193 61.8088 591.453 61.9734C593.033 62.9724 598.422 62.2864 599.95 60.8914C600.541 60.3514 600.482 60.0234 599.794 60.0234C599.18 60.0234 598.92 59.1334 599.21 58.0234C599.858 55.5464 598.723 55.5114 595.601 57.9124C593.792 59.3034 593.546 59.8934 594.601 60.3114C595.37 60.6164 594.65 60.9084 593 60.9594C591.557 61.0047 590.882 61.1294 590.877 61.3967C590.316 60.5446 588.15 57.6186 584.43 57.181C587.333 57.3823 592.5 55.1392 592.5 53.3154C592.5 52.6044 593.624 52.0234 595 52.0234C596.375 52.0234 597.5 52.4734 597.5 53.0234C597.5 53.5734 597.95 54.0234 598.5 54.0234C600.239 54.0234 599.582 50.4074 597.5 48.5234C595.701 46.8954 595.5 46.8804 595.5 48.3684C595.5 49.7194 594.536 49.9924 590.25 49.8554C585.931 49.7174 585.665 49.6174 588.75 49.2954C591.165 49.0424 592.5 48.3904 592.5 47.4634C592.5 45.6774 597.126 45.5124 597.841 47.2734C598.222 48.2144 598.61 48.1524 599.409 47.0234C601.163 44.5424 600.72 42.7324 598.501 43.3124C597.402 43.6004 596.25 43.4274 595.942 42.9294C595.634 42.4314 595.971 42.0164 596.691 42.0084C597.641 41.9974 597.589 41.7294 596.5 41.0314C595.675 40.5014 594.212 40.3144 593.25 40.6134C592.288 40.9134 591.5 40.7034 591.5 40.1484C591.5 39.5924 593.413 39.0004 595.75 38.8304C599.283 38.5754 600.054 38.1434 600.32 36.2734C600.583 34.4174 600.146 34.0034 597.82 33.9074C596.129 33.8374 595.701 33.6084 596.75 33.3344C597.712 33.0824 598.5 32.4294 598.5 31.8824C598.5 31.3254 597.57 31.1834 596.382 31.5614C594.85 32.0474 594.388 31.8584 594.715 30.8784C594.963 30.1334 595.692 29.4674 596.333 29.3984C600.929 28.9064 601.021 28.8734 599.518 28.2834C597.635 27.5444 595.088 25.0334 596.179 24.9914C596.63 24.9744 597.898 24.2814 598.995 23.4524C600.707 22.1584 600.778 21.8104 599.495 20.9994C598.499 20.3694 598.418 20.0494 599.25 20.0384C600.81 20.0194 600.907 17.3254 599.366 16.8124C598.605 16.5584 598.732 15.9344 599.751 14.9154C600.587 14.0794 601.26 12.5244 601.248 11.4594C601.236 10.3944 604.34 8.84841 604.479 8.02341C604.642 7.05441 601.882 7.23141 602.155 8.52341L602.401 9.68552L602.444 9.88736C602.647 10.8459 602.874 11.9221 603.041 12.7064C603.296 13.9074 604.404 15.1754 605.502 15.5244C606.601 15.8724 607.5 16.6044 607.5 17.1494C607.5 17.6954 607.05 17.8634 606.5 17.5234C605.95 17.1834 605.5 17.8324 605.5 18.9644C605.5 20.2464 604.84 21.0354 603.75 21.0554C602.167 21.0844 602.185 21.2264 603.941 22.5554C605.251 23.5454 605.43 24.0234 604.491 24.0234C603.409 24.0234 603.367 24.2904 604.3 25.2234C605.839 26.7624 605.822 27.7664 604.25 28.3064C603.563 28.5434 603.771 28.6224 604.713 28.4834C605.656 28.3434 606.948 28.8584 607.586 29.6264C608.497 30.7244 608.398 31.0234 607.122 31.0234C604.839 31.0234 605.107 32.6344 607.69 34.4434C610.719 36.5654 609.16 37.6854 606.031 35.6354C604.628 34.7164 603.433 34.4334 603.35 35.0004C602.9 38.0684 603.234 38.4744 606.337 38.6304C610.205 38.8244 613.294 41.0234 609.7 41.0234C606.375 41.0234 606.902 44.0004 610.25 44.1284C612.792 44.2254 612.722 44.3194 609.332 45.3784C604.168 46.9904 604.066 47.4814 608.827 47.8154C614.416 48.2074 615.679 49.7114 611.136 50.5644L607.511 51.2444L609.913 53.1334C611.234 54.1734 612.707 55.0234 613.185 55.0234C613.664 55.0234 614.826 55.9234 615.768 57.0234C617.435 58.9694 617.38 59.0284 613.74 59.2014C611.683 59.2994 609.1 59.3594 608 59.3344C606.9 59.3104 605.669 59.7924 605.265 60.4064C604.757 61.1794 604.526 61.1194 604.515 60.2144C604.507 59.4944 604.05 59.1834 603.5 59.5234C601.989 60.4574 601.802 62 603.5 62C604.001 61.8902 605.45 61.9377 607.067 61.9907C608.083 62.024 609.165 62.0595 610.12 62.0595C612.595 62.0595 615.66 62.4734 616 63.0234C616.34 63.5734 615.74 64.0234 614.666 64.0234C613.592 64.0234 612.455 64.6984 612.138 65.5234C611.471 67.2614 608.667 67.4644 606.5 65.9324C606.077 65.6332 605.891 65.3613 605.72 65.1121ZM593.5 54.0234C593.5 54.5734 593.923 55.0234 594.441 55.0234C594.959 55.0234 595.66 54.5734 596 54.0234C596.34 53.4734 595.916 53.0234 595.059 53.0234C594.202 53.0234 593.5 53.4734 593.5 54.0234ZM602.961 56.9594C603.648 58.0724 607.5 57.9454 607.5 56.8104C607.5 56.3774 606.348 56.0234 604.941 56.0234C603.534 56.0234 602.642 56.4444 602.961 56.9594ZM607 73.0234C606.626 73.6284 608.009 74.0234 610.5 74.0234C612.991 74.0234 614.374 73.6284 614 73.0234C613.66 72.4734 612.085 72.0234 610.5 72.0234C608.915 72.0234 607.34 72.4734 607 73.0234Z" fill="#57694E"/>
<path fill-rule="evenodd" clip-rule="evenodd" d="M405.113 11.5554C405.5 9.9234 406.758 7.8004 407.908 6.8384C409.059 5.8774 410.337 5.0754 410.75 5.0564C414.222 4.9024 406.117 72.8204 401.864 79.5234C400.234 82.0904 394.031 85.4414 392.205 84.7404C390.646 84.1424 380.5 64.1744 380.5 61.7044C380.5 60.8444 380.084 59.8844 379.576 59.5704C379.069 59.2564 377.875 56.6564 376.923 53.7924C375.972 50.9284 374.295 46.5524 373.196 44.0684L371.198 39.5514L369.357 46.5374C368.345 50.3794 366.835 55.9984 366.001 59.0234C365.167 62.0484 363.139 69.4734 361.493 75.5234C359.39 83.2514 357.831 87.0804 356.25 88.3964L354 90.2684L353.667 86.8964C353.376 83.9454 355.534 69.6684 358.533 54.6974C359.065 52.0424 359.5 48.3584 359.5 46.5104C359.5 44.6624 360.397 39.4094 361.493 34.8364C362.589 30.2644 363.489 24.2474 363.493 21.4644C363.503 14.4424 365.075 12.5694 370.362 13.2784C373.786 13.7374 374.711 13.4974 375.55 11.9304C376.894 9.4184 380.5 9.3974 380.5 11.9014C380.5 12.9344 379.786 15.4884 378.913 17.5764C376.455 23.4604 377.88 30.5044 385.134 48.3394C386.435 51.5384 387.5 54.9704 387.5 55.9664C387.5 56.9634 388.175 58.3384 389 59.0234C389.825 59.7084 390.5 60.8744 390.5 61.6154C390.5 63.4884 394.521 71.0234 395.521 71.0234C397.646 71.0234 400.633 51.5224 401.878 29.5234C402.096 25.6734 402.755 20.7234 403.342 18.5234C403.93 16.3234 404.727 13.1874 405.113 11.5554Z" fill="#57694E"/>
<path fill-rule="evenodd" clip-rule="evenodd" d="M235.068 26.5234C236.467 19.0614 237.338 16.7084 241.823 8.2734C243.162 5.7544 244.202 5.0234 246.442 5.0234C248.032 5.0234 249.528 5.5864 249.767 6.2734C250.457 8.2654 249.347 20.4274 248.379 21.4734C247.895 21.9954 247.5 24.7184 247.5 27.5234C247.5 30.3284 247.035 33.0884 246.466 33.6574C245.897 34.2264 244.978 37.1284 244.423 40.1074C243.867 43.0864 242.977 47.5484 242.444 50.0234C240.369 59.6564 238.765 71.3224 239.257 73.2024C239.717 74.9604 240.325 75.0994 244.886 74.4834C247.699 74.1034 250.758 73.3954 251.684 72.9084C252.611 72.4214 254.243 72.0234 255.312 72.0234C256.381 72.0234 257.815 71.3484 258.5 70.5234C260.817 67.7314 262.5 68.7614 262.5 72.9724C262.5 76.2754 261.953 77.3384 259.156 79.4724C257.316 80.8754 254.654 82.0234 253.239 82.0234C251.824 82.0234 250.48 82.5844 250.251 83.2704C249.664 85.0314 232.98 85.6664 230.977 84.0044C229.223 82.5484 228.97 72.7444 230.496 65.3494C233.27 51.9094 234.479 41.6284 233.365 40.9404C232.668 40.5094 232.486 39.1294 232.897 37.3794C233.266 35.8084 234.243 30.9234 235.068 26.5234Z" fill="#57694E"/>
<path fill-rule="evenodd" clip-rule="evenodd" d="M88.193 14.0884C89.056 10.7884 92.439 8.5944 99.353 6.8514C107.847 4.7094 130.096 4.7444 131.427 6.9014C131.894 7.6594 132.724 8.0034 133.271 7.6654C133.818 7.3274 135.443 7.9774 136.882 9.1094C139.082 10.8394 139.5 11.9664 139.5 16.1634C139.5 20.9404 139.238 21.4174 133.512 27.0914C130.219 30.3534 126.881 33.0234 126.095 33.0234C125.31 33.0234 124.517 33.3784 124.333 33.8124C123.983 34.6424 116.608 39.2024 110.25 42.5214C108.156 43.6144 106.5 45.2284 106.5 46.1774C106.5 47.8224 111.501 51.0234 114.071 51.0234C114.767 51.0234 117.576 52.1484 120.313 53.5234C123.051 54.8984 125.787 56.0234 126.394 56.0234C128.356 56.0234 135.5 63.7254 135.5 65.8414C135.5 69.8934 133.533 72.9194 129.302 75.3754C124.519 78.1524 113.633 82.0234 110.608 82.0234C109.532 82.0234 106.39 82.5454 103.625 83.1844C99.852 84.0544 98.522 84.8434 98.299 86.3434C97.901 89.0054 94.43 89.4714 93.771 86.9514C93.382 85.4654 92.377 85.0234 89.383 85.0234C87.248 85.0234 85.5 84.5734 85.5 84.0234C85.5 82.5344 89.291 79.0234 90.899 79.0234C92.237 79.0234 93.25 72.6254 93.59 62.0234C93.895 52.5394 93.606 51.2664 91 50.6124C87.396 49.7084 87.656 46.1684 91.431 44.7434C94.032 43.7614 94.482 42.9454 95.431 37.4984C96.019 34.1224 96.5 29.4854 96.5 27.1944C96.5 23.8294 97.18 22.2764 100.04 19.1104C101.988 16.9554 103.221 14.9694 102.782 14.6974C102.342 14.4264 99.962 14.5934 97.491 15.0704C89.842 16.5454 87.612 16.3104 88.193 14.0884ZM109.164 15.6864C108.438 18.2224 106.762 27.5524 106.005 33.2804L105.375 38.0374L108.188 36.8424C109.734 36.1854 113.639 33.9324 116.864 31.8354C120.089 29.7384 122.934 28.0234 123.185 28.0234C124.463 28.0234 128.5 21.9034 128.5 19.9654C128.5 17.0274 124.077 15.2034 114.845 14.3344C110.457 13.9214 109.612 14.1224 109.164 15.6864ZM103.003 57.0144C102.13 59.7644 101.735 62.4274 101.026 70.3314C100.438 76.8864 100.489 77.0994 102.392 76.0814C103.479 75.4994 105.1 75.0234 105.993 75.0234C108.628 75.0234 124.5 66.9634 124.5 65.6254C124.5 63.5784 119.088 60.2414 111.419 57.5624C107.422 56.1664 104.035 55.0234 103.893 55.0234C103.751 55.0234 103.35 55.9194 103.003 57.0144Z" fill="#57694E"/>
<path fill-rule="evenodd" clip-rule="evenodd" d="M27.99 13.0504C28.739 10.9274 29.662 7.1274 30.04 4.6064C30.746 -0.100597 32.491 -1.7486 32.511 2.2734C32.525 5.2494 35.192 13.9474 36.617 15.6644C37.493 16.7194 37.363 17.0234 36.039 17.0234C35.101 17.0234 34.486 17.3604 34.672 17.7734C34.858 18.1864 35.661 20.2114 36.456 22.2734C37.251 24.3364 38.261 26.0234 38.701 26.0234C39.14 26.0234 39.5 26.6984 39.5 27.5234C39.5 28.3484 39.06 29.0234 38.521 29.0234C37.259 29.0234 39.379 34.1084 41.316 35.7274C42.2 36.4664 42.526 37.8154 42.16 39.2154C41.408 42.0894 44.41 48.7224 46.75 49.3594C47.712 49.6214 48.5 50.5114 48.5 51.3364C48.5 52.3434 47.844 52.6644 46.5 52.3134C45.4 52.0254 44.5 52.2084 44.5 52.7194C44.5 54.8564 48.55 61.7334 51.414 64.4604C53.111 66.0754 54.5 67.7364 54.5 68.1504C54.5 68.5644 52.991 69.0424 51.147 69.2134L47.794 69.5234L50.757 75.9314C52.451 79.5944 55.794 84.4124 58.562 87.1814L63.405 92.0234L59.202 92.0054C54.903 91.9864 40.318 89.6604 37.351 88.5204C34.901 87.5794 34.524 89.0594 36.079 93.5264C38.227 99.7004 38.162 99.7784 30.884 99.7104L24.269 99.6484L25.526 88.9514L20.263 89.6294C17.368 90.0024 13.958 90.6934 12.685 91.1654C11.412 91.6374 8.037 92.0084 5.185 91.9904L0 91.9564L4.594 87.7404C8.585 84.0774 15.5 72.8244 15.5 69.9934C15.5 69.4604 14.15 69.0234 12.5 69.0234C8.597 69.0234 8.714 67.7514 13 63.5894C14.925 61.7194 16.5 59.5324 16.5 58.7294C16.5 57.9254 17.175 56.7084 18 56.0234C18.825 55.3384 19.5 53.9334 19.5 52.9014C19.5 51.8684 18.825 51.0234 18 51.0234C16.184 51.0234 16.008 49.4264 17.75 48.7564C18.438 48.4914 19.939 46.5144 21.086 44.3624C22.706 41.3234 22.929 40.0384 22.086 38.6084C21.277 37.2354 21.316 36.6514 22.241 36.3144C22.924 36.0664 24.233 34.2814 25.149 32.3494C26.567 29.3624 26.606 28.7014 25.408 27.9304C24.291 27.2104 24.262 26.8544 25.268 26.2034C25.966 25.7524 26.931 24.0644 27.414 22.4534C27.897 20.8414 28.642 18.6574 29.069 17.5994C29.683 16.0834 29.507 15.8064 28.238 16.2934C26.789 16.8494 26.764 16.5264 27.99 13.0504Z" fill="#57694E"/>
<path d="M161.108 57.8C161.084 58.76 161.036 59.732 160.964 60.716C160.916 61.676 160.832 62.648 160.712 63.632H159.776L158.3 59.672H150.452V69.212H156.32L157.724 66.548H158.624C158.768 68.924 158.768 71.348 158.624 73.82H157.724L156.32 71.084H150.452V81.128H158.732L160.496 76.808H161.396C161.564 77.816 161.684 78.836 161.756 79.868C161.828 80.9 161.84 81.944 161.792 83H144.044V81.956C144.884 81.572 145.868 81.284 146.996 81.092V59.744C146.516 59.648 146.024 59.528 145.52 59.384C145.016 59.216 144.524 59.036 144.044 58.844V57.8H161.108ZM172.305 83H164.313V81.956C165.177 81.572 166.041 81.284 166.905 81.092L176.013 57.368H177.057L186.165 81.092C186.645 81.188 187.113 81.296 187.569 81.416C188.049 81.536 188.493 81.716 188.901 81.956V83H179.685V81.956C180.165 81.764 180.657 81.596 181.161 81.452C181.665 81.308 182.157 81.188 182.637 81.092L180.189 74.504H171.585L169.209 81.092C170.217 81.236 171.249 81.524 172.305 81.956V83ZM172.305 72.632H179.577L176.733 65L176.049 61.904H175.977L175.077 65.072L172.305 72.632ZM196.699 81.092C197.251 81.212 197.779 81.344 198.283 81.488C198.787 81.608 199.279 81.764 199.759 81.956V83H190.291V81.956C190.819 81.716 191.323 81.536 191.803 81.416C192.283 81.296 192.763 81.188 193.243 81.092V59.744C192.619 59.624 192.067 59.492 191.587 59.348C191.107 59.18 190.675 59.012 190.291 58.844V57.8H193.459C194.419 57.8 195.463 57.752 196.591 57.656C197.743 57.56 198.859 57.512 199.939 57.512C201.115 57.512 202.207 57.644 203.215 57.908C204.247 58.172 205.135 58.592 205.879 59.168C206.623 59.744 207.199 60.476 207.607 61.364C208.039 62.252 208.255 63.32 208.255 64.568C208.255 66.32 207.787 67.772 206.851 68.924C205.939 70.076 204.691 70.904 203.107 71.408C204.139 73.04 205.219 74.66 206.347 76.268C207.475 77.876 208.651 79.472 209.875 81.056L211.819 82.1V83H207.463L206.095 81.992C205.423 81.152 204.811 80.336 204.259 79.544C203.707 78.728 203.191 77.912 202.711 77.096C202.231 76.256 201.775 75.416 201.343 74.576C200.935 73.712 200.515 72.8 200.083 71.84H196.699V81.092ZM199.147 59.384C198.571 59.384 198.091 59.396 197.707 59.42C197.347 59.444 197.011 59.492 196.699 59.564V70.328H199.291C200.947 70.328 202.255 69.8 203.215 68.744C204.199 67.688 204.691 66.296 204.691 64.568C204.691 62.792 204.175 61.484 203.143 60.644C202.111 59.804 200.779 59.384 199.147 59.384Z" fill="#8B4A3D"/>
<path d="M277.992 83H270V81.956C270.864 81.572 271.728 81.284 272.592 81.092L281.7 57.368H282.744L291.852 81.092C292.332 81.188 292.8 81.296 293.256 81.416C293.736 81.536 294.18 81.716 294.588 81.956V83H285.372V81.956C285.852 81.764 286.344 81.596 286.848 81.452C287.352 81.308 287.844 81.188 288.324 81.092L285.876 74.504H277.272L274.896 81.092C275.904 81.236 276.936 81.524 277.992 81.956V83ZM277.992 72.632H285.264L282.42 65L281.736 61.904H281.664L280.764 65.072L277.992 72.632ZM308.686 57.8H316.642V58.844C316.162 59.06 315.694 59.24 315.238 59.384C314.782 59.528 314.338 59.648 313.906 59.744L306.67 69.32C307.27 70.112 307.954 71 308.722 71.984C309.514 72.968 310.33 73.988 311.17 75.044C312.034 76.076 312.91 77.132 313.798 78.212C314.71 79.268 315.598 80.276 316.462 81.236L318.19 82.1V83H313.69L312.466 82.136C311.05 80.48 309.634 78.692 308.218 76.772C306.826 74.852 305.47 72.908 304.15 70.94H302.386V81.092C303.49 81.284 304.39 81.572 305.086 81.956V83H295.978V81.956C296.938 81.572 297.922 81.284 298.93 81.092V59.744C297.85 59.6 296.866 59.3 295.978 58.844V57.8H305.086V58.844C304.702 59.012 304.282 59.18 303.826 59.348C303.37 59.492 302.89 59.624 302.386 59.744V69.716L304.546 69.212L311.278 59.744C310.798 59.624 310.342 59.492 309.91 59.348C309.478 59.204 309.07 59.036 308.686 58.844V57.8ZM336.676 57.8C336.652 58.76 336.604 59.732 336.532 60.716C336.484 61.676 336.4 62.648 336.28 63.632H335.344L333.868 59.672H326.02V69.212H331.888L333.292 66.548H334.192C334.336 68.924 334.336 71.348 334.192 73.82H333.292L331.888 71.084H326.02V81.128H334.3L336.064 76.808H336.964C337.132 77.816 337.252 78.836 337.324 79.868C337.396 80.9 337.408 81.944 337.36 83H319.612V81.956C320.452 81.572 321.436 81.284 322.564 81.092V59.744C322.084 59.648 321.592 59.528 321.088 59.384C320.584 59.216 320.092 59.036 319.612 58.844V57.8H336.676Z" fill="#8B4A3D"/>
<path d="M415.908 70.4C415.908 68.528 416.16 66.8 416.664 65.216C417.192 63.608 417.936 62.228 418.896 61.076C419.88 59.9 421.08 58.988 422.496 58.34C423.912 57.692 425.52 57.368 427.32 57.368C429.12 57.368 430.728 57.692 432.144 58.34C433.56 58.988 434.748 59.9 435.708 61.076C436.692 62.228 437.436 63.608 437.94 65.216C438.468 66.8 438.732 68.528 438.732 70.4C438.732 72.272 438.468 74.012 437.94 75.62C437.436 77.204 436.692 78.584 435.708 79.76C434.748 80.912 433.56 81.812 432.144 82.46C430.728 83.108 429.12 83.432 427.32 83.432C425.52 83.432 423.912 83.108 422.496 82.46C421.08 81.812 419.88 80.912 418.896 79.76C417.936 78.584 417.192 77.204 416.664 75.62C416.16 74.012 415.908 72.272 415.908 70.4ZM419.76 70.4C419.76 71.936 419.916 73.388 420.228 74.756C420.564 76.1 421.056 77.276 421.704 78.284C422.352 79.292 423.168 80.096 424.152 80.696C425.136 81.272 426.3 81.56 427.644 81.56C428.868 81.56 429.936 81.272 430.848 80.696C431.76 80.096 432.504 79.292 433.08 78.284C433.68 77.276 434.124 76.1 434.412 74.756C434.724 73.388 434.88 71.936 434.88 70.4C434.88 68.864 434.724 67.424 434.412 66.08C434.1 64.712 433.62 63.524 432.972 62.516C432.324 61.508 431.508 60.716 430.524 60.14C429.54 59.54 428.376 59.24 427.032 59.24C425.712 59.24 424.584 59.54 423.648 60.14C422.736 60.716 421.992 61.508 421.416 62.516C420.84 63.524 420.42 64.712 420.156 66.08C419.892 67.424 419.76 68.864 419.76 70.4ZM449.9 81.092C450.452 81.212 450.98 81.344 451.484 81.488C451.988 81.608 452.48 81.764 452.96 81.956V83H443.492V81.956C444.02 81.716 444.524 81.536 445.004 81.416C445.484 81.296 445.964 81.188 446.444 81.092V59.744C445.82 59.624 445.268 59.492 444.788 59.348C444.308 59.18 443.876 59.012 443.492 58.844V57.8H446.66C447.62 57.8 448.664 57.752 449.792 57.656C450.944 57.56 452.06 57.512 453.14 57.512C454.316 57.512 455.408 57.644 456.416 57.908C457.448 58.172 458.336 58.592 459.08 59.168C459.824 59.744 460.4 60.476 460.808 61.364C461.24 62.252 461.456 63.32 461.456 64.568C461.456 66.32 460.988 67.772 460.052 68.924C459.14 70.076 457.892 70.904 456.308 71.408C457.34 73.04 458.42 74.66 459.548 76.268C460.676 77.876 461.852 79.472 463.076 81.056L465.02 82.1V83H460.664L459.296 81.992C458.624 81.152 458.012 80.336 457.46 79.544C456.908 78.728 456.392 77.912 455.912 77.096C455.432 76.256 454.976 75.416 454.544 74.576C454.136 73.712 453.716 72.8 453.284 71.84H449.9V81.092ZM452.348 59.384C451.772 59.384 451.292 59.396 450.908 59.42C450.548 59.444 450.212 59.492 449.9 59.564V70.328H452.492C454.148 70.328 455.456 69.8 456.416 68.744C457.4 67.688 457.892 66.296 457.892 64.568C457.892 62.792 457.376 61.484 456.344 60.644C455.312 59.804 453.98 59.384 452.348 59.384ZM481.612 83H471.496V81.956C472.024 81.764 472.552 81.596 473.08 81.452C473.632 81.308 474.22 81.188 474.844 81.092V59.672H469.336L467.428 64.82H466.528C466.456 64.34 466.396 63.8 466.348 63.2C466.3 62.576 466.252 61.952 466.204 61.328C466.18 60.68 466.156 60.056 466.132 59.456C466.108 58.832 466.096 58.28 466.096 57.8H487.012C487.012 58.28 487 58.82 486.976 59.42C486.953 60.02 486.916 60.644 486.868 61.292C486.844 61.916 486.808 62.54 486.761 63.164C486.736 63.764 486.688 64.316 486.617 64.82H485.68L483.808 59.672H478.3V81.092C478.924 81.212 479.5 81.332 480.028 81.452C480.58 81.572 481.108 81.74 481.612 81.956V83ZM499.654 83H490.546V81.956C491.506 81.572 492.49 81.284 493.498 81.092V59.744C492.37 59.576 491.386 59.276 490.546 58.844V57.8H499.654V58.844C499.246 59.06 498.814 59.24 498.358 59.384C497.902 59.528 497.434 59.648 496.954 59.744V69.14H508.258V59.744C507.754 59.624 507.274 59.492 506.818 59.348C506.386 59.204 505.966 59.036 505.558 58.844V57.8H514.666V58.844C514.234 59.084 513.754 59.276 513.226 59.42C512.722 59.54 512.218 59.648 511.714 59.744V81.092C512.266 81.188 512.794 81.308 513.298 81.452C513.802 81.596 514.258 81.764 514.666 81.956V83H505.558V81.956C506.422 81.572 507.322 81.284 508.258 81.092V71.012H496.954V81.092C497.434 81.188 497.902 81.308 498.358 81.452C498.814 81.596 499.246 81.764 499.654 81.956V83Z" fill="#8B4A3D"/>
<path fill-rule="evenodd" clip-rule="evenodd" d="M574.765 57.015C579.05 56.585 582.423 56.9756 583.66 57.358C583.754 57.3657 583.846 57.375 583.938 57.3857C587.658 57.8233 589.823 60.7494 590.384 61.6015C591.024 62.765 592.757 67.7534 592.975 69.0206C593.423 69.9756 593.404 73.6061 591.976 74.7773C591.906 75.9294 590.506 81.6933 589.363 83.364C589.249 83.6511 589.163 83.7898 589.081 83.9218C588.846 84.3007 588.645 84.6244 587.928 88.249C585.574 100.16 585.354 100.503 580.095 100.466L575.423 100.432L577.673 98.555C580.006 96.609 580.657 92.206 578.998 89.587C577.625 87.417 574.923 90.626 574.923 94.428C574.923 97.283 574.672 97.499 571.352 97.499C569.387 97.499 567.105 98.174 566.28 98.999C564.57 100.71 557.923 101.05 557.923 99.428C557.923 98.838 558.644 97.635 559.526 96.754C561.442 94.837 560.824 88.971 558.457 86.604C557.078 85.226 556.923 85.26 556.923 86.94C556.923 87.969 555.798 90.285 554.423 92.088C553.048 93.891 551.923 95.83 551.923 96.397C551.923 97.998 548.755 99.238 545.183 99.036C540.867 98.791 540.407 98.113 543.451 96.484C546.517 94.843 547.316 92.071 546.54 85.772C545.932 80.835 545.795 76.252 546.194 74.187C546.324 73.51 545 72.862 543.116 72.681C541.297 72.507 539.561 71.719 539.259 70.931C538.916 70.039 537.288 69.499 534.938 69.499C531.105 69.499 528.223 67.441 529.396 65.543C529.751 64.969 530.914 64.499 531.982 64.499C533.05 64.499 533.923 64.156 533.923 63.736C533.923 62.972 536.886 61.166 540.173 59.926C541.135 59.563 541.923 58.696 541.923 57.999C541.923 56.615 546.691 55.315 547.423 56.499C547.921 57.305 550.745 57.006 558.669 55.307C563.271 54.32 564.154 54.398 565.866 55.947C567.516 57.44 568.888 57.605 574.765 57.015Z" fill="#8B4A3D"/>
</svg>
