<svg xmlns="http://www.w3.org/2000/svg" width="640" height="138" viewBox="0 0 640 138" version="1.1">
	<path d="M 37.540 5.583 C 37.162 8.104, 36.239 11.904, 35.490 14.027 C 34.264 17.503, 34.289 17.826, 35.738 17.270 C 37.007 16.783, 37.183 17.060, 36.569 18.576 C 36.142 19.634, 35.397 21.818, 34.914 23.430 C 34.431 25.041, 33.466 26.729, 32.768 27.180 C 31.762 27.831, 31.791 28.187, 32.908 28.907 C 34.106 29.678, 34.067 30.339, 32.649 33.326 C 31.733 35.258, 30.424 37.043, 29.741 37.291 C 28.816 37.628, 28.777 38.212, 29.586 39.585 C 30.429 41.015, 30.206 42.300, 28.586 45.339 C 27.439 47.491, 25.938 49.468, 25.250 49.733 C 23.508 50.403, 23.684 52, 25.500 52 C 26.325 52, 27 52.845, 27 53.878 C 27 54.910, 26.325 56.315, 25.500 57 C 24.675 57.685, 24 58.902, 24 59.706 C 24 60.509, 22.425 62.696, 20.500 64.566 C 16.214 68.728, 16.097 70, 20 70 C 21.650 70, 23 70.437, 23 70.970 C 23 73.801, 16.085 85.054, 12.094 88.717 L 7.500 92.933 12.685 92.967 C 15.537 92.985, 18.912 92.614, 20.185 92.142 C 21.458 91.670, 24.868 90.979, 27.763 90.606 L 33.026 89.928 32.397 95.276 L 31.769 100.625 38.384 100.687 C 45.662 100.755, 45.727 100.677, 43.579 94.503 C 42.024 90.036, 42.401 88.556, 44.851 89.497 C 47.818 90.637, 62.403 92.963, 66.702 92.982 L 70.905 93 66.062 88.158 C 63.294 85.389, 59.951 80.571, 58.257 76.908 L 55.294 70.500 58.647 70.190 C 60.491 70.019, 62 69.541, 62 69.127 C 62 68.713, 60.611 67.052, 58.914 65.437 C 56.050 62.710, 52 55.833, 52 53.696 C 52 53.185, 52.900 53.002, 54 53.290 C 55.344 53.641, 56 53.320, 56 52.313 C 56 51.488, 55.212 50.598, 54.250 50.336 C 51.910 49.699, 48.908 43.066, 49.660 40.192 C 50.026 38.792, 49.700 37.443, 48.816 36.704 C 46.879 35.085, 44.759 30, 46.021 30 C 46.560 30, 47 29.325, 47 28.500 C 47 27.675, 46.640 27, 46.201 27 C 45.761 27, 44.751 25.313, 43.956 23.250 C 43.161 21.188, 42.358 19.163, 42.172 18.750 C 41.986 18.337, 42.601 18, 43.539 18 C 44.863 18, 44.993 17.696, 44.117 16.641 C 42.692 14.924, 40.025 6.226, 40.011 3.250 C 39.991 -0.772, 38.246 0.876, 37.540 5.583 M 106.853 7.828 C 99.939 9.571, 96.556 11.765, 95.693 15.065 C 95.112 17.287, 97.342 17.522, 104.991 16.047 C 107.462 15.570, 109.842 15.403, 110.282 15.674 C 110.721 15.946, 109.488 17.932, 107.540 20.087 C 104.680 23.253, 104 24.806, 104 28.171 C 104 30.462, 103.519 35.099, 102.931 38.475 C 101.982 43.922, 101.532 44.738, 98.931 45.720 C 95.156 47.145, 94.896 50.685, 98.500 51.589 C 101.106 52.243, 101.395 53.516, 101.090 63 C 100.750 73.602, 99.737 80, 98.399 80 C 96.791 80, 93 83.511, 93 85 C 93 85.550, 94.748 86, 96.883 86 C 99.877 86, 100.882 86.442, 101.271 87.928 C 101.930 90.448, 105.401 89.982, 105.799 87.320 C 106.022 85.820, 107.352 85.031, 111.125 84.161 C 113.890 83.522, 117.032 83, 118.108 83 C 121.133 83, 132.019 79.129, 136.802 76.352 C 141.033 73.896, 143 70.870, 143 66.818 C 143 64.702, 135.856 57, 133.894 57 C 133.287 57, 130.551 55.875, 127.813 54.500 C 125.076 53.125, 122.267 52, 121.571 52 C 119.001 52, 114 48.799, 114 47.154 C 114 46.205, 115.656 44.591, 117.750 43.498 C 124.108 40.179, 131.483 35.619, 131.833 34.789 C 132.017 34.355, 132.810 34, 133.595 34 C 134.381 34, 137.719 31.330, 141.012 28.068 C 146.738 22.394, 147 21.917, 147 17.140 C 147 12.943, 146.582 11.816, 144.382 10.086 C 142.943 8.954, 141.318 8.304, 140.771 8.642 C 140.224 8.980, 139.394 8.636, 138.927 7.878 C 137.596 5.721, 115.347 5.686, 106.853 7.828 M 249.323 9.250 C 244.838 17.685, 243.967 20.038, 242.568 27.500 C 241.743 31.900, 240.766 36.785, 240.397 38.356 C 239.986 40.106, 240.168 41.486, 240.865 41.917 C 241.979 42.605, 240.770 52.886, 237.996 66.326 C 236.470 73.721, 236.723 83.525, 238.477 84.981 C 240.480 86.643, 257.164 86.008, 257.751 84.247 C 257.980 83.561, 259.324 83, 260.739 83 C 262.154 83, 264.816 81.852, 266.656 80.449 C 269.453 78.315, 270 77.252, 270 73.949 C 270 69.738, 268.317 68.708, 266 71.500 C 265.315 72.325, 263.881 73, 262.812 73 C 261.743 73, 260.111 73.398, 259.184 73.885 C 258.258 74.372, 255.199 75.080, 252.386 75.460 C 247.825 76.076, 247.217 75.937, 246.757 74.179 C 246.265 72.299, 247.869 60.633, 249.944 51 C 250.477 48.525, 251.367 44.063, 251.923 41.084 C 252.478 38.105, 253.397 35.203, 253.966 34.634 C 254.535 34.065, 255 31.305, 255 28.500 C 255 25.695, 255.395 22.972, 255.879 22.450 C 256.847 21.404, 257.957 9.242, 257.267 7.250 C 257.028 6.563, 255.532 6, 253.942 6 C 251.702 6, 250.662 6.731, 249.323 9.250 M 415.408 7.815 C 414.258 8.777, 413 10.900, 412.613 12.532 C 412.227 14.164, 411.430 17.300, 410.842 19.500 C 410.255 21.700, 409.596 26.650, 409.378 30.500 C 408.133 52.499, 405.146 72, 403.021 72 C 402.021 72, 398 64.465, 398 62.592 C 398 61.851, 397.325 60.685, 396.500 60 C 395.675 59.315, 395 57.940, 395 56.943 C 395 55.947, 393.935 52.515, 392.634 49.316 C 385.380 31.481, 383.955 24.437, 386.413 18.553 C 387.286 16.465, 388 13.911, 388 12.878 C 388 10.374, 384.394 10.395, 383.050 12.907 C 382.211 14.474, 381.286 14.714, 377.862 14.255 C 372.575 13.546, 371.003 15.419, 370.993 22.441 C 370.989 25.224, 370.089 31.241, 368.993 35.813 C 367.897 40.386, 367 45.639, 367 47.487 C 367 49.335, 366.565 53.019, 366.033 55.674 C 363.034 70.645, 360.876 84.922, 361.167 87.873 L 361.500 91.245 363.750 89.373 C 365.331 88.057, 366.890 84.228, 368.993 76.500 C 370.639 70.450, 372.667 63.025, 373.501 60 C 374.335 56.975, 375.845 51.356, 376.857 47.514 L 378.698 40.528 380.696 45.045 C 381.795 47.529, 383.472 51.905, 384.423 54.769 C 385.375 57.633, 386.569 60.233, 387.076 60.547 C 387.584 60.861, 388 61.821, 388 62.681 C 388 65.151, 398.146 85.119, 399.705 85.717 C 401.531 86.418, 407.734 83.067, 409.364 80.500 C 413.617 73.797, 421.722 5.879, 418.250 6.033 C 417.837 6.052, 416.559 6.854, 415.408 7.815 M 616.979 9 C 616.840 9.825, 616.736 11.371, 616.748 12.436 C 616.760 13.501, 616.087 15.056, 615.251 15.892 C 614.232 16.911, 614.105 17.535, 614.866 17.789 C 616.407 18.302, 616.310 20.996, 614.750 21.015 C 613.918 21.026, 613.999 21.346, 614.995 21.976 C 616.278 22.787, 616.207 23.135, 614.495 24.429 C 613.398 25.258, 612.130 25.951, 611.679 25.968 C 610.588 26.010, 613.135 28.521, 615.018 29.260 C 616.521 29.850, 616.429 29.883, 611.833 30.375 C 611.192 30.444, 610.463 31.110, 610.215 31.855 C 609.888 32.835, 610.350 33.024, 611.882 32.538 C 613.070 32.160, 614 32.302, 614 32.859 C 614 33.406, 613.212 34.059, 612.250 34.311 C 611.201 34.585, 611.629 34.814, 613.320 34.884 C 615.646 34.980, 616.083 35.394, 615.820 37.250 C 615.554 39.120, 614.783 39.552, 611.250 39.807 C 608.913 39.977, 607 40.569, 607 41.125 C 607 41.680, 607.788 41.890, 608.750 41.590 C 609.712 41.291, 611.175 41.478, 612 42.008 C 613.089 42.706, 613.141 42.974, 612.191 42.985 C 611.471 42.993, 611.134 43.408, 611.442 43.906 C 611.750 44.404, 612.902 44.577, 614.001 44.289 C 616.220 43.709, 616.663 45.519, 614.909 48 C 614.110 49.129, 613.722 49.191, 613.341 48.250 C 612.626 46.489, 608 46.654, 608 48.440 C 608 49.367, 606.665 50.019, 604.250 50.272 C 601.165 50.594, 601.431 50.694, 605.750 50.832 C 610.036 50.969, 611 50.696, 611 49.345 C 611 47.857, 611.201 47.872, 613 49.500 C 615.082 51.384, 615.739 55, 614 55 C 613.450 55, 613 54.550, 613 54 C 613 53.450, 611.875 53, 610.500 53 C 609.124 53, 608 53.581, 608 54.292 C 608 56.409, 601.038 59.091, 598.737 57.859 C 597.537 57.217, 594.127 57.086, 589.842 57.516 C 583.965 58.106, 582.593 57.941, 580.943 56.448 C 579.231 54.899, 578.348 54.821, 573.746 55.808 C 565.822 57.507, 562.998 57.806, 562.500 57 C 561.768 55.816, 557 57.116, 557 58.500 C 557 59.197, 556.212 60.064, 555.250 60.427 C 551.963 61.667, 549 63.473, 549 64.237 C 549 64.657, 548.127 65, 547.059 65 C 545.991 65, 544.828 65.470, 544.473 66.044 C 543.300 67.942, 546.182 70, 550.015 70 C 552.365 70, 553.993 70.540, 554.336 71.432 C 554.638 72.220, 556.374 73.008, 558.193 73.182 C 560.077 73.363, 561.401 74.011, 561.271 74.688 C 560.872 76.753, 561.009 81.336, 561.617 86.273 C 562.393 92.572, 561.594 95.344, 558.528 96.985 C 555.484 98.614, 555.944 99.292, 560.260 99.537 C 563.832 99.739, 567 98.499, 567 96.898 C 567 96.331, 568.125 94.392, 569.500 92.589 C 570.875 90.786, 572 88.470, 572 87.441 C 572 85.761, 572.155 85.727, 573.534 87.105 C 575.901 89.472, 576.519 95.338, 574.603 97.255 C 573.721 98.136, 573 99.339, 573 99.929 C 573 101.551, 579.647 101.211, 581.357 99.500 C 582.182 98.675, 584.464 98, 586.429 98 C 589.749 98, 590 97.784, 590 94.929 C 590 91.127, 592.702 87.918, 594.075 90.088 C 595.734 92.707, 595.083 97.110, 592.750 99.056 L 590.500 100.933 595.172 100.967 C 600.431 101.004, 600.651 100.661, 603.005 88.750 C 603.971 83.863, 604.469 82.998, 606.321 82.989 C 607.519 82.983, 610.249 82.689, 612.387 82.336 L 616.273 81.694 615.804 87.347 C 615.392 92.315, 615.555 93, 617.152 93 C 618.771 93, 618.903 92.361, 618.357 87.138 C 617.950 83.250, 618.124 81.042, 618.872 80.579 C 619.492 80.196, 620 80.359, 620 80.941 C 620 81.523, 620.977 82, 622.171 82 C 623.365 82, 625.148 82.729, 626.132 83.619 C 627.545 84.898, 628.929 85.079, 632.711 84.478 L 637.500 83.717 634.250 82.830 C 630.763 81.878, 629.879 79.439, 632.750 78.689 C 633.712 78.438, 631.125 78.173, 627 78.101 C 618.654 77.955, 618.892 76.331, 627.288 76.142 C 630.084 76.079, 632.829 75.571, 633.386 75.014 C 634.071 74.329, 633.992 74, 633.141 74 C 632.449 74, 632.124 73.608, 632.420 73.129 C 632.716 72.650, 632.042 71.202, 630.923 69.911 C 629.579 68.361, 628.652 67.946, 628.193 68.688 C 627.811 69.305, 625.474 69.960, 622.999 70.141 C 618.745 70.453, 618.483 70.322, 618.184 67.735 C 617.958 65.784, 618.316 65, 619.434 65 C 620.295 65, 621 64.550, 621 64 C 621 63.450, 620.325 63, 619.500 63 C 617.802 63, 617.489 61.434, 619 60.500 C 619.550 60.160, 620.007 60.471, 620.015 61.191 C 620.026 62.096, 620.257 62.156, 620.765 61.383 C 621.169 60.769, 622.400 60.287, 623.500 60.311 C 624.600 60.336, 627.183 60.276, 629.240 60.178 C 632.880 60.005, 632.935 59.946, 631.268 58 C 630.326 56.900, 629.164 56, 628.685 56 C 628.207 56, 626.734 55.150, 625.413 54.110 L 623.011 52.221 626.636 51.541 C 631.179 50.688, 629.916 49.184, 624.327 48.792 C 619.566 48.458, 619.668 47.967, 624.832 46.355 C 628.222 45.296, 628.292 45.202, 625.750 45.105 C 622.402 44.977, 621.875 42, 625.200 42 C 628.794 42, 625.705 39.801, 621.837 39.607 C 618.734 39.451, 618.400 39.045, 618.850 35.977 C 618.933 35.410, 620.128 35.693, 621.531 36.612 C 624.660 38.662, 626.219 37.542, 623.190 35.420 C 620.607 33.611, 620.339 32, 622.622 32 C 623.898 32, 623.997 31.701, 623.086 30.603 C 622.448 29.835, 621.156 29.320, 620.213 29.460 C 619.271 29.599, 619.063 29.520, 619.750 29.283 C 621.322 28.743, 621.339 27.739, 619.800 26.200 C 618.867 25.267, 618.909 25, 619.991 25 C 620.930 25, 620.751 24.522, 619.441 23.532 C 617.685 22.203, 617.667 22.061, 619.250 22.032 C 620.340 22.012, 621 21.223, 621 19.941 C 621 18.809, 621.450 18.160, 622 18.500 C 622.550 18.840, 623 18.672, 623 18.126 C 623 17.581, 622.101 16.849, 621.002 16.501 C 619.904 16.152, 618.796 14.884, 618.541 13.683 C 618.286 12.483, 617.888 10.600, 617.655 9.500 C 617.382 8.208, 617.142 8.031, 616.979 9 M 116.664 16.663 C 115.938 19.199, 114.262 28.529, 113.505 34.257 L 112.875 39.014 115.688 37.819 C 117.234 37.162, 121.139 34.909, 124.364 32.812 C 127.589 30.715, 130.434 29, 130.685 29 C 131.963 29, 136 22.880, 136 20.942 C 136 18.004, 131.577 16.180, 122.345 15.311 C 117.957 14.898, 117.112 15.099, 116.664 16.663 M 609 55 C 609 55.550, 609.423 56, 609.941 56 C 610.459 56, 611.160 55.550, 611.500 55 C 611.840 54.450, 611.416 54, 610.559 54 C 609.702 54, 609 54.450, 609 55 M 110.503 57.991 C 109.630 60.741, 109.235 63.404, 108.526 71.308 C 107.938 77.863, 107.989 78.076, 109.892 77.058 C 110.979 76.476, 112.600 76, 113.493 76 C 116.128 76, 132 67.940, 132 66.602 C 132 64.555, 126.588 61.218, 118.919 58.539 C 114.922 57.143, 111.535 56, 111.393 56 C 111.251 56, 110.850 56.896, 110.503 57.991 M 167 57.833 C 167 58.617, 164.291 59.045, 158.750 59.136 C 154.213 59.211, 151.512 59.467, 152.750 59.706 C 154.909 60.122, 155 60.554, 155 70.417 C 155 80.091, 154.868 80.757, 152.750 81.767 C 150.930 82.635, 151.927 82.837, 157.969 82.827 C 162.920 82.819, 165.574 83.221, 165.840 84.020 C 166.145 84.935, 166.417 84.943, 166.967 84.053 C 167.366 83.408, 169.781 82.812, 172.335 82.729 C 175.395 82.629, 176.640 82.240, 175.989 81.589 C 174.701 80.301, 174.725 76.383, 176.035 73.934 C 176.783 72.537, 178.137 72, 180.917 72 C 184.572 72, 184.834 72.217, 186.201 76.369 C 187.483 80.262, 187.469 80.854, 186.070 81.803 C 184.873 82.615, 185.805 82.851, 189.988 82.798 C 195.190 82.732, 195.359 82.650, 193.238 81.242 C 192.007 80.425, 191 78.997, 191 78.069 C 191 77.141, 190.339 75.509, 189.532 74.441 C 188.724 73.374, 188.049 71.514, 188.032 70.309 C 188.014 69.104, 187.608 67.876, 187.129 67.580 C 185.557 66.608, 184.878 60.695, 186.238 59.832 C 186.954 59.377, 185.121 59.051, 182 59.079 C 177.987 59.114, 177.065 59.355, 178.591 59.972 C 180.462 60.729, 181.580 62.664, 183.375 68.250 C 183.825 69.650, 183.343 70, 180.969 70 C 178.947 70, 178 69.503, 178 68.441 C 178 65.356, 176.151 68.116, 174.442 73.752 C 172.266 80.925, 168 85.016, 168 79.929 C 168 78.045, 167.857 78, 166.429 79.429 C 165.564 80.293, 163.590 81, 162.042 81 C 159.486 81, 159.175 80.608, 158.657 76.750 C 158.178 73.188, 158.246 68.701, 158.892 61.250 C 158.952 60.549, 160.331 60, 162.032 60 C 164.235 60, 165.285 60.597, 165.871 62.181 C 166.605 64.166, 166.738 64.061, 167.346 61.021 C 167.713 59.184, 167.786 57.452, 167.507 57.174 C 167.228 56.895, 167 57.192, 167 57.833 M 480.146 61 C 480.193 63.475, 480.437 64.717, 480.687 63.760 C 480.938 62.803, 482.573 61.606, 484.321 61.100 C 487.421 60.203, 487.433 60.178, 484.800 60.090 C 483.315 60.041, 481.641 59.212, 481.080 58.250 C 480.285 56.885, 480.080 57.491, 480.146 61 M 503 58.500 C 503 59.548, 501.871 60.031, 499.250 60.102 L 495.500 60.205 498.587 60.943 C 500.285 61.349, 502.198 62.004, 502.837 62.399 C 503.624 62.886, 504 62.129, 504 60.059 C 504 58.377, 503.775 57, 503.500 57 C 503.225 57, 503 57.675, 503 58.500 M 611.101 58.889 C 609.292 60.280, 609.046 60.870, 610.101 61.288 C 610.870 61.593, 610.150 61.885, 608.500 61.936 C 606.269 62.006, 605.873 62.266, 606.953 62.950 C 608.533 63.949, 613.922 63.263, 615.450 61.868 C 616.041 61.328, 615.982 61, 615.294 61 C 614.680 61, 614.420 60.110, 614.710 59 C 615.358 56.523, 614.223 56.488, 611.101 58.889 M 618.461 57.936 C 619.148 59.049, 623 58.922, 623 57.787 C 623 57.354, 621.848 57, 620.441 57 C 619.034 57, 618.142 57.421, 618.461 57.936 M 197.250 59.617 C 198.766 60.076, 199 61.494, 199 70.213 C 199 78.627, 198.713 80.498, 197.250 81.608 C 195.728 82.764, 196.215 82.936, 201 82.936 C 205.785 82.936, 206.272 82.764, 204.750 81.608 C 203.579 80.719, 203 78.910, 203 76.140 C 203 70.342, 205.108 70.713, 211.498 77.633 C 214.359 80.732, 217.220 83.093, 217.857 82.881 C 218.564 82.645, 218.039 81.444, 216.507 79.791 C 215.128 78.304, 214 76.673, 214 76.166 C 214 75.659, 213.325 74.685, 212.500 74 C 210.626 72.445, 210.555 69.359, 212.369 68.300 C 214.496 67.057, 215.154 63.593, 213.653 61.541 C 212.555 60.039, 210.701 59.630, 203.899 59.387 C 199.279 59.222, 196.287 59.325, 197.250 59.617 M 283.915 59.926 C 285.122 60.690, 285.072 61.641, 283.572 66.409 C 282.606 69.482, 281.407 72.249, 280.908 72.557 C 280.408 72.866, 280 74.132, 280 75.370 C 280 76.609, 279.100 78.589, 278 79.770 C 275.267 82.704, 275.435 83.009, 279.750 82.941 C 282.748 82.894, 283.184 82.666, 281.923 81.805 C 280.495 80.830, 280.491 80.324, 281.884 76.449 C 283.283 72.560, 283.768 72.137, 287.212 71.808 C 290.147 71.529, 291 71.802, 291 73.024 C 291 73.891, 291.406 75.028, 291.903 75.550 C 293.533 77.265, 293.602 80.477, 292.036 81.718 C 290.777 82.717, 291.446 82.942, 295.750 82.968 C 298.637 82.986, 301 82.550, 301 82 C 301 81.450, 300.325 81, 299.500 81 C 298.675 81, 298 80.881, 298 80.736 C 298 80.591, 297.077 78.003, 295.949 74.986 C 290.969 61.669, 290.745 60.777, 292.164 59.878 C 292.987 59.356, 291.390 59.031, 288 59.031 C 284.374 59.031, 282.982 59.336, 283.915 59.926 M 303.750 59.706 C 305.910 60.122, 306 60.552, 306 70.453 C 306 80.250, 305.887 80.806, 303.750 81.550 C 301.895 82.196, 302.264 82.403, 305.854 82.729 C 310.345 83.138, 312.325 82.437, 310.271 81.167 C 309.501 80.692, 309.095 76.958, 309.087 70.286 C 309.076 60.595, 309.177 60.110, 311.288 59.701 C 312.504 59.465, 310.800 59.272, 307.500 59.272 C 304.200 59.272, 302.512 59.467, 303.750 59.706 M 317.990 59.972 C 319.201 60.738, 318.588 61.744, 314.703 65.362 C 312.076 67.808, 310.354 69.965, 310.875 70.155 C 311.397 70.345, 314.788 73.313, 318.413 76.750 C 322.037 80.188, 325.227 83, 325.501 83 C 326.633 83, 325.862 81.230, 323.750 78.983 C 316.987 71.788, 313.826 65, 317.240 65 C 317.804 65, 319.036 64.111, 319.978 63.025 C 320.921 61.938, 322.773 60.617, 324.096 60.088 C 326.128 59.276, 325.725 59.119, 321.500 59.079 C 317.999 59.045, 316.947 59.313, 317.990 59.972 M 329.250 59.689 C 331.134 60.182, 331.222 60.847, 331.024 73 C 330.937 78.363, 330.476 80.825, 329.409 81.641 C 328.249 82.527, 329.711 82.808, 335.958 82.900 C 340.381 82.964, 344 82.600, 344 82.090 C 344 81.581, 344.312 80.339, 344.694 79.332 C 345.355 77.587, 345.304 77.583, 343.623 79.250 C 342.652 80.213, 340.539 81, 338.929 81 L 336 81 336 70.500 L 336 60 339.032 60 C 341.242 60, 342.310 60.610, 342.969 62.250 C 343.838 64.413, 343.876 64.393, 343.937 61.750 L 344 59 335.750 59.116 C 331.212 59.180, 328.288 59.438, 329.250 59.689 M 434.966 59.820 C 427.846 62.976, 424.862 70.807, 428.603 76.518 C 432.642 82.680, 441.427 84.753, 447.528 80.982 C 452.059 78.182, 454.004 74.806, 453.978 69.785 C 453.954 65.252, 452.072 62.038, 448.316 60.117 C 445.951 58.908, 437.452 58.719, 434.966 59.820 M 458.750 59.706 C 460.909 60.122, 461 60.554, 461 70.417 C 461 80.087, 460.867 80.759, 458.750 81.780 C 456.858 82.692, 457.456 82.870, 462.500 82.901 C 467.696 82.932, 468.266 82.758, 466.750 81.608 C 464.474 79.880, 464.252 72, 466.480 72 C 467.294 72, 470.416 74.577, 473.419 77.727 C 476.422 80.877, 479.171 83.162, 479.528 82.805 C 479.886 82.448, 478.319 79.640, 476.048 76.565 L 471.918 70.974 474.517 67.567 C 476.731 64.663, 476.933 63.866, 475.881 62.182 C 475.193 61.080, 473.064 59.943, 471.073 59.613 C 467.038 58.946, 455.263 59.034, 458.750 59.706 M 507 59.729 C 509.571 60.707, 509.969 62.237, 509.985 71.193 C 509.999 79.052, 509.787 80.036, 507.777 81.443 C 505.656 82.929, 505.819 83, 511.337 83 C 514.936 83, 516.885 82.623, 516.500 82 C 516.160 81.450, 515.234 81, 514.441 81 C 513.381 81, 513 79.694, 513 76.055 L 513 71.110 517.750 70.735 L 522.500 70.360 517.750 70.180 L 513 70 513 65.070 C 513 60.752, 513.279 60.085, 515.250 59.706 C 516.487 59.467, 514.800 59.247, 511.500 59.215 C 508.200 59.184, 506.175 59.415, 507 59.729 M 524.701 59.699 C 526.794 60.105, 526.902 60.620, 526.913 70.230 C 526.923 78.570, 526.630 80.550, 525.236 81.569 C 523.819 82.606, 524.428 82.810, 529.023 82.837 C 533.736 82.865, 534.256 82.689, 532.750 81.574 C 531.285 80.490, 531 78.640, 531 70.213 C 531 61.467, 531.230 60.087, 532.750 59.689 C 533.712 59.438, 531.800 59.241, 528.500 59.252 C 525.200 59.263, 523.490 59.464, 524.701 59.699 M 203 65 C 203 69.579, 203.198 70, 205.345 70 C 207.663 70, 211 67.262, 211 65.360 C 211 63.583, 206.963 60, 204.961 60 C 203.274 60, 203 60.700, 203 65 M 433.687 62.805 C 429.700 66.966, 429.869 73.542, 434.066 77.563 C 436.508 79.903, 438.026 80.500, 441.530 80.500 C 447.645 80.500, 449.500 78.412, 449.500 71.530 C 449.500 66.920, 449.071 65.684, 446.563 63.066 C 442.595 58.924, 437.504 58.821, 433.687 62.805 M 465 65 C 465 69.551, 465.207 70, 467.300 70 C 468.565 70, 470.140 69.460, 470.800 68.800 C 473.561 66.039, 471.049 60, 467.140 60 C 465.239 60, 465 60.558, 465 65 M 490 70.140 C 490 78.642, 489.717 80.486, 488.250 81.560 C 486.755 82.653, 487.336 82.832, 492.228 82.789 C 495.378 82.760, 497.714 82.346, 497.419 81.869 C 497.124 81.391, 496.234 81, 495.441 81 C 494.278 81, 494 78.976, 494 70.500 C 494 60.667, 493.873 60, 492 60 C 490.131 60, 490 60.667, 490 70.140 M 178.500 63 C 178.125 64.183, 178.042 65.376, 178.317 65.651 C 178.592 65.926, 179.125 65.183, 179.500 64 C 179.875 62.817, 179.958 61.624, 179.683 61.349 C 179.408 61.074, 178.875 61.817, 178.500 63 M 285.647 63.750 C 285.378 64.713, 284.868 66.513, 284.512 67.750 C 283.938 69.747, 284.223 70, 287.040 70 C 289.676 70, 290.089 69.704, 289.478 68.250 C 289.074 67.287, 288.523 65.487, 288.255 64.250 C 287.673 61.567, 286.328 61.309, 285.647 63.750 M 622.447 63.915 C 622.758 64.418, 622.447 65.058, 621.756 65.338 C 620.806 65.724, 620.865 66.106, 622 66.909 C 624.167 68.441, 626.971 68.238, 627.638 66.500 C 627.955 65.675, 629.092 65, 630.166 65 C 631.240 65, 631.840 64.550, 631.500 64 C 631.160 63.450, 628.857 63, 626.382 63 C 623.907 63, 622.136 63.412, 622.447 63.915 M 611.119 68.462 C 607.626 69.726, 608.478 70.689, 612.982 70.567 C 614.514 70.526, 615.595 69.830, 615.805 68.750 C 616.191 66.774, 615.844 66.752, 611.119 68.462 M 164 69.032 C 162.667 69.892, 162.667 70.108, 164 70.968 C 165.538 71.960, 166.494 70.951, 165.833 69.032 C 165.618 68.408, 164.967 68.408, 164 69.032 M 341.088 68.925 C 339.894 69.680, 339.933 70.076, 341.338 71.481 C 342.887 73.030, 343 72.969, 343 70.571 C 343 67.679, 343.023 67.699, 341.088 68.925 M 610.500 74 C 610.840 74.550, 610.443 75, 609.618 75 C 608.793 75, 607.821 75.480, 607.459 76.067 C 606.269 77.993, 607.889 78.303, 610.434 76.635 C 611.806 75.736, 613.733 74.993, 614.715 74.985 C 616.233 74.972, 616.276 74.824, 615 74 C 613.024 72.723, 609.711 72.723, 610.500 74 M 622.500 74 C 622.126 74.605, 623.509 75, 626 75 C 628.491 75, 629.874 74.605, 629.500 74 C 629.160 73.450, 627.585 73, 626 73 C 624.415 73, 622.840 73.450, 622.500 74 M 45 121.467 L 45 132 47.500 132 C 49.750 132, 50 131.600, 50 128 C 50 124.516, 50.290 124.001, 52.250 124.010 C 53.612 124.016, 55.881 125.590, 58 128 C 60.989 131.399, 62.084 131.979, 65.500 131.971 L 69.500 131.961 65.042 128.230 L 60.584 124.500 64.042 124 L 67.500 123.500 67.500 117.500 L 67.500 111.500 56.250 111.217 L 45 110.934 45 121.467 M 74.086 113.181 C 74.762 114.457, 76.467 117.300, 77.874 119.500 C 79.282 121.700, 81.412 125.300, 82.607 127.500 C 85.890 133.539, 88.998 133.474, 92.132 127.302 C 93.473 124.661, 96.060 119.912, 97.880 116.750 L 101.191 111 98.638 111 C 96.636 111, 95.502 112.027, 93.389 115.750 C 91.907 118.362, 89.890 121.837, 88.906 123.471 L 87.118 126.441 86.087 123.971 C 85.520 122.612, 83.775 119.250, 82.208 116.500 C 79.823 112.313, 78.832 111.448, 76.108 111.181 C 72.992 110.876, 72.907 110.959, 74.086 113.181 M 123 121.500 L 123 132 125.500 132 C 127.750 132, 128 131.600, 128 128 L 128 124 136.465 124 C 145.706 124, 147 123.202, 147 117.500 C 147 111.520, 145.957 111, 133.965 111 L 123 111 123 121.500 M 252 116 C 252 119.522, 251.602 121, 250.655 121 C 247.842 121, 245.727 124.732, 246.427 128.460 L 247.091 132 255.345 132 C 259.956 132, 264.080 131.520, 264.687 130.913 C 265.470 130.130, 265.962 130.130, 266.446 130.913 C 266.816 131.511, 268.774 132, 270.799 132 L 274.480 132 271.596 129.326 L 268.712 126.652 270.856 124.916 C 272.035 123.961, 273 122.737, 273 122.197 C 273 120.222, 270.163 120.199, 268.062 122.157 C 266.109 123.976, 265.695 124.027, 263.702 122.690 C 260.581 120.595, 255 115.446, 255 114.661 C 255 114.297, 256.575 114, 258.500 114 C 260.944 114, 262 114.452, 262 115.500 C 262 117.160, 265.530 117.569, 266.487 116.021 C 266.820 115.482, 266.606 114.132, 266.011 113.021 C 265.097 111.313, 263.928 111, 258.465 111 L 252 111 252 116 M 299.082 112.401 C 298.338 113.298, 298.024 116.987, 298.210 122.651 L 298.500 131.500 309.664 131.782 L 320.827 132.064 321.488 129.056 C 322.274 125.476, 321.551 124, 319.011 124 C 317.831 124, 317.021 124.832, 316.820 126.250 C 316.529 128.294, 315.883 128.527, 309.750 128.796 L 303 129.091 303 122.046 L 303 115 310 115 C 316.412 115, 317 115.174, 317 117.070 C 317 118.644, 317.539 119.063, 319.250 118.820 C 321.440 118.509, 321.646 117.785, 321.119 112.250 C 320.939 110.363, 300.658 110.502, 299.082 112.401 M 50 118 L 50 121 56.500 121 L 63 121 63 118 L 63 115 56.500 115 L 50 115 50 118 M 128 117.954 C 128 120.997, 128.005 121, 133.750 120.985 C 140.318 120.967, 142.350 120.062, 141.838 117.380 C 141.536 115.798, 140.410 115.453, 134.740 115.204 L 128 114.909 128 117.954 M 154.846 119.252 C 151.577 124.483, 148 130.899, 148 131.530 C 148 132.735, 151.853 131.825, 152.362 130.500 C 152.791 129.382, 154.574 129, 159.362 129 C 164.150 129, 165.933 129.382, 166.362 130.500 C 166.678 131.325, 168.069 132, 169.452 132 L 171.966 132 169.964 128.436 C 167.367 123.812, 164.702 119.631, 163.950 119 C 163.622 118.725, 163.064 117.713, 162.708 116.750 C 161.500 113.474, 157.700 114.683, 154.846 119.252 M 177 123.500 C 177 131.333, 177.157 132, 179 132 C 180.556 132, 181 131.333, 181 129 C 181 126.531, 181.410 126, 183.313 126 C 184.585 126, 186.919 127.350, 188.500 129 C 191.624 132.260, 197.465 133.375, 196.362 130.500 C 196.045 129.675, 195.352 129, 194.822 129 C 194.291 129, 193.182 128.325, 192.357 127.500 C 191.024 126.167, 191.131 126, 193.322 126 C 195.915 126, 197 124.378, 197 120.500 C 197 115.294, 196.434 115, 186.393 115 L 177 115 177 123.500 M 204 123.500 C 204 131.900, 204.029 132, 206.500 132 C 208.611 132, 209 131.533, 209 129 C 209 127.350, 209.241 126, 209.535 126 C 210.555 126, 215.504 129.458, 216.300 130.726 C 217.142 132.068, 224.029 132.539, 223.960 131.250 C 223.937 130.838, 221.511 128.947, 218.568 127.049 C 213.688 123.903, 212.181 121.049, 215.357 120.972 C 215.986 120.957, 218.268 119.607, 220.428 117.972 L 224.356 115 221.313 115 C 219.639 115, 217.126 115.900, 215.727 117 C 214.329 118.100, 212.693 119, 212.092 119 C 211.492 119, 211 119.450, 211 120 C 211 120.550, 210.550 121, 210 121 C 209.450 121, 209 119.650, 209 118 C 209 115.467, 208.611 115, 206.500 115 C 204.029 115, 204 115.100, 204 123.500 M 336.960 117.250 C 336.416 118.487, 335.072 120.850, 333.974 122.500 C 332.875 124.150, 331.704 126.287, 331.372 127.250 C 331.039 128.213, 330.369 129, 329.883 129 C 329.398 129, 329 129.675, 329 130.500 C 329 131.341, 329.892 132, 331.031 132 C 332.149 132, 333.322 131.325, 333.638 130.500 C 334.067 129.383, 335.847 129, 340.607 129 C 345.623 129, 347 129.323, 347 130.500 C 347 131.433, 347.944 132, 349.500 132 C 350.875 132, 352 131.557, 352 131.015 C 352 130.002, 346.092 119.895, 344.977 119 C 344.635 118.725, 344.064 117.713, 343.708 116.750 C 342.746 114.142, 338.179 114.481, 336.960 117.250 M 358 123.500 C 358 130.389, 358.284 132, 359.500 132 C 360.653 132, 361 130.716, 361 126.448 L 361 120.897 363.250 123.368 C 364.488 124.728, 366.275 126.767, 367.222 127.899 C 369.365 130.460, 370.642 129.939, 374.750 124.828 L 378 120.784 378 126.392 C 378 131.333, 378.238 132, 380 132 C 381.843 132, 382 131.333, 382 123.500 C 382 115.954, 381.796 115, 380.184 115 C 378.398 115, 372 121.330, 372 123.096 C 372 125.594, 367.976 123.494, 365.107 119.500 C 363.187 116.827, 361.089 115, 359.938 115 C 358.173 115, 358 115.758, 358 123.500 M 390 123.500 C 390 131.333, 390.157 132, 392 132 C 393.556 132, 394 131.333, 394 129 L 394 126 400.800 126 C 408.636 126, 410 125.097, 410 119.907 C 410 115.324, 409.235 115, 398.418 115 L 390 115 390 123.500 M 416.667 115.667 C 416.300 116.033, 416 119.874, 416 124.200 L 416 132.068 426.750 131.784 L 437.500 131.500 437.805 126.750 L 438.110 122 431.981 122 C 426.683 122, 425.899 122.237, 426.190 123.750 C 426.528 125.505, 426.874 125.644, 431.500 125.875 C 433 125.950, 434 126.600, 434 127.500 C 434 128.692, 432.550 129, 426.948 129 L 419.895 129 420.198 123.750 L 420.500 118.500 426.909 118.198 C 430.762 118.017, 433.585 118.329, 433.989 118.982 C 434.845 120.367, 438 119.202, 438 117.500 C 438 116.793, 437.288 115.941, 436.418 115.607 C 434.270 114.783, 417.500 114.833, 416.667 115.667 M 445 123.464 C 445 131.333, 445.156 132, 447 132 C 448.556 132, 449 131.333, 449 129 C 449 126.545, 449.414 126, 451.277 126 C 452.530 126, 455.032 127.350, 456.839 129 C 459.076 131.043, 461.141 131.991, 463.312 131.973 L 466.500 131.946 463.032 129.071 C 459.585 126.213, 459.579 126.194, 462.032 125.848 C 464.280 125.531, 464.500 125.055, 464.500 120.500 L 464.500 115.500 454.750 115.214 L 445 114.928 445 123.464 M 473.250 115.645 C 472.399 116, 472 118.695, 472 124.083 L 472 132 483.540 132 L 495.081 132 494.790 123.750 L 494.500 115.500 484.500 115.312 C 479 115.209, 473.938 115.359, 473.250 115.645 M 503 123.500 L 503 132 513 132 L 523 132 523 123.500 C 523 115.667, 522.843 115, 521 115 C 519.190 115, 519 115.667, 519 122 L 519 129 513 129 L 507 129 507 122 C 507 115.667, 506.810 115, 505 115 C 503.157 115, 503 115.667, 503 123.500 M 531 123.500 C 531 131.900, 531.029 132, 533.500 132 C 535.867 132, 536 131.704, 536 126.440 L 536 120.881 541.226 125.190 C 544.100 127.561, 547.057 130.063, 547.797 130.750 C 548.537 131.438, 550.193 132, 551.478 132 C 553.748 132, 553.808 131.772, 553.656 123.750 C 553.511 116.070, 553.348 115.478, 551.302 115.187 C 549.288 114.901, 549.078 115.350, 548.802 120.541 L 548.500 126.207 545.698 123.604 C 544.158 122.172, 542.470 121, 541.948 121 C 541.427 121, 540.997 120.662, 540.993 120.250 C 540.982 119.064, 534.554 115, 532.688 115 C 531.236 115, 531 116.190, 531 123.500 M 562 123.415 L 562 132.075 571.250 131.788 L 580.500 131.500 582.406 127.940 C 584.417 124.185, 584.192 121.011, 581.671 117.564 C 580.498 115.960, 578.689 115.553, 571.127 115.192 L 562 114.755 562 123.415 M 181 120.450 C 181 122.903, 181.230 123, 187.070 123 C 192.792 123, 193.121 122.871, 192.820 120.750 C 192.536 118.757, 191.844 118.466, 186.750 118.200 C 181.175 117.909, 181 117.978, 181 120.450 M 394 120.550 C 394 123.022, 394.175 123.091, 399.750 122.800 C 404.844 122.534, 405.536 122.243, 405.820 120.250 C 406.121 118.129, 405.792 118, 400.070 118 C 394.230 118, 394 118.097, 394 120.550 M 449 120.500 C 449 122.884, 449.274 123, 454.893 123 C 459.357 123, 460.934 122.614, 461.396 121.410 C 462.434 118.705, 461.100 118, 454.941 118 C 449.271 118, 449 118.114, 449 120.500 M 476.847 123.084 C 476.656 125.880, 476.688 128.355, 476.917 128.584 C 477.146 128.813, 480.183 129, 483.667 129 L 490 129 490 123.500 L 490 118 483.597 118 L 477.193 118 476.847 123.084 M 566 123.500 L 566 129 571.443 129 C 575.935 129, 577.159 128.611, 578.443 126.777 C 581.965 121.749, 578.691 118, 570.777 118 L 566 118 566 123.500 M 156.830 122.500 L 155.244 126 159.122 126 C 163.506 126, 164.098 124.572, 161.133 121.153 C 160.106 119.969, 159.074 119, 158.841 119 C 158.608 119, 157.703 120.575, 156.830 122.500 M 338.250 121.707 C 336.432 125.621, 336.631 126, 340.500 126 C 344.500 126, 344.533 125.932, 342.474 121.950 C 340.593 118.312, 339.847 118.269, 338.250 121.707 M 252.750 123.572 C 251.187 124.420, 250 125.913, 250 127.032 C 250 128.748, 250.696 129, 255.441 129 C 258.434 129, 261.162 128.547, 261.505 127.992 C 262.200 126.867, 259.735 124, 258.071 124 C 257.482 124, 257 123.550, 257 123 C 257 121.661, 256.032 121.791, 252.750 123.572" stroke="none" fill="black" fill-rule="evenodd"/>
</svg>