<svg width="182" height="163" viewBox="0 0 182 163" fill="none" xmlns="http://www.w3.org/2000/svg">
<path d="M33.5 122.5C34.0087 122.5 34.6017 122.86 35.2285 123.775C35.8442 124.675 36.4188 126.01 36.9092 127.704C37.888 131.086 38.5 135.787 38.5 141C38.5 146.213 37.888 150.914 36.9092 154.296C36.4188 155.99 35.8442 157.325 35.2285 158.225C34.6017 159.14 34.0087 159.5 33.5 159.5C32.9913 159.5 32.3983 159.14 31.7715 158.225C31.1558 157.325 30.5812 155.99 30.0908 154.296C29.112 150.914 28.5 146.213 28.5 141C28.5 135.787 29.112 131.086 30.0908 127.704C30.5812 126.01 31.1558 124.675 31.7715 123.775C32.3983 122.86 32.9913 122.5 33.5 122.5Z" fill="black" stroke="#D9D9D9"/>
<path d="M53.5 119.5C54.0087 119.5 54.6017 119.86 55.2285 120.775C55.8442 121.675 56.4188 123.01 56.9092 124.704C57.888 128.086 58.5 132.787 58.5 138C58.5 143.213 57.888 147.914 56.9092 151.296C56.4188 152.99 55.8442 154.325 55.2285 155.225C54.6017 156.14 54.0087 156.5 53.5 156.5C52.9913 156.5 52.3983 156.14 51.7715 155.225C51.1558 154.325 50.5812 152.99 50.0908 151.296C49.112 147.914 48.5 143.213 48.5 138C48.5 132.787 49.112 128.086 50.0908 124.704C50.5812 123.01 51.1558 121.675 51.7715 120.775C52.3983 119.86 52.9913 119.5 53.5 119.5Z" fill="black" stroke="#D9D9D9"/>
<path d="M123.5 119.5C124.009 119.5 124.602 119.86 125.229 120.775C125.844 121.675 126.419 123.01 126.909 124.704C127.888 128.086 128.5 132.787 128.5 138C128.5 143.213 127.888 147.914 126.909 151.296C126.419 152.99 125.844 154.325 125.229 155.225C124.602 156.14 124.009 156.5 123.5 156.5C122.991 156.5 122.398 156.14 121.771 155.225C121.156 154.325 120.581 152.99 120.091 151.296C119.112 147.914 118.5 143.213 118.5 138C118.5 132.787 119.112 128.086 120.091 124.704C120.581 123.01 121.156 121.675 121.771 120.775C122.398 119.86 122.991 119.5 123.5 119.5Z" fill="black" stroke="#D9D9D9"/>
<path d="M112.5 125.5C113.009 125.5 113.602 125.86 114.229 126.775C114.844 127.675 115.419 129.01 115.909 130.704C116.888 134.086 117.5 138.787 117.5 144C117.5 149.213 116.888 153.914 115.909 157.296C115.419 158.99 114.844 160.325 114.229 161.225C113.602 162.14 113.009 162.5 112.5 162.5C111.991 162.5 111.398 162.14 110.771 161.225C110.156 160.325 109.581 158.99 109.091 157.296C108.112 153.914 107.5 149.213 107.5 144C107.5 138.787 108.112 134.086 109.091 130.704C109.581 129.01 110.156 127.675 110.771 126.775C111.398 125.86 111.991 125.5 112.5 125.5Z" fill="black" stroke="#D9D9D9"/>
<path d="M77.5 28C98.7161 28 117.882 34.1596 131.719 44.0684C145.557 53.9784 154 67.5797 154 82.5C154 97.4203 145.557 111.022 131.719 120.932C117.882 130.84 98.7161 137 77.5 137C56.2839 137 37.1178 130.84 23.2812 120.932C9.44297 111.022 1 97.4203 1 82.5C1 67.5797 9.44297 53.9784 23.2812 44.0684C37.1178 34.1596 56.2839 28 77.5 28Z" fill="#D9D9D9" stroke="black" stroke-width="2"/>
<path d="M146 16C153.322 16 160.048 20.185 164.983 27.1475C169.917 34.1076 173 43.7751 173 54.5C173 65.2249 169.917 74.8924 164.983 81.8525C160.048 88.815 153.322 93 146 93C138.678 93 131.952 88.815 127.017 81.8525C122.083 74.8924 119 65.2249 119 54.5C119 43.7751 122.083 34.1076 127.017 27.1475C131.952 20.185 138.678 16 146 16Z" fill="#FFDCBE" stroke="black" stroke-width="2"/>
<ellipse cx="140" cy="44" rx="3" ry="4" fill="black"/>
<ellipse cx="152" cy="44" rx="3" ry="4" fill="black"/>
<path d="M164.279 20.693C164.943 20.4512 165.757 20.5515 166.708 21.0548C167.66 21.5582 168.697 22.4408 169.752 23.6581C171.86 26.0898 173.97 29.7769 175.561 34.1458C177.151 38.5146 177.904 42.6955 177.852 45.9134C177.826 47.5242 177.599 48.867 177.194 49.8641C176.789 50.861 176.23 51.4611 175.566 51.7028C174.901 51.9446 174.087 51.8443 173.136 51.341C172.185 50.8376 171.148 49.955 170.093 48.7377C167.984 46.306 165.874 42.6189 164.284 38.25C162.694 33.8812 161.94 29.7003 161.992 26.4824C162.018 24.8716 162.245 23.5288 162.651 22.5317C163.056 21.5348 163.615 20.9348 164.279 20.693Z" fill="black" stroke="#D9D9D9"/>
<path d="M126.504 18.6556C127.145 18.8889 127.688 19.52 128.063 20.6281C128.436 21.7307 128.613 23.2269 128.572 25.0286C128.491 28.6267 127.548 33.3298 125.749 38.2729C123.95 43.2157 121.65 47.424 119.399 50.2323C118.272 51.6386 117.175 52.6711 116.18 53.276C115.181 53.884 114.359 54.0182 113.718 53.7849C113.077 53.5517 112.534 52.9206 112.159 51.8124C111.786 50.7098 111.609 49.2137 111.65 47.412C111.731 43.814 112.674 39.1115 114.473 34.1686C116.272 29.2256 118.573 25.0166 120.823 22.2082C121.95 20.802 123.048 19.7694 124.042 19.1645C125.041 18.5566 125.863 18.4224 126.504 18.6556Z" fill="black" stroke="#D9D9D9"/>
<path d="M143 1C150.59 1 157.413 2.76031 162.303 5.55469C167.221 8.36524 170 12.0954 170 16C170 19.9046 167.221 23.6348 162.303 26.4453C157.413 29.2397 150.59 31 143 31C135.41 31 128.587 29.2397 123.697 26.4453C118.779 23.6348 116 19.9046 116 16C116 12.0954 118.779 8.36524 123.697 5.55469C128.587 2.76031 135.41 1 143 1Z" fill="#D9D9D9" stroke="black" stroke-width="2"/>
</svg>
